<?xml version="1.0" encoding="UTF-8" standalone="no"?>
<!-- Created with Inkscape (http://www.inkscape.org/) -->

<svg
   width="1000mm"
   height="700mm"
   viewBox="0 0 1000 700"
   version="1.1"
   id="svg5"
   inkscape:version="1.2.2 (1:1.2.2+202212051552+b0a8486541)"
   sodipodi:docname="ink_img003.svg"
   xmlns:inkscape="http://www.inkscape.org/namespaces/inkscape"
   xmlns:sodipodi="http://sodipodi.sourceforge.net/DTD/sodipodi-0.dtd"
   xmlns="http://www.w3.org/2000/svg"
   xmlns:svg="http://www.w3.org/2000/svg">
  <sodipodi:namedview
     id="namedview7"
     pagecolor="#ffffff"
     bordercolor="#cccccc"
     borderopacity="1"
     inkscape:showpageshadow="0"
     inkscape:pageopacity="1"
     inkscape:pagecheckerboard="0"
     inkscape:deskcolor="#d1d1d1"
     inkscape:document-units="mm"
     showgrid="false"
     inkscape:zoom="0.21026733"
     inkscape:cx="1916.6078"
     inkscape:cy="1562.2969"
     inkscape:window-width="1440"
     inkscape:window-height="836"
     inkscape:window-x="0"
     inkscape:window-y="0"
     inkscape:window-maximized="1"
     inkscape:current-layer="layer1"
     inkscape:lockguides="false" />
  <defs
     id="defs2" />
  <g
     inkscape:label="Layer 1"
     inkscape:groupmode="layer"
     id="layer1">
    <path
       style="fill:#000000;stroke-width:0.264583"
       id="path69"
       d="m 418.353,284.91349 c 5.76431,1.22301 11.55435,2.38112 17.46228,2.58014 4.91649,0.1656 9.842,-0.3851 14.71814,-0.90858 10.76886,-1.2754 21.47888,-2.94558 32.21929,-4.42722 7.73073,-1.33678 15.59245,-1.21232 23.37271,-1.99216 3.99227,-0.56078 8.00746,-0.16232 12.01237,-0.1134 1.70945,0.0135 3.41842,-0.0654 5.12768,-0.0407 1.51985,-3.33002 -5.34654,-8.34797 -7.62735,-9.82591 -2.0505,-1.77213 -4.55824,-2.66636 -6.96677,-3.79373 -0.0457,1.49508 -1.39282,-1.70717 -1.11215,-1.23076 0.58446,0.99203 0.77965,2.28536 1.65724,3.03072 0.489,0.41532 1.2835,-0.0106 1.92471,0.0114 1.91056,0.0656 3.81789,0.20431 5.72696,0.30422 4.38076,-0.14319 8.53446,2.69499 12.89574,1.91614 0.16857,0.3035 0.42487,-0.40749 0.61259,-0.28345 0.10057,0.0665 0.0562,0.24823 0.14253,0.33234 0.14669,0.14288 0.38121,0.17285 0.52536,0.31827 0.13181,0.13298 0.18359,0.32639 0.2754,0.48956 -0.44608,-0.79907 -0.89217,-1.59811 -1.33829,-2.39718 -1.91285,4.54716 -6.25956,7.54285 -9.77836,10.82686 -2.0239,1.75437 -3.63977,3.83981 -5.11268,6.05461 0,0 1.40499,3.20562 1.40499,3.20562 v 0 c 1.43709,-2.21131 3.02774,-4.28289 5.03608,-6.02211 3.56727,-3.33599 7.9216,-6.35896 9.97027,-10.91242 -0.0719,-0.31811 -0.45881,-6.16212 -2.8761,-4.92186 -4.32464,0.71623 -8.4696,-2.15315 -12.82166,-1.94071 -0.68199,-0.0357 -7.73834,-0.41686 -7.81386,-0.25948 -1.10201,2.29637 0.0371,3.90009 1.61706,4.85074 2.40535,1.10897 4.8651,2.06303 6.91748,3.80701 1.82054,1.20951 3.42527,2.39329 4.87931,4.0404 0.36954,0.41859 0.86609,1.82403 1.0572,1.29937 0.71403,-1.9602 -1.6686,-2.7807 -0.27276,-2.22986 -1.70929,-0.0214 -3.41834,0.0583 -5.12776,0.0407 -4.01743,-0.057 -8.04537,-0.43606 -12.04976,0.12573 -7.78558,0.76898 -15.65032,0.66114 -23.3853,1.99641 -10.73669,1.48283 -21.44364,3.15021 -32.20916,4.42378 -4.85659,0.51792 -9.76061,1.06336 -14.65697,0.88861 -5.89081,-0.21027 -11.66431,-1.37361 -17.41183,-2.5957 0,0 1.00537,3.35251 1.00537,3.35251 z" />
    <path
       style="fill:#000000;stroke-width:0.264583"
       id="path71"
       d="m 537.12078,283.69522 c 0.23709,9.5745 2.02109,19.05426 2.35815,28.61664 0.12425,3.52526 -0.0638,7.94377 -0.16285,11.42347 -0.7615,11.479 -2.61205,22.85642 -4.2155,34.24115 -0.22694,1.74054 -0.46787,3.47933 -0.68083,5.22163 -0.52078,4.26056 -0.46545,5.21648 -1.31921,9.36326 -0.84416,4.10017 -1.95892,8.13316 -2.7694,12.24455 -1.16181,3.55682 -0.43508,7.12219 -0.26691,10.7293 -0.20087,1.38224 0.67321,3.22993 -1.30688,1.69918 -2.52439,-1.9028 -4.90368,-4.1893 -6.70671,-6.79576 -0.16896,-0.37563 -0.62058,-1.52279 -0.50692,-1.12689 0.80852,2.81646 2.03939,4.17576 -0.82367,-1.94207 -0.29028,-0.62026 -1.07768,-0.84847 -1.44452,-1.44293 -0.12179,0.0578 -0.3987,0.0428 -0.36542,0.17343 1.17161,4.59915 4.00873,8.22217 6.6371,12.06516 1.75385,2.50148 3.2521,5.15057 5.16615,7.5351 3.75404,2.16072 8.29273,-1.5194 11.21225,-3.59521 7.53684,-6.31693 12.60708,-14.82294 18.90802,-22.24527 0,0 -1.36533,-3.22273 -1.36533,-3.22273 v 0 c -6.30258,7.38867 -11.33768,15.88405 -18.82838,22.21269 -2.67467,1.91649 -7.27477,5.773 -10.7034,3.43781 -1.8665,-2.41347 -3.39627,-5.0411 -5.14292,-7.5403 -1.39959,-2.05097 -2.82165,-4.09213 -4.12382,-6.20737 -0.34272,-0.55671 -0.72181,-2.29163 -0.98764,-1.69439 -1.26296,2.83774 1.71037,2.29344 0.36058,2.49598 0.73612,0.84047 1.40475,1.5686 1.38485,1.45576 -0.14663,-0.83172 -1.1108,-3.18802 -0.78335,-2.40953 3.1999,7.60722 0.50816,2.2031 2.16712,5.46708 1.89585,2.57392 4.23871,4.89482 6.82959,6.76609 2.3146,1.35022 1.94757,-0.20556 2.02398,-1.97332 -0.10314,-3.59354 -0.99968,-7.14616 0.19465,-10.69316 0.8001,-4.11859 1.91567,-8.14689 2.77657,-12.24804 0.8927,-4.25267 0.80102,-4.99602 1.33209,-9.36961 0.21151,-1.74181 0.45173,-3.48001 0.67758,-5.22002 1.60147,-11.39243 3.45469,-22.77504 4.25013,-34.25841 0.0975,-3.25612 0.30009,-8.1077 0.19288,-11.43886 -0.30776,-9.56302 -2.13061,-19.04087 -2.36178,-28.61474 0,0 -1.60625,-3.10967 -1.60625,-3.10967 z" />
    <path
       style="fill:#000000;stroke-width:0.264583"
       id="path73"
       d="m 522.23169,408.97029 c -3.20005,0 -4.90008,-0.11152 -8.01743,0.29178 -2.59635,0.33589 -3.09152,0.75936 -5.59112,1.01137 -2.29097,0.23098 -4.23497,0.11158 -6.5451,0.0616 -8.82629,-0.51552 -17.5436,1.54797 -26.24723,2.74934 -8.90127,1.10463 -17.79902,2.23744 -26.69849,3.35663 -6.73547,0.65342 -13.48674,-0.067 -20.23692,-0.0677 -3.48171,-0.38555 -7.64421,0.84532 -11.00508,-0.22883 -1.59422,-1.04289 -4.17539,-2.95783 -0.96843,1.45761 0.17947,0.2471 0.117,-0.59949 0.17553,-0.89921 1.69547,-4.37097 4.47823,-8.06569 7.55689,-11.53173 1.94633,-1.92061 4.3402,-3.30698 6.3981,-5.08048 4.52232,-5.41398 -5.61236,-3.76576 -6.72742,-3.71086 -2.77054,0.62246 -5.5399,1.3507 -8.01934,2.76455 -1.28206,0.44215 -2.6706,0.37267 -3.88466,1.01211 -2.82165,2.62951 0.43603,6.9614 2.14881,9.49317 2.03787,2.9322 3.48961,6.43771 6.38823,8.67987 1.68098,1.30032 2.99945,1.67817 4.93353,2.45727 0.63913,0.1965 1.27825,0.39301 1.91738,0.58951 0,0 -0.98041,-3.35989 -0.98041,-3.35989 v 0 c -0.62939,-0.19928 -1.25878,-0.39859 -1.88818,-0.59788 -1.93399,-0.80769 -3.13671,-1.15017 -4.79933,-2.49232 -2.83501,-2.28859 -4.26786,-5.78755 -6.32004,-8.69553 -0.99987,-1.5399 -1.83576,-3.26366 -0.74301,-0.0319 0.0999,0.29546 -0.11832,-0.61306 -0.15443,-0.92289 -0.0938,-0.80481 0.087,-1.34117 0.74406,-1.84894 1.18975,-0.67992 2.63943,-0.48516 3.89122,-1.01459 2.42613,-1.39597 5.14684,-2.10614 7.86456,-2.70934 1.33027,-0.0693 2.65962,-0.25265 3.98954,-0.29908 0.37942,-0.0132 1.05056,0.39404 1.13866,0.0249 0.23755,-0.99565 -0.10964,-2.06629 -0.41875,-3.04207 -0.0614,-0.19386 -0.26575,0.30787 -0.39862,0.4618 -2.03385,1.81687 -4.49006,3.16098 -6.43827,5.09709 -3.14685,3.53759 -5.89648,7.18437 -7.7275,11.60899 -0.76507,3.97399 0.75375,4.56158 3.30872,5.94797 3.56098,0.94382 7.46591,-0.12698 11.09964,0.1996 6.76357,0.006 13.53016,0.72715 20.27865,0.0539 8.90082,-1.11943 17.80005,-2.25168 26.70252,-3.35801 8.68608,-1.20066 17.38537,-3.25462 26.1948,-2.73198 2.40152,0.0466 4.23326,0.16184 6.60705,-0.0822 4.48572,-0.46112 8.88669,-1.94096 13.55344,-1.28474 0,0 -1.08157,-3.32869 -1.08157,-3.32869 z" />
    <path
       style="fill:#000000;stroke-width:0.264583"
       id="path75"
       d="m 412.8245,422.11294 c 3.98934,4.39438 8.72707,8.14223 12.42558,12.80324 0.95975,1.20949 1.80414,2.65086 2.61678,3.96113 1.56527,2.70311 3.94769,4.04273 6.7115,5.25737 0,0 -0.94105,-3.37113 -0.94105,-3.37113 v 0 c -2.71843,-1.22981 -4.99432,-2.6307 -6.51036,-5.30715 -4.05831,-6.42355 -9.85115,-11.33644 -15.11858,-16.74698 0,0 0.81613,3.40352 0.81613,3.40352 z" />
    <path
       style="fill:#000000;stroke-width:0.264583"
       id="path77"
       d="m 419.79797,410.17576 c -0.18945,-2.01356 -0.35783,-4.02924 -0.5683,-6.0407 -0.58328,-5.57464 -0.90956,-6.6542 -1.14528,-12.21878 -0.26,-6.13823 0.0641,-12.30162 0.23561,-18.43712 0.0363,-2.27671 0.0869,-4.55327 0.10885,-6.83019 0.044,-4.57335 -0.0982,-7.22485 0.26181,-11.64175 0.3556,-4.36353 1.25293,-8.71574 1.90886,-13.03975 0.56282,-6.00128 1.83367,-12.00335 1.8873,-18.04799 0.47919,-2.40975 0.6328,-4.83243 0.45601,-7.27724 -0.0761,-1.11598 -0.009,-2.23432 -0.005,-3.35155 0,-1.96882 0.25368,-2.97545 -2.29674,-4.36248 -0.1352,-0.0735 -1.54831,1.66643 -1.61727,1.74866 -1.0193,1.05219 -1.50561,2.37516 -2.53899,3.40426 -1.09008,1.10027 -1.78517,2.41557 -2.94071,3.48448 -1.8591,1.65653 -2.55257,4.21778 -3.56201,6.42615 -0.85307,1.81705 -1.91465,3.56727 -2.65192,5.41512 0.57037,0.71065 0.80624,2.02441 1.71112,2.13191 0.6518,0.0775 0.44026,-1.23701 0.68098,-1.84767 1.08167,-2.74389 2.60009,-5.25547 3.71531,-7.98391 0.61148,-2.18879 1.04537,-4.29294 3.03128,-5.56775 3.14954,1.15398 5.90513,3.59709 8.60213,5.58016 3.0308,2.30328 6.10997,4.54279 9.01398,7.00532 0,0 -0.846,-3.39621 -0.846,-3.39621 v 0 c -2.92214,-2.44774 -5.99705,-4.70057 -9.03677,-6.99956 -1.89298,-1.38681 -5.79837,-4.67407 -8.00161,-5.36061 -0.31953,-0.0996 -0.66661,-0.0609 -0.99991,-0.0913 -2.08015,1.30942 -2.6775,3.3129 -3.23167,5.65295 -1.08569,2.74463 -2.60067,5.2551 -3.72028,7.98621 -0.25615,0.62487 -0.82669,1.21026 -0.75163,1.88143 0.16174,1.4461 0.94911,2.75113 1.42367,4.1267 0.44551,-1.75323 1.72429,-3.57722 2.51449,-5.34874 1.00047,-2.16452 1.65296,-4.71558 3.43419,-6.37087 1.17721,-1.0699 1.91534,-2.33913 2.95079,-3.48861 1.08731,-1.04053 1.57512,-2.30561 2.57326,-3.41863 0.23349,-0.28583 0.45487,-0.582 0.70048,-0.85749 0.26348,-0.29546 0.80444,-0.45852 0.82545,-0.85383 0.37841,-7.11968 -0.90895,-3.7337 -0.57057,-2.01425 0.004,1.12167 -0.0608,2.24245 -0.018,3.36336 0.18348,2.43877 0.16232,4.87156 -0.434,7.26593 0.0246,1.65351 -0.21071,3.21284 -0.35772,4.86251 -0.392,4.40005 -0.8554,8.78472 -1.48166,13.16149 -0.65345,4.33009 -1.56745,8.68865 -1.9407,13.05557 -0.38264,4.47702 -0.2301,6.99778 -0.27209,11.64696 -0.0206,2.27626 -0.07,4.55216 -0.10499,6.82823 -0.17283,6.13966 -0.50996,12.31009 -0.26636,18.45287 0.22429,5.65591 0.53793,6.55878 1.13787,12.22261 0.21291,2.00999 0.38465,4.02413 0.57698,6.0362 0,0 1.6097,3.10788 1.6097,3.10788 z" />
    <path
       style="fill:#000000;stroke-width:0.264583"
       id="path79"
       d="m 406.34488,227.39947 c 4.83677,1.05214 9.62901,2.37501 14.6032,2.58118 1.29262,-0.0256 5.92767,-0.14356 7.37561,-0.0771 1.24965,0.0574 2.49235,0.21872 3.73851,0.32808 7.69281,1.7456 15.57165,0.74185 23.3463,1.25499 1.51157,0.0998 3.01371,0.31108 4.52057,0.46662 5.05965,0.60838 10.07435,1.63087 15.1508,2.1086 5.21333,0.49061 10.48044,0.56682 15.70408,0.96372 10.86501,1.06249 21.76645,1.70113 32.6611,2.3806 6.71914,0.97398 13.51941,0.5761 20.26546,1.06648 1.53948,0.11191 3.072,0.30468 4.60799,0.45701 1.65118,0.11731 3.30237,0.23462 4.95353,0.35193 9.51116,0.68202 19.05939,0.979 28.59563,1.14606 8.51615,-0.0485 17.03097,-0.13854 25.54748,-0.11095 5.5625,0.0278 11.12504,0.012 16.68756,0.009 3.262,7.9e-4 6.52399,0.002 9.78599,0.002 0.84148,-2.7e-4 1.68296,-2.6e-4 2.52442,-9e-5 -0.49869,-1.21406 -0.87257,-2.48724 -1.49609,-3.64216 -0.15428,-0.2858 -0.53486,-0.37034 -0.78319,-0.57967 -2.21068,-1.86348 -4.30033,-3.50764 -6.82387,-4.95586 -3.95912,-2.04591 -7.82947,-4.23767 -11.65376,-6.52428 -0.83492,-0.59502 -1.88592,-0.79059 -2.66991,-1.46402 -0.17336,-0.1489 -0.5216,-0.72966 -0.45789,-0.51021 0.86027,2.9621 0.27511,3.0729 1.52337,2.4471 6.77912,-0.11667 13.4993,0.61108 20.1432,1.90838 2.18504,0.51389 2.94428,0.6153 4.90612,1.31559 1.1717,0.41826 2.17638,1.1345 3.41042,0.6092 0.52099,-0.69066 0.98626,0.27002 0.92104,0.14769 -0.47164,-0.88485 -0.51548,-2.16073 -1.37644,-2.67471 -0.45638,-0.27247 -0.56946,0.90099 -0.90749,1.31121 -0.61852,0.75063 -1.3044,1.44312 -1.9566,2.16469 -0.972,0.88388 -1.93968,1.77253 -2.916,2.65165 -1.11918,1.00776 -2.30433,1.94516 -3.37042,3.00891 -3.52724,3.51953 -6.31322,7.54727 -9.01311,11.7052 0,0 1.40735,3.20459 1.40735,3.20459 v 0 c 2.67004,-4.14095 5.42562,-8.16531 8.9268,-11.66866 1.06521,-1.06587 2.25168,-2.00323 3.37294,-3.00995 0.98546,-0.88479 1.96479,-1.77638 2.94716,-2.66456 0.20662,-0.2259 2.97876,-3.12355 2.98474,-3.52924 0.0294,-1.99374 -0.12906,-4.80511 -2.23806,-3.92801 -1.45658,0.66429 -6.27811,-2.22475 -8.11601,-1.99242 -6.70708,-1.29368 -13.51547,-2.06532 -20.3568,-1.83588 -4.12695,1.97797 2.14794,5.44238 3.7362,6.18559 3.824,2.28917 7.71065,4.45449 11.65823,6.52309 2.03232,1.19318 3.85189,2.43928 5.65045,3.96268 1.30455,1.10496 1.92942,1.79564 1.95855,1.57234 0.13396,-1.02674 -0.32817,-2.04471 -0.49223,-3.06706 -0.84156,-6e-5 -1.68315,-1.3e-4 -2.52471,1.9e-4 -3.26205,5.2e-4 -6.5241,-0.001 -9.78614,-0.002 -5.5621,0.003 -11.12425,0.0186 -16.68632,-0.009 -8.51488,-0.0269 -17.02808,0.0661 -25.54261,0.10938 -9.53032,-0.17239 -19.07268,-0.46392 -28.57781,-1.15177 -3.19317,-0.22909 -6.37704,-0.57784 -9.57027,-0.80614 -6.74465,-0.4822 -13.54187,-0.10498 -20.25975,-1.06831 -10.89337,-0.67684 -21.79265,-1.32417 -32.65662,-2.38201 -5.21759,-0.39302 -10.47935,-0.47367 -15.68617,-0.96935 -5.07889,-0.4835 -10.09613,-1.50483 -15.15999,-2.10574 -1.51492,-0.15297 -3.0253,-0.36115 -4.5448,-0.45891 -7.76949,-0.49988 -15.63883,0.46637 -23.32731,-1.26104 -1.25574,-0.1063 -2.50819,-0.26331 -3.76716,-0.3189 -2.44549,-0.10798 -4.89786,0.17565 -7.34327,0.0667 -4.95814,-0.22086 -9.73632,-1.54995 -14.55934,-2.59464 0,0 1.00534,3.3525 1.00534,3.3525 z" />
    <path
       style="fill:#000000;stroke-width:0.264583"
       id="path81"
       d="m 639.74545,242.5762 c 1.98951,12.44275 2.11109,24.99869 1.80859,37.5555 -0.2739,16.11043 -0.0738,32.22501 -0.0574,48.33705 -0.0177,17.26517 -0.0233,34.53034 -0.0188,51.79554 0.15616,15.21614 -0.8346,30.40928 -2.20059,45.5549 -1.10387,12.12279 -2.29576,24.23729 -3.4915,36.35132 -1.08431,4.84812 -0.52067,9.83803 -1.02052,14.72488 -0.20333,1.988 -0.54811,3.95939 -0.77311,5.94506 -0.58915,5.18953 -0.91861,10.41217 -1.18248,15.62888 0.36994,3.99354 -0.84296,7.78965 -1.58125,11.67112 -0.0562,3.1492 -0.65789,6.28806 -0.69972,9.43528 0.23368,2.2988 -0.10967,1.28389 -1.05873,-0.12476 -0.32629,-0.48429 -0.67572,-0.95263 -1.01357,-1.42896 -3.68173,-3.28512 -7.27768,-6.63543 -10.69194,-10.20138 -2.7019,-2.48105 -4.91601,-5.62062 -7.95139,-7.71572 -0.12182,-0.077 -1.20669,-0.72486 -1.35525,-0.94131 -0.0933,-0.13597 -0.13391,-0.64384 -0.0785,-0.4885 0.47398,1.32834 0.77391,2.72118 1.33657,4.01447 0.23403,0.5379 0.69768,0.9435 1.03066,1.42647 0.45178,0.65527 0.88215,1.32506 1.32323,1.98761 2.7599,4.45291 6.02986,8.55511 9.04825,12.83022 1.43619,1.54469 1.17827,4.59563 3.22538,5.45648 4.15192,-0.74716 7.34229,-5.17917 9.82289,-8.22235 6.74899,-8.76186 11.88871,-18.65633 17.37863,-28.23202 0,0 -1.42457,-3.19699 -1.42457,-3.19699 v 0 c -5.48169,9.56255 -10.60921,19.44537 -17.32706,28.20953 -2.0669,2.56321 -5.75535,7.56605 -9.37046,8.06506 -1.78739,-1.1734 -1.51778,-4.02265 -3.06414,-5.49635 -3.02921,-4.26593 -6.27549,-8.3833 -9.03956,-12.83216 -0.44657,-0.6613 -0.87691,-1.33387 -1.3397,-1.98393 -0.34411,-0.48339 -0.75329,-1.91034 -1.07995,-1.41501 -1.35892,2.06057 0.50713,3.40865 1.78644,4.20819 2.95421,2.19216 5.21814,5.22201 7.88848,7.73129 3.41447,3.55285 7.0508,6.84734 10.64135,10.21305 0.58023,0.82021 3.32521,5.06076 2.90243,1.25531 -0.0525,-3.09298 0.69538,-6.29245 0.6404,-9.40575 0.73689,-3.89078 2.01009,-7.69279 1.62546,-11.69297 0.0856,-1.99512 0.37188,-3.97124 0.46662,-5.96273 0.1533,-3.22249 0.0629,-6.46668 0.69573,-9.65613 0.11604,-1.06092 0.23209,-2.12185 0.34811,-3.1828 0.14748,-0.92363 0.33951,-1.84124 0.44238,-2.7709 0.53994,-4.87929 -0.12314,-9.87685 1.00703,-14.71816 1.19862,-12.11424 2.38657,-24.22967 3.49412,-36.35262 1.37313,-15.15012 2.38217,-30.34765 2.22887,-45.56913 -0.005,-17.26523 0,-34.53045 0.019,-51.79568 -0.0153,-16.11072 -0.21447,-32.22382 0.0494,-48.333 0.31128,-12.56281 0.23476,-25.12844 -1.76485,-37.57804 0,0 -1.62507,-3.09986 -1.62507,-3.09986 z" />
    <path
       style="fill:#000000;stroke-width:0.264583"
       id="path83"
       d="m 615.48856,537.50021 c -3.9751,-1.29288 -8.05701,-3.07392 -12.34252,-2.86049 -0.6436,0.0321 -1.25841,0.2856 -1.89688,0.37278 -1.56692,0.21394 -2.56162,0.12472 -4.18367,0.0964 -5.25627,0.0733 -10.39704,-1.16544 -15.61944,-1.52321 -2.94709,-0.2019 -4.30972,-0.0954 -7.24789,-0.0156 -1.255,0.0512 -2.50899,0.1587 -3.76505,0.15354 -1.17795,-0.005 -8.3295,-0.40889 -9.19099,-0.4453 -4.99419,-0.21108 -9.97899,-0.20026 -14.97211,-0.44743 -1.6838,-0.0742 -3.36886,-0.12428 -5.05145,-0.2227 -6.64228,-0.38865 -4.38266,-0.45321 -11.21396,-0.6677 -5.53038,-0.17365 -11.06316,-0.0225 -16.59308,0.0734 -12.16192,-0.71633 -24.33095,-0.68077 -36.50634,-0.54596 -7.50813,0.22545 -15.02751,-0.15579 -22.53483,0.0145 -0.37978,0.009 -11.25563,0.54676 -11.6578,0.56655 -10.72467,0.33174 -21.45432,-0.0286 -32.18188,-0.0301 -8.99583,-0.12859 -18.01918,0.41815 -26.99681,-0.25559 -7.35359,-0.80711 -14.73756,-0.97887 -22.11213,-1.47288 -4.17653,-0.21045 -8.30802,0.52306 -12.33911,-0.81719 -1.99414,-0.51573 -4.78668,-3.37833 -1.86658,1.3603 0.15174,0.24625 0.0159,-0.5783 0.0236,-0.86746 0.0559,-4.92424 1.93087,-9.11807 4.95969,-12.92855 0.69974,-0.55576 1.36657,-1.15567 2.09923,-1.66724 0.77547,-0.54145 1.6228,-0.97269 2.41705,-1.48619 2.41855,-1.56367 4.42611,-3.33235 7.19746,-4.21249 1.46015,0.003 2.44784,-1.02346 3.66487,-1.54757 0.0985,-0.0424 0.36428,0.0644 0.31997,-0.0333 -0.45866,-1.01055 -1.09869,-1.9285 -1.64802,-2.89277 -0.56639,0.2258 -1.12109,0.48339 -1.69915,0.67733 -3.11764,1.04601 -4.92352,1.40827 -8.20346,2.38607 -5.39747,1.60904 -10.70218,3.50388 -16.01705,5.36157 -6.55397,2.24499 -12.19383,6.31137 -18.3392,9.38046 -3.44921,2.29886 -5.5531,2.2284 -0.98578,6.76481 0.38639,0.40595 0.79676,0.79039 1.15921,1.21785 4.2545,5.01782 -1.8139,-1.8927 2.58591,3.61236 2.02554,2.53436 4.48458,4.81928 6.62152,7.26577 0.84269,1.03773 1.6398,2.11421 2.52814,3.1132 1.90894,2.14672 4.36618,4.41346 6.43692,6.37545 3.32396,3.14944 6.55383,6.1636 10.30465,8.79287 0,0 -0.87477,-3.38892 -0.87477,-3.38892 v 0 c -7.18386,-5.12357 -13.50984,-11.57972 -19.18951,-18.30122 -2.14072,-2.43695 -4.56587,-4.73234 -6.57842,-7.27554 -2.98328,-3.76992 0.33393,-0.17042 -2.64454,-3.59892 -0.36941,-0.42521 -0.78361,-0.80931 -1.17541,-1.21399 -0.29424,-0.26606 -0.84,-1.19258 -0.8827,-0.79819 -0.57087,5.27246 1.99181,1.79708 3.92919,0.70956 6.13471,-3.05819 11.75893,-7.12161 18.29763,-9.36509 5.308,-1.85526 10.60577,-3.74726 15.99626,-5.35411 3.22575,-0.96157 5.15766,-1.36109 8.23831,-2.39866 0.61769,-0.20804 1.21118,-0.48196 1.81676,-0.72294 -0.26927,-1.21971 -0.39021,-2.4819 -0.80783,-3.65906 -0.0976,-0.27527 -3.76983,2.23377 -4.03722,1.59917 -2.81051,0.89842 -4.82166,2.65774 -7.27668,4.24204 -0.806,0.52014 -1.66608,0.95578 -2.45517,1.50122 -0.756,0.52258 -1.44833,1.1317 -2.1725,1.69754 -3.09911,3.81383 -5.07915,8.041 -5.1472,13.01525 -0.58946,4.11472 1.44391,4.99327 4.38251,6.00003 4.07339,1.26238 8.21904,0.58992 12.4207,0.79238 7.3737,0.4926 14.75708,0.66913 22.10983,1.4736 8.98729,0.65272 18.01696,0.12546 27.02131,0.24772 10.73301,0.003 21.46832,0.36402 32.19834,0.0246 0.60817,-0.0299 11.04376,-0.54761 11.64045,-0.56089 7.509,-0.167 15.02968,0.20773 22.53948,-0.0159 12.1762,-0.13436 24.34529,-0.15703 36.50837,0.54528 5.52289,-0.095 11.0481,-0.24297 16.57133,-0.0663 6.70817,0.21453 4.68024,0.28668 11.21532,0.66728 1.68206,0.0979 3.36653,0.14881 5.04981,0.22321 4.99248,0.24201 9.9777,0.23614 14.97105,0.44778 1.22849,0.0521 7.7365,0.43058 9.22187,0.43529 1.25447,0.004 2.50687,-0.10131 3.76031,-0.15198 2.94767,-0.0752 4.24915,-0.17835 7.20511,0.0293 5.23033,0.3675 10.38301,1.59255 15.64838,1.514 1.7625,0.023 2.56916,0.10686 4.2522,-0.1193 0.61097,-0.0821 1.20076,-0.32049 1.81668,-0.34608 4.25207,-0.17669 8.29723,1.61676 12.24383,2.89042 0,0 -0.96612,-3.36402 -0.96612,-3.36402 z" />
    <path
       style="fill:#000000;stroke-width:0.264583"
       id="path85"
       d="m 326.31896,509.09971 c -1.42214,-15.7783 -0.90927,-31.66967 -0.23855,-47.4753 0.18864,-2.71941 0.40444,-5.43708 0.56597,-8.15824 0.076,-1.27974 0.68447,-14.27837 0.78933,-15.72628 0.63368,-8.75017 1.63597,-17.48552 2.38204,-26.22767 0.29983,-2.80903 0.56555,-5.62192 0.89945,-8.42711 1.12451,-9.44647 1.04863,-6.86536 2.02068,-16.08958 0.78835,-7.48117 1.16768,-14.99208 1.60729,-22.49905 0.8927,-12.56591 1.02132,-25.17952 1.18843,-37.77475 -0.13174,-7.61669 0.22156,-15.2581 -0.38391,-22.86156 -0.24665,-3.09732 -0.67125,-6.17797 -0.97859,-9.26986 -0.13962,-1.32977 -0.26522,-2.6611 -0.41883,-3.98934 -0.42397,-3.66572 -0.62744,-4.11456 -0.78812,-7.80473 -0.16248,-3.73134 0.0422,-7.47199 0.17378,-11.20042 0.16825,-6.52574 0.0153,-13.05448 0.009,-19.58161 0.0172,-4.65723 0.0198,-9.31443 0.0159,-13.97168 -0.003,-3.66008 0,-7.32016 -2.1e-4,-10.98024 -1.8e-4,-2.85566 0,-5.71131 -2.4e-4,-8.56696 6e-5,-0.80499 0,-1.60998 0,-2.41497 -0.52964,-0.85989 -0.90484,-1.83675 -1.58895,-2.57968 -0.19286,-0.20943 0.039,0.57209 0,0.8541 -0.0402,0.29057 -0.14372,0.56929 -0.23545,0.84791 -0.85572,2.59974 -1.91508,5.14969 -2.85412,7.7193 -2.05205,6.83126 -5.95053,12.79646 -8.5563,19.39104 -0.35613,1.00149 -0.69715,2.00849 -1.06844,3.00446 -0.78709,2.11136 -0.94967,2.6314 -2.03433,4.46345 -0.61389,1.03692 -1.30826,1.71051 -1.64209,2.86569 0.11097,1.32646 0.12716,2.77659 1.78801,3.54694 0.56872,0.26379 0.32805,-1.21014 0.49043,-1.81565 0.30033,-1.11997 0.59086,-2.24257 0.89765,-3.36078 1.33974,-4.88307 1.14684,-4.12852 2.62723,-9.00309 2.10484,-7.20971 4.6827,-14.22868 6.04248,-21.62803 0.58118,-1.44906 0.61433,-2.7658 0.39087,-4.24187 2.53552,1.55454 4.59536,3.97187 6.65059,6.08103 1.72934,1.77473 5.22809,5.22343 6.93359,6.91259 3.55743,3.75887 8.00656,6.45144 11.94721,9.75377 2.18561,1.83159 6.93668,6.26787 9.15395,8.3184 0,0 -0.83048,-3.40004 -0.83048,-3.40004 v 0 c -2.43832,-2.25096 -6.73245,-6.2633 -9.18382,-8.31097 -3.93859,-3.29001 -8.35985,-6.00697 -11.90551,-9.76408 -2.43017,-2.40898 -4.53927,-4.48115 -6.92457,-6.91474 -1.50018,-1.53058 -4.48828,-5.01936 -6.62252,-5.88308 -0.26146,-0.10581 -0.55975,0.0702 -0.83963,0.10522 0.0861,1.46693 0.50044,2.72961 -0.30194,4.19699 -1.35858,7.45103 -3.86516,14.3607 -6.00636,21.6107 -1.52455,4.99798 -1.25849,4.00352 -2.63784,9.00813 -0.30858,1.11965 -0.62402,2.23771 -0.90543,3.3645 -0.14555,0.58287 -0.48152,1.17158 -0.3751,1.76284 0.21815,1.21197 0.85405,2.31043 1.31387,3.4528 0.0827,0.20555 -0.12097,-0.42631 -0.18145,-0.63946 0.17346,-1.19847 0.92212,-1.78935 1.55167,-2.82363 1.1267,-1.85105 1.28559,-2.34173 2.08545,-4.48684 0.37041,-0.99336 0.70516,-1.99966 1.05775,-2.99948 1.05992,-2.71775 1.408,-3.80705 2.75039,-6.43411 2.16266,-4.2323 4.54293,-8.32279 5.81362,-12.96052 2.99238,-8.21804 -0.19982,0.47889 2.28766,-6.12684 0.25771,-0.68431 1.22108,-2.47034 0.91191,-3.34813 -0.44156,-1.25371 -1.05931,-2.43824 -1.58895,-3.65736 0,0.80499 3e-5,1.60997 0,2.41496 -1.3e-4,2.85565 0,5.71131 2.4e-4,8.56696 -3e-5,3.66013 -0.003,7.32026 -8e-5,10.98039 0.004,4.65723 0.004,9.31444 -0.0159,13.97165 0.003,6.52529 0.15463,13.05183 0.003,19.57585 -0.1343,3.73321 -0.35277,7.4812 -0.20767,11.21777 0.14904,3.83786 0.3334,4.00225 0.77827,7.80987 0.15512,1.32778 0.28051,2.65888 0.42079,3.9883 0.30393,3.09031 0.73639,6.16797 0.99264,9.26259 0.62918,7.59891 0.26228,15.23767 0.40455,22.85098 -0.15849,12.59276 -0.29176,25.20412 -1.17422,37.76757 -0.43746,7.50298 -0.80653,15.01196 -1.58848,22.48966 -0.95925,9.1729 -0.89847,6.6978 -2.02436,16.09143 -0.33633,2.80628 -0.60417,5.62034 -0.90627,8.4305 -0.74338,8.74459 -1.75157,17.48137 -2.39258,26.23294 -0.14904,2.03451 -0.67087,13.82868 -0.78356,15.72339 -0.16193,2.72272 -0.38293,5.44163 -0.57438,8.16245 -0.68602,15.81303 -1.1938,31.71224 0.18907,47.50072 0,0 1.62507,3.09989 1.62507,3.09989 z" />
    <path
       style="fill:#000000;stroke-width:0.264583"
       id="path87"
       d="m 356.32236,223.65823 c 9.67182,1.45894 19.3276,3.2496 29.10935,3.73203 8.58703,0.47611 16.87037,-1.0691 25.0471,-3.53267 0,0 -1.17845,-3.29564 -1.17845,-3.29564 v 0 c -8.13999,2.45008 -16.3862,3.9782 -24.93346,3.49422 -9.76813,-0.50084 -19.41163,-2.28281 -29.07067,-3.74414 0,0 1.02613,3.3462 1.02613,3.3462 z" />
    <path
       style="fill:#000000;stroke-width:0.264583"
       id="path89"
       d="m 301.18558,106.60049 c 13.74277,-0.54559 27.54738,0.15617 41.25182,1.26553 16.1285,1.53893 32.28628,2.47752 48.3652,4.49972 3.18627,0.3306 6.36727,0.71637 9.55878,0.99182 3.40101,0.29352 6.81064,0.47657 10.21599,0.71485 3.43014,0.2652 6.86318,0.49499 10.29039,0.79561 10.43664,0.91549 20.82818,2.21891 31.26189,3.1733 22.15552,1.30833 44.25971,3.30045 66.41857,4.54658 11.63854,0.88868 23.30603,0.6505 34.96259,0.6764 12.20973,0.0271 24.42136,0.27362 36.63093,0.36449 22.98039,0.16924 45.95085,-0.10203 68.92301,-0.64786 20.76849,-0.0738 41.51362,0.0119 62.26413,-0.96107 15.24169,-1.21176 30.55331,-1.30431 45.83723,-1.4165 7.15558,-0.55689 14.30441,-0.6537 21.47213,-0.47749 2.1064,0.0987 4.2141,-0.0297 6.32023,-0.015 0.0867,10e-4 0.94732,0.0114 0.95142,0.008 2.37903,-1.87929 -4.95165,-10.33452 -6.03935,-11.71044 -4.90831,-5.29724 -11.02339,-9.427522 -17.5155,-12.563279 -3.72853,-1.800931 -6.19204,-2.462458 -10.08343,-3.728908 -3.55618,-1.067805 -7.02979,-2.403977 -10.6159,-3.374593 -1.39338,-0.377132 -2.61536,-0.554781 -3.87186,-1.252498 -0.14692,-0.180663 -0.51308,-0.763341 -0.44077,-0.541988 0.29768,0.911203 0.6428,1.818581 1.12792,2.645362 0.0635,0.108286 0.14618,-0.244007 0.2704,-0.262176 0.503,-0.07356 1.0169,-0.01519 1.52503,-5.29e-4 3.65247,0.106318 3.55492,0.177832 7.70377,0.576863 1.96379,0.220358 3.9342,0.388266 5.8914,0.661075 1.15004,0.160306 10.63916,1.782225 11.95305,1.992273 4.51136,0.721214 8.84487,1.450797 13.25714,2.641573 2.69203,0.779365 5.08201,2.24358 7.61015,3.3968 1.23177,0.561888 2.52103,0.864119 3.74743,1.425925 1.64843,0.97578 -0.30221,-1.979338 -1.08289,-2.335819 -0.50813,-0.232023 -0.62672,0.935437 -1.03031,1.321613 -0.69228,0.662402 -1.44756,1.262086 -2.23719,1.804826 -3.5905,2.468 -4.44264,2.62504 -8.60647,4.54475 -11.20116,4.36287 -21.88162,9.85847 -32.63283,15.19987 -4.9897,2.66866 -2.87425,1.3333 -6.462,3.81663 0,0 1.28156,3.25693 1.28156,3.25693 v 0 c 3.54394,-2.47117 1.44619,-1.13929 6.4143,-3.79825 10.74811,-5.33994 21.42458,-10.83607 32.6232,-15.19627 0.85889,-0.39544 18.80309,-8.09844 10.79053,-11.985101 -1.23346,-0.52636 -2.51114,-0.867315 -3.73338,-1.429827 -2.54037,-1.169173 -4.96538,-2.602267 -7.67612,-3.377959 -4.42182,-1.177663 -8.77215,-1.908919 -13.28912,-2.63193 -1.70804,-0.273396 -10.40712,-1.769872 -11.97141,-1.986589 -1.95916,-0.27142 -3.93126,-0.439568 -5.89688,-0.659352 -1.53577,-0.145272 -3.06874,-0.323721 -4.60727,-0.435819 -3.0457,-0.221909 -9.63155,-0.957485 -3.60923,4.733917 1.28725,0.634523 2.54865,0.853514 3.93708,1.23404 3.5801,0.981194 7.05427,2.305894 10.60648,3.377345 3.92941,1.291532 6.25388,1.912972 10.01848,3.747088 6.45842,3.146567 12.53365,7.274027 17.3809,12.596717 0.8981,1.15166 1.84266,2.26855 2.6943,3.45499 0.59738,0.83223 0.84519,1.95761 1.64783,2.59421 0.41616,0.33008 -0.26297,-1.03127 -0.33991,-1.55684 -0.0246,-0.16797 0.28554,0.34156 0.18161,0.4758 0,0.001 -0.87022,-0.007 -0.95285,-0.008 -2.10407,0.003 -4.20867,0.0979 -6.3129,0.0126 -7.17129,-0.17704 -14.32343,-0.0621 -21.48282,0.48095 -15.28834,0.11492 -30.60401,0.20914 -45.85031,1.42079 -20.74799,0.96867 -41.49068,0.87969 -62.25645,0.95856 -22.96869,0.54608 -45.93577,0.81304 -68.91261,0.64447 -12.2111,-0.0914 -24.42411,-0.33551 -36.63535,-0.36307 -11.64978,-0.0263 -23.31029,0.20389 -34.94195,-0.68305 -22.15473,-1.24934 -44.25554,-3.23676 -66.40685,-4.55028 -10.43469,-0.95759 -20.82847,-2.25806 -31.26663,-3.1718 -3.42802,-0.30008 -6.86184,-0.52991 -10.29277,-0.79487 -3.40159,-0.23946 -6.80752,-0.42392 -10.20479,-0.71838 -3.18913,-0.27642 -6.36776,-0.6627 -9.55165,-0.99405 -16.08412,-2.01585 -32.24704,-2.95593 -48.38004,-4.49506 -13.72034,-1.10374 -27.54011,-1.80636 -41.29831,-1.25049 0,0 1.10123,3.32225 1.10123,3.32225 z" />
    <path
       style="fill:#000000;stroke-width:0.264583"
       id="path91"
       d="m 817.5895,111.71892 c -0.24783,14.53584 -2.194,28.95803 -3.48948,43.41851 -1.38012,14.90874 -2.40699,29.84216 -3.36225,44.78311 -0.73122,19.63312 -3.32242,39.16457 -3.86111,58.80561 -0.10671,3.89083 -0.0521,7.78443 -0.0782,11.67664 0.63492,21.63172 0.38751,43.27059 1.35811,64.89073 0.98705,22.2913 0.30596,44.60647 0.22238,66.90838 -0.0879,13.31304 0.33361,26.62926 -0.20421,39.93703 -0.28337,7.01141 -0.71773,14.01612 -1.01078,21.02715 -1.39968,18.72422 0.20386,37.44691 0.32911,56.17983 -0.54001,14.14497 -2.25573,28.21654 -3.6898,42.29232 -0.9466,7.47006 -1.36914,15.03585 -2.62956,22.46199 -1.0785,3.94142 -2.12881,7.86802 -3.00675,11.85516 -0.34941,1.37308 0.55308,2.52817 -1.30353,2.45649 -0.42193,-0.19076 -0.94284,-0.0406 -1.36731,-0.22246 -2.5351,-1.08598 -5.67349,-5.11712 -7.51758,-7.07739 -2.54545,-3.02749 -5.23631,-6.00808 -7.28011,-9.41758 -1.53517,-2.56098 -2.48764,-5.37088 -3.49822,-8.15914 -0.67903,-1.62332 -1.69751,-3.07893 -2.79744,-4.44304 -0.2068,-0.25646 -0.47503,-0.46146 -0.66773,-0.72866 -0.0906,-0.1256 -0.0303,-0.50015 -0.1696,-0.43247 -0.23357,0.11346 -0.24074,0.46019 -0.3611,0.69028 2.53616,8.49939 7.71988,15.67002 12.22579,23.17948 2.83861,4.73517 5.32389,9.7437 9.01946,13.89002 2.75801,2.64337 4.13977,2.09092 7.33197,0.16353 2.4071,-2.12894 3.35738,-2.7015 5.19274,-5.59768 4.25593,-6.71581 7.25779,-16.18432 10.02448,-23.66859 3.1505,-7.95316 5.73905,-16.10323 8.65627,-24.13974 0,0 -1.47926,-3.17203 -1.47926,-3.17203 v 0 c -2.92679,8.03272 -5.49764,16.18834 -8.65468,24.13899 -2.75288,7.46032 -5.73651,16.90322 -9.92492,23.62412 -1.78929,2.87115 -2.71811,3.43738 -5.07661,5.55037 -3.12235,1.91966 -4.25236,2.3028 -6.86461,-0.30757 -3.6171,-4.20024 -6.12551,-9.17157 -8.95851,-13.90367 -2.24726,-3.73573 -4.68902,-7.37624 -6.87411,-11.14576 -0.72781,-1.25558 -1.35935,-2.56455 -2.03901,-3.84683 -0.4349,-1.01957 -0.7706,-2.08743 -1.30466,-3.05874 -0.22963,-0.41762 0.25374,0.91874 0.3806,1.37813 -0.19502,-0.11562 -0.36287,-0.39177 -0.5851,-0.34684 -0.19232,0.0389 0.25861,0.33401 0.89355,1.14903 1.07186,1.37586 2.06029,2.83088 2.70055,4.46331 1.02677,2.79638 2.02237,5.58131 3.58601,8.14091 2.07592,3.39821 4.76162,6.38731 7.33123,9.40586 2.51502,2.6634 5.26542,6.756 9.15763,7.22347 2.31714,-0.0516 1.50436,-0.93885 1.7427,-2.63255 0.40852,-1.74355 0.21389,-0.78161 0.54602,-2.89327 0.66807,-3.03012 1.85185,-5.92794 2.47706,-8.9698 0.50323,-2.8457 0.6963,-5.6547 1.03391,-8.52067 0.5475,-4.64791 1.31463,-9.27476 1.61764,-13.95217 1.4342,-14.08255 3.14642,-28.15971 3.7235,-42.30928 -0.11041,-18.73118 -1.73744,-37.44994 -0.34403,-56.17226 0.2904,-7.01198 0.72617,-14.01746 1.01539,-21.02948 0.54898,-13.30888 0.12813,-26.62623 0.21145,-39.9407 0.0792,-22.30454 0.76835,-44.62198 -0.20719,-66.91617 -0.98534,-21.61746 -0.72531,-43.25326 -1.37409,-64.88255 0.022,-3.89007 -0.0374,-7.78142 0.0655,-11.6702 0.52006,-19.64097 3.1292,-39.17059 3.8558,-58.80294 0.95385,-14.93956 1.97397,-29.87192 3.35438,-44.77918 1.28527,-14.46689 3.24686,-28.892 3.5173,-43.43252 0,0 -1.58899,-3.11852 -1.58899,-3.11852 z" />
    <path
       style="fill:#000000;stroke-width:0.264583"
       id="path93"
       d="m 786.74194,624.34763 c -5.05915,-1.6995 -10.27697,-3.21419 -15.61483,-3.7275 -3.33925,-0.32113 -6.86578,-0.0624 -10.21596,-0.0272 -10.59034,-0.9565 -21.22442,-0.40108 -31.82771,-0.83391 -9.58728,-0.55992 -19.20219,-0.54946 -28.78508,0.0375 -9.93312,1.27561 -19.88306,1.70992 -29.8831,1.50923 -9.79328,-0.2613 -19.58993,-0.11194 -29.38488,-0.0892 -10.59133,-0.008 -21.18263,-0.018 -31.77395,-0.0148 -7.71602,0.13661 -15.44267,-0.18073 -23.1575,0.003 -1.95593,0.0463 -8.30222,0.44445 -10.51366,0.57777 -11.00739,0.31311 -22.02096,-0.0397 -33.0317,-0.039 -13.87493,-0.27861 -27.72457,0.49392 -41.59025,0.75581 -14.46432,-0.30586 -28.87173,1.0737 -43.29766,1.78141 -2.71338,0.0292 -5.4266,0.0897 -8.14014,0.0875 -8.34755,-0.007 -7.27229,-0.27924 -15.7094,0.0449 -8.14001,0.31274 -16.29016,0.87966 -24.42316,1.34792 -16.92153,0.48109 -33.85775,0.40955 -50.77748,0.99531 -15.49744,0.7897 -30.97242,2.08203 -46.49438,2.17686 -12.1447,-0.31477 -24.26362,0.87585 -36.399,0.0975 -8.90664,-0.83908 -17.90886,-0.73232 -26.69316,-2.54828 -7.28463,-0.84953 -14.63537,-1.26855 -21.96941,-1.39372 -0.81205,0.0143 -1.62467,0.0769 -2.43614,0.0431 -0.56122,-0.0233 -3.19781,-0.40939 -3.77338,-0.46307 -2.22804,-0.20778 -4.45647,-0.12973 -6.68897,-0.0773 -2.14135,-0.0866 -4.32463,0.28104 -6.46492,0.0932 -1.20018,-0.10531 -2.36158,-0.57619 -3.55202,-0.76417 -0.73518,-0.32621 -1.58722,-0.29803 -2.19642,-0.87477 -0.17018,-0.1611 -0.50539,-0.77385 -0.43899,-0.54911 1.1407,3.86082 1.05471,3.27861 1.0312,1.95564 0.36546,-6.01197 2.37612,-10.6407 5.1762,-15.93477 2.73681,-4.75287 5.91597,-9.07002 10.57585,-12.03156 1.89893,-1.13977 3.33488,-2.13299 -0.38195,-4.52842 -0.50366,-0.32462 -1.06369,0.5547 -1.57165,0.87254 -0.85846,0.53716 -1.68286,1.12691 -2.52428,1.69037 -6.22375,4.57555 -13.09422,8.17287 -19.42951,12.56311 -0.6424,0.51024 -1.29039,1.01356 -1.92721,1.53077 -2.25826,1.83412 -1.59171,1.47137 -4.05981,3.03644 -1.67999,1.06531 -3.19919,1.93148 -4.65035,3.29559 -1.25477,1.18031 -2.55809,1.56877 -2.10334,3.45223 0.69797,5.72479 3.36927,11.07126 5.82136,16.24857 2.4468,4.71681 6.69828,7.5968 10.82918,10.69716 4.31643,3.23958 6.19699,4.73448 10.53345,8.10818 7.37422,5.51823 3.79787,3.05893 10.66503,7.47019 0,0 -0.8893,-3.38516 -0.8893,-3.38516 v 0 c -6.8381,-4.42314 -3.27224,-1.96037 -10.63508,-7.47789 -5.09819,-3.96282 -5.53218,-4.33221 -10.54111,-8.10625 -4.10787,-3.09512 -8.28554,-6.00866 -10.66133,-10.73568 -1.81079,-3.86321 -3.19449,-5.92926 -3.44968,-9.74458 -0.64365,-2.05748 0.26148,-1.85285 1.76234,-3.28993 1.42475,-1.37557 2.92135,-2.21705 4.59494,-3.27335 2.50771,-1.58276 1.81425,-1.19467 4.08654,-3.04705 0.63019,-0.51371 1.27056,-1.01486 1.90584,-1.52228 2.85527,-1.98651 5.86524,-3.62974 8.80536,-5.48288 3.59734,-2.26737 7.0301,-4.79676 10.61897,-7.07821 0.83308,-0.5602 1.6527,-1.14102 2.49925,-1.68066 0.46135,-0.29411 1.29205,-0.28784 1.42229,-0.81923 1.40106,-5.71622 -0.60443,-2.81495 -1.98736,-2.05602 -4.72309,2.97095 -7.96631,7.3017 -10.74295,12.10146 -2.90011,5.40789 -4.86156,9.86692 -5.30943,15.99805 -0.50176,3.42408 1.39046,5.33403 4.1985,5.94358 1.20294,0.21058 2.38688,0.64902 3.60746,0.74665 2.1452,0.17158 4.32617,-0.17073 6.4721,-0.0956 2.21788,-0.0495 4.42616,-0.11687 6.63899,0.0933 0.93638,0.0889 2.89443,0.41153 3.8214,0.44775 0.8077,0.0315 1.61642,-0.0262 2.42462,-0.0394 7.31336,0.1329 14.64635,0.53816 21.90777,1.413 8.80321,1.78888 17.81834,1.69855 26.73962,2.53387 12.14347,0.7585 24.26988,-0.41506 36.42217,-0.10499 15.52493,-0.10221 31.003,-1.3929 46.50372,-2.17993 16.92248,-0.58076 33.86113,-0.51112 50.78513,-0.99782 8.12858,-0.46736 16.27433,-1.03439 24.41006,-1.34361 8.40793,-0.31956 7.38074,-0.0474 15.70704,-0.0441 2.7178,0 5.43523,-0.0611 8.15287,-0.0916 14.42239,-0.71327 28.82678,-2.07936 43.28761,-1.77811 13.86342,-0.26556 27.71121,-1.03058 41.58392,-0.75374 11.01733,0 22.03784,0.35589 33.05168,0.0324 11.21161,-0.67376 22.421,-0.64981 33.65126,-0.57324 10.59157,-0.003 21.1831,0.007 31.77464,0.0145 9.79249,-0.0233 19.5867,-0.17074 29.3775,0.0916 10.00901,0.19659 19.96747,-0.25114 29.90993,-1.51802 9.57231,-0.57877 19.17523,-0.58695 28.75148,-0.0265 10.60931,0.42072 21.24784,-0.10996 31.84456,0.82847 3.33322,-0.034 6.83826,-0.28641 10.16045,0.0447 5.31484,0.52977 10.50801,2.04187 15.54329,3.74869 0,0 -0.95798,-3.36634 -0.95798,-3.36634 z" />
    <path
       style="fill:#000000;stroke-width:0.264583"
       id="path95"
       d="m 184.77784,615.22887 c 0.66476,-11.40455 1.10977,-22.83018 1.99827,-34.22108 0.74842,-9.59495 1.78411,-19.15432 2.46518,-28.75708 1.83559,-22.8336 4.47374,-45.59321 6.73483,-68.38746 2.65984,-22.8936 3.72818,-45.90783 5.09063,-68.90203 1.95809,-23.7255 3.88666,-47.45008 5.63095,-71.19307 2.04266,-24.36572 4.59591,-48.68958 7.54999,-72.96116 1.31707,-12.55955 3.24634,-25.05442 4.24859,-37.64653 1.70513,-21.42296 -0.63105,4.42052 1.26146,-15.91928 1.48408,-14.53524 2.80422,-29.08463 4.15925,-43.63213 1.08594,-11.88367 1.21536,-23.81927 2.20303,-35.71152 1.13847,-5.10967 0.91339,-10.24772 0.65331,-15.41867 -0.10645,-1.56614 0.0539,-3.13077 0.0495,-4.69593 -0.76868,-0.86705 -1.29138,-2.04162 -2.30606,-2.60115 -0.39729,-0.21907 -2.39387,2.8194 -2.49176,2.94489 -1.75819,2.25395 -2.74259,3.17245 -4.82997,5.38615 -6.4673,7.41183 -12.3208,15.33479 -17.67358,23.58105 -0.35742,0.46505 -0.68028,0.95883 -1.07227,1.39515 -0.36162,0.40252 -5.11874,3.85802 0.94021,3.56791 1.20723,-0.0578 1.56972,-1.84006 2.29833,-2.80436 1.25466,-1.66051 2.43253,-3.37767 3.64879,-5.0665 4.88945,-6.95639 10.48943,-13.40418 15.14512,-20.52656 3.47037,-5.63457 1.72929,-2.92255 5.20792,-8.14587 1.42381,-2.19738 3.08497,-4.15431 5.15888,-5.74931 0.57079,-0.43898 1.19536,-0.74415 1.732,-1.21966 1.77137,-0.27972 7.43366,8.73293 7.99908,9.56871 5.40065,8.38428 2.69351,4.21502 8.12085,12.50813 0,0 -0.74676,-3.4194 -0.74676,-3.4194 v 0 c -5.42504,-8.29483 -2.71589,-4.12601 -8.12696,-12.5068 -0.80815,-1.18236 -6.14658,-10.10342 -8.57479,-9.38868 -0.50306,0.50086 -1.14397,0.78098 -1.7115,1.21133 -2.11119,1.60088 -3.81216,3.56145 -5.25366,5.78913 -3.48996,5.22296 -1.75025,2.51179 -5.2031,8.14377 -4.64217,7.1293 -10.2492,13.56998 -15.13872,20.52377 -1.20984,1.68607 -2.38465,3.39784 -3.62952,5.05822 -0.71589,0.95482 -1.96842,1.62483 -2.25051,2.7844 -1.74699,7.18111 1.83623,2.89557 2.86359,1.48137 5.33826,-8.23431 11.16774,-16.14997 17.61517,-23.55603 2.07205,-2.18889 3.94224,-4.26378 5.71711,-6.67091 0.21226,-0.28787 0.45275,-0.55457 0.69769,-0.8152 0.26651,-0.2836 0.81218,-0.42739 0.83514,-0.81589 0.075,-1.26976 -0.37594,-2.51602 -0.56391,-3.77403 0.0384,1.56719 -0.16236,3.13289 -0.0606,4.70164 0.24867,5.16299 0.58192,10.29706 -0.61174,15.39758 -1.01419,11.89016 -1.11905,23.82629 -2.20031,35.71016 -1.34899,14.54797 -2.67831,29.0965 -4.15905,43.63203 -1.78872,19.00602 0.30842,-4.05961 -1.26203,15.91956 -0.98975,12.59151 -2.92496,25.08378 -4.23928,37.6419 -2.95888,24.27409 -5.51388,48.60054 -7.56497,72.96862 -1.74695,23.74365 -3.6603,47.47024 -5.6354,71.1953 -1.36111,22.99194 -2.42,46.00442 -5.07821,68.89583 -2.25956,22.79621 -4.89605,45.5576 -6.74371,68.39188 -0.67488,9.60456 -1.71398,19.1625 -2.46734,28.75817 -0.89437,11.39169 -1.33246,22.81931 -2.00524,34.22457 0,0 1.57608,3.12507 1.57608,3.12507 z" />
    <path
       style="fill:#0000ff;stroke-width:0.264583"
       id="path97"
       d="m 240.93426,104.82348 c 0.71428,6.52993 0.29503,3.54816 1.2733,9.49661 0.18101,1.1006 0.87061,2.99897 0.27649,4.19304 0.42289,3.70141 2.0956,7.16888 3.93054,10.37809 0.79625,1.38262 1.38367,2.85936 2.26817,4.18771 0,0 -0.74321,-3.42018 -0.74321,-3.42018 v 0 c -0.83104,-1.35484 -1.45097,-2.81694 -2.25027,-4.19155 -0.21489,-0.38066 -0.43505,-0.75839 -0.64466,-1.14198 -0.22473,-0.41126 -0.59984,-1.70735 -0.65825,-1.24235 -0.0825,0.65646 0.46352,1.2475 0.57569,1.89954 0.35338,2.05421 -1.46526,-5.38717 -1.03463,-3.28076 0.77365,-1.55565 0.24751,-2.33032 -0.0799,-4.28956 -1.02103,-6.11044 -0.54954,-2.75342 -1.30232,-9.4814 0,0 -1.61098,-3.10721 -1.61098,-3.10721 z" />
    <path
       style="fill:#0000ff;stroke-width:0.264583"
       id="path162"
       d="m 419.73928,292.74762 c -7.96975,-7.83778 -15.55956,-16.06331 -23.63502,-23.79128 -4.75715,-4.2128 -10.46959,-7.11944 -15.30664,-11.23018 -2.44137,-2.07477 -3.29817,-3.13929 -5.39983,-5.42912 -1.70852,-1.56346 -3.20284,-3.41829 -5.01796,-4.87058 -0.64283,-0.51434 -1.40631,-0.78901 -2.05269,-1.28957 0.38518,0.93523 0.8509,1.84121 1.15557,2.80568 0.0269,0.0853 -0.14764,0.10086 -0.22146,0.15129 0.0896,0.37872 0.14478,0.76728 0.2689,1.13614 1.10043,3.27086 2.50179,6.4109 3.97822,9.52386 1.85947,3.85699 3.70242,7.82678 5.02719,11.90985 0.0359,0.11068 -0.18275,0.19013 -0.16865,0.30562 0.189,1.54842 0.5946,3.06292 0.85654,4.60071 0.2186,0.723 0.45913,1.42811 0.53988,2.17903 0.0109,0.10107 0.004,-0.20775 -0.0306,-0.30343 -0.15804,-0.43989 -0.46733,-0.83166 -0.5429,-1.29293 -0.0414,-0.2525 0.28983,0.42174 0.43474,0.63261 -1.87955,-7.79385 -4.63989,-15.36165 -6.17165,-23.23483 -0.0631,-1.20425 -0.27217,-6.42682 0.52727,-7.50425 5.98794,-3.44935 12.94519,-4.01829 19.67566,-4.97418 10.52351,-1.3745 5.44427,-0.62009 15.24259,-2.22984 0,0 -1.13557,-3.31065 -1.13557,-3.31065 v 0 c -9.78884,1.60553 -4.71199,0.85188 -15.2355,2.22741 -6.80283,0.96875 -13.81733,1.57222 -19.87023,5.04696 -1.11006,0.83733 -0.86953,6.43304 -0.85178,7.65659 1.48064,7.88803 4.27943,15.44839 6.14286,23.25037 0.65101,1.95559 1.21719,3.94147 1.95305,5.86674 0.10186,0.26657 0.65334,1.76869 1.45801,1.28439 0.40251,-0.24225 -0.54803,-2.05348 -0.49509,-2.20239 -0.15179,-0.9131 -0.65852,-4.03465 -0.82296,-4.61878 -1.81223,-6.43733 -4.29003,-12.7195 -7.23183,-18.7185 -1.50278,-3.21985 -2.54849,-6.35044 -3.95946,-9.52762 -0.16457,-0.37057 -0.31456,-0.77802 -0.61658,-1.04853 -0.10872,-0.0974 -0.45749,-0.0225 -0.42138,0.11887 0.32282,1.26391 0.9243,2.43976 1.38644,3.65963 2.66121,1.79868 4.82931,3.74643 7.00297,6.17684 2.15508,2.31797 2.95632,3.31071 5.45695,5.41512 4.84854,4.08035 10.54381,7.0019 15.27008,11.23926 8.05363,7.74382 15.66921,15.93648 23.60907,23.79747 0,0 -0.7982,-3.40778 -0.7982,-3.40778 z" />
    <path
       style="fill:#0000ff;stroke-width:0.264583"
       id="path164"
       d="m 345.93159,213.09916 c -5.26177,-3.42077 -10.21278,-7.39483 -14.25644,-12.23064 -2.17937,-2.60635 -5.48457,-7.85045 -7.47299,-10.64583 -1.16917,-1.64362 -2.41165,-3.23382 -3.61749,-4.85073 -7.69946,-9.49723 -14.60212,-19.59943 -22.53644,-28.90581 -6.72833,-6.1681 -10.88247,-14.31835 -15.59748,-21.9829 -1.02055,-1.27361 -1.61896,-2.97048 -2.87314,-4.07013 -0.12983,-0.11384 -0.33078,-0.13308 -0.44826,-0.25963 -0.0543,-0.0585 -0.0471,-0.31225 -0.0148,-0.2392 0.42632,0.96345 0.80158,1.94869 1.20234,2.92304 -0.49159,0.87856 -0.87373,-2.32644 -1.30995,-1.74459 -0.61859,0.82509 0.18661,2.05424 0.30726,3.07838 0.51184,4.34444 1.20772,8.66381 1.9045,12.9813 0.81346,5.29108 2.47925,10.60423 1.89955,16.00324 -0.21585,2.00858 -0.10057,-0.089 -0.0631,-0.095 0.31536,-0.0507 0.61928,1.05545 0.61341,0.73611 -0.0312,-1.69394 -0.46546,-3.35635 -0.69263,-5.03528 -1.46153,-10.80094 -0.44762,-3.80723 -2.16281,-15.1101 -1.24645,-8.50621 -3.77478,-16.71252 -5.50529,-25.11504 -0.31414,-3.35074 -0.41127,-2.59542 2.13178,-1.68133 4.58642,2.07357 9.40474,3.46703 14.23532,4.82495 0,0 -0.98959,-3.35719 -0.98959,-3.35719 v 0 c -4.82148,-1.36693 -9.62528,-2.77818 -14.21223,-4.83167 -2.84819,-1.01617 -3.10761,-1.16092 -2.81765,1.95985 1.7531,8.39619 4.21523,16.61339 5.5218,25.10625 1.5005,9.83856 0.91048,5.64543 2.1681,15.10731 0.64622,4.86177 0.50689,6.00993 2.4158,10.82419 0.74629,1.88207 0.88533,-0.0762 0.90821,-0.19556 0.73007,-5.40223 -0.99637,-10.75138 -1.81189,-16.04812 -0.70107,-4.31429 -1.40012,-8.63101 -1.92299,-12.97157 -0.16394,-1.36096 -0.24056,-7.99887 -2.12643,-7.59423 0.33628,1.22128 0.63156,2.45462 1.00885,3.66386 0.0603,0.19332 3.90258,4.2007 3.3709,4.56165 4.71522,7.67625 8.93125,15.78275 15.65,21.97117 7.91027,9.32079 14.82624,19.40958 22.51421,28.91089 1.20103,1.61797 2.43555,3.21163 3.6031,4.85392 2.1459,3.01838 5.15176,7.82012 7.53097,10.63255 4.08114,4.82422 9.05727,8.78726 14.33592,12.21072 0,0 -0.89046,-3.38483 -0.89046,-3.38483 z" />
    <path
       style="fill:#0000ff;stroke-width:0.264583"
       id="path166"
       d="m 248.6623,131.56202 c -0.0528,10.53929 0.0473,21.15512 1.83995,31.57245 0.78325,4.55146 1.4695,6.77643 2.62379,11.11558 0.42938,1.64206 0.90774,3.27208 1.28814,4.92617 0.62517,2.71851 1.90485,9.85331 2.57868,12.38261 1.84572,6.92816 5.03967,13.40185 8.08405,19.85706 0.93194,1.99476 1.87185,3.98583 2.7958,5.98431 3.136,6.78304 2.65713,6.14734 6.21395,12.74101 3.30954,6.13531 6.9818,12.04355 10.65551,17.96345 6.40191,10.46271 13.04108,20.78222 19.89828,30.95156 2.83456,4.41799 5.87746,8.74017 9.43531,12.61423 2.97259,3.23678 6.16968,6.23207 9.10418,9.51296 3.56682,4.29069 6.71134,8.95426 11.29461,12.26161 2.20641,1.59215 3.96904,2.43946 6.34741,3.71594 6.02644,2.49732 12.33053,4.19862 18.43217,6.51314 5.24894,2.02094 10.70065,2.2094 16.22713,1.8397 2.26698,-0.24855 4.53959,-0.0925 6.80924,-0.0429 3.52097,-0.12531 -0.94446,-4.5384 -2.28259,-5.68479 -0.2826,0.78137 -1.80149,-2.52068 -1.45407,-1.77689 0.42172,0.90284 0.5596,1.96826 1.18367,2.74511 0.16626,0.20696 0.38899,-0.36904 0.62,-0.49988 0.39838,-0.22566 0.83574,-0.37428 1.25359,-0.56142 2.62411,-0.83725 5.64835,-2.696 8.4868,-1.84959 0.13211,-0.4059 0.67948,0.74715 0.4975,0.54178 -0.60603,-0.68384 -0.73509,-2.32738 -1.63949,-2.19694 -1.06058,0.15298 -1.158,1.80372 -1.76353,2.68777 -0.9557,1.39528 -1.9464,2.76625 -2.91962,4.14936 -3.94846,5.62869 -2.12976,3.0113 -5.4656,7.84558 0,0 1.39787,3.20871 1.39787,3.20871 v 0 c 3.33266,-4.83338 1.51516,-2.21636 5.46245,-7.84418 0.9764,-1.38452 1.96755,-2.75874 2.92918,-4.15354 1.29058,-1.8719 4.26529,-6.00175 0.50292,-7.59314 -2.99228,-0.64747 -5.96194,0.9666 -8.70871,1.92381 -0.713,0.31684 -2.21594,0.91495 -2.20464,1.20422 0.10853,2.77352 0.88059,4.04768 2.66401,5.56636 0.27604,0.23913 0.55613,0.47363 0.82809,0.71736 0.26363,0.23622 0.76052,1.0758 0.77843,0.72229 0.0468,-0.92324 -0.51699,-1.77877 -0.67873,-2.68893 -0.0177,-0.0999 0.31141,0.12607 0.23524,0.19306 -0.007,0.006 -0.7135,0.0116 -0.79555,0.0124 -2.28005,-0.0708 -4.56298,-0.17719 -6.84003,0.053 -5.48281,0.35996 -10.88581,0.13991 -16.08405,-1.88386 -6.09291,-2.29833 -12.39234,-3.98518 -18.38719,-6.52566 -2.39332,-1.29984 -4.06805,-2.10643 -6.28118,-3.73319 -4.54028,-3.33732 -7.65112,-8.02391 -11.24398,-12.27389 -2.94039,-3.26628 -6.14037,-6.26914 -9.09428,-9.51524 -3.53655,-3.88641 -6.55741,-8.21486 -9.39787,-12.62268 -6.84366,-10.17686 -13.49012,-20.48905 -19.88542,-30.95436 -3.66795,-5.92015 -7.33216,-11.82991 -10.62879,-17.96912 -3.47469,-6.47084 -3.12301,-6.09253 -6.20027,-12.74382 -0.92453,-1.9983 -1.8646,-3.98939 -2.79691,-5.98408 -0.85386,-1.81355 -1.65548,-3.65263 -2.56159,-5.44065 -0.35042,-0.69148 -0.91532,-1.27026 -1.20388,-1.98975 -3.00036,-7.48126 -3.52645,-15.55236 -5.81622,-23.2301 -1.15979,-4.30141 -1.86961,-6.5869 -2.6614,-11.09546 -1.82738,-10.40532 -1.9385,-21.01735 -1.88339,-31.54993 0,0 -1.58897,-3.11852 -1.58897,-3.11852 z" />
    <path
       style="fill:#0000ff;stroke-width:0.264583"
       id="path168"
       d="m 549.9736,273.94918 c 7.62791,-3.46665 15.55602,-6.1877 23.56429,-8.61793 4.33975,-1.31694 8.56404,-2.50974 12.76787,-4.21262 2.69912,-0.94626 4.50479,-3.21777 6.86729,-4.67413 0.86653,-0.53418 1.84414,-0.71359 2.70176,-1.23819 3.64517,-4.71516 -1.60652,-3.90731 -3.14179,-3.96168 -0.1447,-0.005 -3.96711,-0.41236 -3.99587,-0.4154 -1.29464,-0.66748 -8.21471,-0.0542 -0.25919,2.99632 1.1679,0.44783 2.47441,-0.36816 3.71287,-0.54361 1.72091,-0.24381 3.44342,-0.4761 5.16512,-0.71415 5.44989,-0.24925 11.64317,-1.22892 16.91018,-0.0458 -0.51226,-0.93556 -0.56285,-2.37174 -1.53678,-2.80668 -0.59184,-0.26433 -0.65505,1.11929 -0.95578,1.69353 -1.98302,3.78676 -3.9058,7.60739 -5.88751,11.39579 0,0 1.43688,3.19145 1.43688,3.19145 v 0 c 0.28622,-0.54714 4.14977,-7.93089 4.30712,-8.23789 0.53599,-1.04577 1.03775,-2.10887 1.57345,-3.15479 0.28774,-0.56174 0.8763,-1.03687 0.89662,-1.66769 0.0415,-1.28844 -0.48022,-2.53309 -0.72033,-3.79964 -5.68674,-0.71628 -11.46286,-0.44905 -17.15106,0.11823 -1.72257,0.23835 -3.44593,0.47109 -5.1677,0.71504 -1.2377,0.17535 -2.81348,-0.32761 -3.71065,0.54284 -4.30051,4.1724 1.21999,3.56919 2.43326,3.65696 0.46387,0.0488 3.52036,0.38012 4.04723,0.39887 0.45643,0.0162 0.91223,-0.0704 1.36885,-0.0604 0.17256,0.004 0.52895,0.27304 0.50771,0.10175 -0.12994,-1.04761 -0.47009,-2.06844 -0.87265,-3.0443 -0.0561,-0.13604 -0.15132,0.25243 -0.22699,0.37864 -0.84873,0.55398 -1.84793,0.71123 -2.72627,1.24781 -2.34497,1.43259 -4.10995,3.70801 -6.78465,4.64253 -4.19444,1.70035 -8.4109,2.88845 -12.74138,4.203 -8.0237,2.43565 -15.9671,5.16247 -23.61036,8.63481 0,0 1.22846,3.27734 1.22846,3.27734 z" />
    <path
       style="fill:#0000ff;stroke-width:0.264583"
       id="path170"
       d="m 662.06652,235.11645 c 8.88341,-6.14126 17.36942,-12.82502 26.02741,-19.27173 6.25652,-4.65861 8.14946,-5.75403 14.07999,-10.49939 2.21964,-1.77606 4.36409,-3.64409 6.54613,-5.46614 9.50783,-8.55375 20.60549,-14.91078 31.38152,-21.6658 10.60627,-6.64861 6.70308,-4.17431 17.42016,-11.14756 6.56106,-5.33755 14.93174,-7.94301 21.55693,-13.14707 0.67699,-0.53176 2.01575,-1.89056 2.69896,-2.56998 1.51937,-1.65118 2.48047,-2.04647 -0.29877,-4.86601 -0.41817,-0.42423 -1.19115,0.0571 -1.78657,0.04 -1.16964,-0.0336 -2.33672,-0.12795 -3.50509,-0.19193 -8.47784,-0.42031 -16.96874,-0.34718 -25.45202,-0.18203 0.85011,0.85674 -0.82997,-0.24471 -0.74007,-0.0149 0.44054,1.12588 0.55097,2.52664 1.46503,3.31795 0.44839,0.38817 1.14086,-0.34205 1.67513,-0.59948 2.55738,-1.23221 4.99345,-2.7019 7.50144,-4.03177 3.88374,-1.97927 7.84939,-3.8634 12.11162,-4.87053 0.44048,-0.10408 2.35894,-0.74551 2.59231,0.20074 0.38314,1.52958 -1.49159,-3.58083 -1.09615,-2.69523 1.64963,3.69438 0.46429,3.67125 3.34629,3.49388 0,0 -1.09987,-3.32269 -1.09987,-3.32269 v 0 c -0.318,0.0154 -0.63584,0.058 -0.95401,0.0462 -0.22881,-0.008 -0.70075,-0.33469 -0.67855,-0.1068 0.5434,5.58137 2.07754,2.40062 -0.28151,-0.83096 -0.87863,-0.65591 -2.00753,-0.3194 -3.0007,-0.083 -4.28458,1.01995 -8.27656,2.90265 -12.18191,4.89636 -2.49352,1.32179 -4.91612,2.78062 -7.45438,4.01428 -0.50064,0.24333 -1.44899,0.0209 -1.57191,0.56379 -0.7964,3.51753 -0.0805,3.35426 1.45526,3.3488 8.47524,-0.16436 16.9581,-0.23239 25.42773,0.18987 1.17565,0.0616 2.35045,0.14346 3.527,0.18487 0.55398,0.0195 1.50675,0.52966 1.66298,-0.002 1.73517,-5.90709 -1.32815,-2.64455 -2.00226,-1.73291 -0.61404,0.61433 -2.06171,2.08639 -2.64385,2.5477 -6.55783,5.1968 -15.04397,7.81791 -21.54475,13.1423 -10.71774,6.97528 -6.80482,4.49439 -17.41416,11.14521 -10.78894,6.76343 -21.90536,13.12093 -31.42628,21.68353 -2.17742,1.82019 -4.31705,3.68659 -6.53227,5.46059 -5.96247,4.77483 -7.78024,5.80949 -14.07856,10.4988 -8.65299,6.44243 -17.1322,13.12429 -26.00852,19.26428 0,0 1.27627,3.25901 1.27627,3.25901 z" />
    <path
       style="fill:#0000ff;stroke-width:0.264583"
       id="path172"
       d="m 804.51557,129.22232 c -3.45199,7.65148 -8.36808,14.53055 -12.00986,22.07577 -1.81041,3.7509 -2.49645,5.79013 -4.02133,9.74766 -4.58258,11.762 -11.75186,19.99938 -20.2707,29.05233 -5.32024,5.38823 -11.25964,10.11237 -17.38337,14.54666 -1.896,1.37293 -3.90032,2.59496 -5.7664,4.0083 -4.11623,3.11758 -8.14888,6.84855 -11.99253,10.26376 -8.38989,7.75116 -17.92338,14.0502 -27.10704,20.78079 -4.97867,3.64879 -9.90754,7.36516 -14.88165,11.02016 -9.2288,7.27381 -20.20395,11.54109 -30.34607,17.25643 -4.55425,2.56646 -9.784,5.91545 -14.21768,8.69466 -10.19116,6.84598 -21.84209,10.24038 -33.68328,12.85261 -1.77046,0.35322 -3.54309,0.69577 -5.3114,1.05963 -4.36531,0.89826 -5.33324,1.21954 -9.64621,1.88357 -4.3013,0.66222 -8.65317,1.01049 -12.97805,1.47939 -3.99031,0.64389 -7.98176,-0.0764 -11.97171,-0.0633 -0.44918,-0.38677 -1.21774,0.36975 -1.68632,0.0587 -0.17277,-0.1147 -0.26416,-0.75531 -0.11483,-0.61143 0.66339,0.63913 0.82714,1.94585 1.72292,2.16067 0.63317,0.15184 0.86693,-0.97317 1.33302,-1.42783 0.51464,-0.50199 1.07082,-0.95953 1.60623,-1.43928 1.2781,-1.24531 2.24438,-2.83779 3.13994,-4.35485 -0.606,-1.15396 -1.04756,-2.41052 -1.81797,-3.46186 -0.66834,-0.91205 -7.14222,0.60033 -7.96132,0.82682 -1.65499,0.17761 -2.90901,1.51627 -4.52331,1.78792 -0.65792,0.1107 -1.31059,0.0458 -1.9866,0.19905 -1.1843,3.39039 3.62572,4.76811 5.55104,5.52619 1.32627,0.52221 2.65596,1.03571 3.98393,1.55355 0,0 -0.95699,-3.36663 -0.95699,-3.36663 v 0 c -1.32697,-0.51814 -2.65642,-1.02992 -3.98087,-1.5544 -1.0536,-0.41723 -2.11905,-1.73398 -3.15317,-1.27061 -0.80415,0.36031 0.19743,1.76699 0.0927,2.64191 -0.0175,0.14687 -0.25461,-0.15068 -0.3819,-0.226 0.67942,-0.15076 1.35226,-0.0892 2.01985,-0.21085 1.60751,-0.29292 2.86033,-1.5758 4.50607,-1.78176 1.98747,-0.54718 3.82709,-0.99684 5.89917,-0.98028 0.35902,0.003 0.71943,0.01 1.07572,0.0535 0.25646,0.0317 0.75758,0.43137 0.75568,0.17298 -0.008,-1.03092 -0.51779,-1.99583 -0.77669,-2.99373 0.36666,0.12988 -0.42645,0.68725 -0.58637,0.98904 -0.63002,1.18901 -1.06436,2.36595 -2.21985,3.20881 -0.13838,0.12287 -2.98921,2.58032 -3.04469,2.91211 -0.24633,1.4732 0.15179,2.99196 0.42135,4.46109 0.0426,0.2322 0.27059,0.42558 0.49085,0.51051 0.52091,0.20079 1.16015,-0.30845 1.67399,-0.0547 4.0022,0.0124 8.00561,0.68688 12.00756,0.0514 4.33266,-0.46934 8.69159,-0.82121 13.00028,-1.48696 4.30085,-0.66452 5.30484,-0.9911 9.65345,-1.88608 1.77059,-0.36438 3.54542,-0.70797 5.31813,-1.06196 11.87825,-2.62498 23.56903,-6.03175 33.79583,-12.89407 4.39606,-2.75672 9.67918,-6.13981 14.19421,-8.68563 10.15527,-5.72614 21.14947,-9.99315 30.39354,-17.27488 4.9734,-3.65393 9.90081,-7.37023 14.87815,-11.01878 9.19239,-6.7383 18.7406,-13.037 27.14072,-20.79431 3.74796,-3.33385 7.92766,-7.19719 11.95372,-10.24821 1.86912,-1.41645 3.87858,-2.63862 5.77871,-4.01317 6.14103,-4.44239 12.09937,-9.17331 17.43853,-14.56916 8.54667,-9.06285 15.77334,-17.33307 20.39525,-29.10721 1.49119,-3.8952 2.21204,-6.0334 3.98507,-9.73108 3.62236,-7.55455 8.5666,-14.41806 12.00756,-22.07475 0,0 -1.43502,-3.19228 -1.43502,-3.19228 z" />
    <path
       style="fill:#0000ff;stroke-width:0.264583"
       id="path174"
       d="m 638.48678,529.64442 c 6.53441,1.59837 13.09595,3.09435 19.58062,4.88958 2.91187,0.80613 5.73119,1.69905 8.69151,2.29751 2.69671,0.23365 5.14389,1.41443 7.68942,2.17982 1.19661,0.0537 2.00436,1.02825 3.22062,1.17382 0.777,-0.0833 1.53532,-0.22566 2.31767,-0.25175 0,0 -1.09516,-3.32425 -1.09516,-3.32425 v 0 c -0.75867,0.0364 -1.49728,0.17531 -2.25338,0.23127 -1.13541,-0.21841 -1.98258,-1.15223 -3.16857,-1.18943 -2.53714,-0.84881 -5.03658,-1.86444 -7.72475,-2.16932 -2.94844,-0.61108 -5.7689,-1.50199 -8.67243,-2.30322 -6.48864,-1.79057 -13.05206,-3.28957 -19.58946,-4.88696 0,0 1.00391,3.35293 1.00391,3.35293 z" />
    <path
       style="fill:#0000ff;stroke-width:0.264583"
       id="path176"
       d="m 536.904,428.44143 c 8.76946,9.86226 17.50941,19.95567 24.69629,31.06465 3.07681,4.75591 6.04718,10.39423 8.77369,15.38938 4.8678,9.21663 9.01777,19.92532 15.92919,27.87115 0.7612,0.87517 1.66682,1.61338 2.50023,2.42007 1.36803,1.46288 3.19614,2.50563 4.50688,4.02939 0.57042,0.66313 0.87011,1.53104 1.35343,2.25415 2.41517,0.74792 2.47176,-3.5559 2.62353,-4.70043 0.86185,-6.4997 0.61968,-6.87803 0.63873,-13.83255 -0.26742,-6.34116 -1.15851,-12.62962 -2.29503,-18.86604 -0.47487,-2.60572 -1.04211,-4.93606 -0.95578,-7.57949 0.0623,-0.29295 0.10997,-0.58938 0.18693,-0.87881 0.0589,-0.22141 0.3632,-0.44844 0.24244,-0.64313 -0.30562,-0.49265 -1.26876,-1.90679 -1.09019,-1.35522 1.57128,4.85341 3.08494,7.215 5.41388,11.44609 2.99609,5.2655 5.92844,10.57267 7.7353,16.3875 0.17518,0.56385 0.10549,1.17676 0.19032,1.76106 0.81391,5.60605 0.41664,1.57994 0.77242,5.80422 -1.5776,7.06438 -9.51949,11.96681 -15.04071,15.68823 -9.98294,5.98255 -21.51944,7.29927 -32.62593,9.86787 -4.25712,1.29694 -2.42472,0.58481 -5.56067,1.96517 0,0 1.2188,3.28094 1.2188,3.28094 v 0 c 3.08867,-1.36424 1.27749,-0.65815 5.49876,-1.94284 11.14896,-2.57518 22.72321,-3.91287 32.74581,-9.91235 5.82724,-3.91776 13.36577,-8.59922 15.37732,-15.84105 -0.79711,-10.94393 -5.66124,-21.0916 -11.03146,-30.48389 -0.84831,-1.55543 -1.62189,-3.15402 -2.54497,-4.66627 -0.0958,-0.15698 -0.39309,-0.11626 -0.47477,-0.28101 -2.34424,-4.72797 -1.65201,-6.52706 -2.5871,-3.32269 -0.17208,2.67856 0.39944,4.97017 0.88794,7.61457 1.15025,6.22665 2.0546,12.50601 2.34797,18.83849 0.009,7.57055 0.25175,6.79771 -0.58449,13.80551 -0.0201,0.16822 -0.23707,3.62239 -1.05175,4.54904 -0.25199,0.28662 -0.59285,-0.0111 -0.7802,-0.12317 -0.45977,-0.75591 -0.83669,-1.57292 -1.4392,-2.23438 -1.35406,-1.4865 -3.11224,-2.57918 -4.49874,-4.03137 -0.81695,-0.81053 -1.70346,-1.55649 -2.45089,-2.43158 -6.93359,-8.11805 -10.92102,-18.56166 -15.87775,-27.8824 -2.79648,-5.10595 -5.64221,-10.50488 -8.81208,-15.38107 -7.21577,-11.10001 -15.95345,-21.20429 -24.75412,-31.05132 0,0 0.81597,3.40358 0.81597,3.40358 z" />
    <path
       style="fill:#0000ff;stroke-width:0.264583"
       id="path178"
       d="m 684.17688,544.61206 c 12.76059,8.12773 24.47779,17.72816 36.76174,26.53524 5.49547,4.1579 11.08014,8.26074 16.97841,11.83976 4.10536,2.49111 8.47897,4.52991 12.75715,6.6988 4.94967,2.89444 10.32918,4.99563 15.30877,7.81844 0.36774,0.15108 3.99791,3.54751 4.54625,1.84161 0.089,-0.27694 -0.004,-0.5818 -0.006,-0.87268 -0.59481,-1.59311 -1.08143,-3.2309 -1.78446,-4.77933 -0.36843,-0.81153 -0.96491,-1.49936 -1.41536,-2.2684 -0.56928,-0.97192 -1.11165,-1.95964 -1.64285,-2.95288 -1.27527,-2.38445 -2.45025,-4.75906 -3.89517,-7.04604 -0.24479,-0.37688 -0.81748,-1.57224 -0.73435,-1.13062 0.17751,0.94305 0.65053,1.80676 1.02772,2.68912 0.0272,0.0637 -0.0316,-0.18333 0.0342,-0.20495 0.12631,-0.0415 0.26644,0.0257 0.3937,0.0643 0.43098,0.13075 0.85662,0.27995 1.27669,0.44241 0.82746,0.31996 1.64315,0.66958 2.4647,1.00438 6.69783,2.70735 12.81407,6.39223 18.44705,10.88567 0.48405,-0.17089 0.63727,1.03929 0.89304,1.21354 0.13849,0.0943 0.34248,0.0457 0.48424,0.13502 0.10602,0.0668 0.1447,0.20468 0.21707,0.30702 -0.44448,-0.93091 -0.88892,-1.86185 -1.3334,-2.79278 -4.15573,4.4977 -10.34057,6.09536 -15.82803,8.36181 -1.25661,0.50834 -2.23825,1.43158 -3.41014,2.07222 0,0 1.24526,3.27099 1.24526,3.27099 v 0 c 1.16811,-0.62593 2.13199,-1.5489 3.37598,-2.05944 5.58943,-2.3096 11.79092,-3.96303 16.09103,-8.47114 -0.92961,-3.68982 -0.54562,-3.47649 -2.59088,-5.43099 -5.66705,-4.48392 -11.82785,-8.14822 -18.54419,-10.85969 -0.77767,-0.31158 -3.42101,-1.80401 -4.59153,-1.347 -1.85967,0.72604 1.1643,4.04302 1.82147,5.27108 2.00631,3.24607 3.62871,6.69462 5.53437,9.99969 0.44199,0.76658 0.62487,1.78684 1.35959,2.27994 0.50456,0.33864 -0.36764,-1.15837 -0.55147,-1.73754 1.34882,2.82519 -3.49351,-1.15657 -3.79484,-1.26495 -5.00748,-2.78259 -10.35418,-4.94636 -15.32305,-7.81457 -4.2713,-2.16496 -8.6265,-4.21336 -12.72043,-6.70862 -5.8887,-3.5892 -11.46484,-7.69413 -16.96331,-11.8437 -12.28167,-8.81822 -24.00784,-18.41699 -36.78478,-26.52922 0,0 0.89548,3.3835 0.89548,3.3835 z" />
    <path
       style="fill:#0000ff;stroke-width:0.264583"
       id="path180"
       d="m 782.92184,598.5175 c -4.9203,-14.0837 -11.69445,-27.41936 -18.96835,-40.41093 -2.92783,-5.68478 -5.99475,-11.26725 -10.06523,-16.23001 -3.94353,-4.80801 -8.57514,-9.12292 -12.88158,-13.59826 -1.446,-1.68545 -2.90814,-3.35722 -4.33803,-5.0564 -4.5299,-5.383 -4.05403,-5.35557 -9.20718,-10.1219 -4.27366,-3.95285 -6.53944,-5.26267 -10.81403,-9.36668 -1.95021,-1.87237 -3.73573,-3.90906 -5.60361,-5.86361 -5.53693,-6.49198 -11.91733,-12.00269 -19.00523,-16.7204 -2.39596,-1.59472 -4.90328,-3.01612 -7.32544,-4.57076 -7.98012,-5.12201 -7.39828,-4.85923 -15.08514,-10.39616 -6.83051,-4.82817 -13.79103,-9.45023 -21.02937,-13.64615 -2.60104,-1.50776 -5.28267,-2.87507 -7.86633,-4.41246 -4.71037,-2.80289 -10.54785,-6.73222 -15.12559,-9.75415 -10.45959,-7.48171 -22.82751,-11.13383 -34.52548,-16.09122 -2.1468,-0.9098 -4.25355,-1.9113 -6.38032,-2.86695 -5.49439,-1.84933 -9.12127,-6.98317 -14.52843,-8.90997 -1.6319,-0.5815 -2.98649,-0.59928 -4.67244,-0.74663 -0.41132,0.26313 -5.44893,-1.25394 -5.28833,-0.66122 0.97827,3.61005 1.75273,4.71511 3.3628,7.66389 4.41878,7.47311 6.90848,15.69318 8.70794,24.12024 0.0345,1.51312 0.66694,2.94788 0.75319,4.45267 0.0233,0.40704 -0.0472,1.6233 -0.0997,1.21902 -0.033,-0.25459 0.0353,-0.51221 0.0529,-0.7683 0.20005,0.30012 0.61237,1.26087 0.60015,0.90038 -0.0495,-1.46209 -0.50138,-2.88288 -0.71631,-4.32994 -0.25553,-1.72069 -0.5267,-3.44082 -0.69487,-5.17226 -0.51837,-5.33651 -0.37269,-10.64479 -0.18357,-15.99012 0.30975,-3.76433 -0.19608,-7.65225 1.30889,-11.2182 0.92845,-2.19998 1.47974,-2.7242 2.88719,-4.67672 4.62595,-4.40759 11.24119,-6.88877 17.60911,-7.30096 1.70669,-0.11049 3.41907,0.0992 5.12863,0.14874 1.40229,0.17997 2.80455,0.35994 4.20685,0.53991 0,0 -1.03955,-3.34205 -1.03955,-3.34205 v 0 c -1.41333,-0.17648 -2.82665,-0.35296 -4.23995,-0.52944 -1.73088,-0.0425 -3.4652,-0.24431 -5.19263,-0.12745 -6.46229,0.43712 -13.13609,2.96479 -17.86224,7.399 -1.63322,2.22348 -3.17047,4.38827 -3.82973,7.12684 -0.69625,2.89224 -0.12145,5.93841 -0.55415,8.85603 -0.39415,10.47284 -0.36957,21.17786 3.29631,31.1405 0.25366,0.16267 0.4612,0.51867 0.76097,0.488 0.59979,-0.0614 -0.51964,-5.52773 -0.53811,-5.73079 -2.21432,-10.65684 -5.84554,-21.07401 -11.08093,-30.63031 -0.5157,-0.9434 -0.67035,-2.20787 -1.54707,-2.8302 -0.50607,-0.35922 0.0495,1.24542 0.1716,1.85388 0.0148,0.0738 0.096,-0.15605 0.17082,-0.14779 0.38206,0.0422 0.74284,0.19812 1.11609,0.2899 0.54478,0.13399 1.08366,0.30025 1.63788,0.38738 0.71025,0.11171 1.43129,0.13853 2.14693,0.2078 1.68042,0.16092 2.93008,0.17693 4.55242,0.78208 5.36533,2.00129 9.03743,7.07742 14.53764,8.90741 13.70685,6.13738 28.34479,10.43147 40.85122,18.97293 4.78602,3.15508 10.22344,6.81821 15.1498,9.74773 2.58196,1.53537 5.25899,2.90591 7.85635,4.41512 7.2281,4.19997 14.17778,8.82769 21.00141,13.65346 7.85625,5.64446 6.96248,5.15662 15.10713,10.39042 2.4172,1.55332 4.91717,2.97776 7.3048,4.57616 7.06331,4.72855 13.40069,10.27234 18.94181,16.73614 1.87785,1.95209 3.67625,3.98391 5.63359,5.85631 4.23547,4.05167 6.57582,5.44515 10.7909,9.37231 5.07717,4.73038 4.69013,4.80896 9.18191,10.12788 1.43478,1.69897 2.90473,3.36793 4.35711,5.05192 4.30252,4.46834 8.92262,8.7856 12.83774,13.60837 4.04019,4.97681 7.07752,10.57325 10.02149,16.23957 6.13674,10.98971 11.87238,22.2259 16.5509,33.9239 0,0 1.69445,3.0625 1.69445,3.0625 z" />
    <path
       style="fill:#0000ff;stroke-width:0.264583"
       id="path182"
       d="m 425.23129,430.28279 c -1.53019,1.05651 -3.1406,2.00531 -4.59052,3.16953 -2.5966,2.08494 -6.85395,6.3877 -9.17837,8.78215 -4.05635,4.17857 -7.99568,8.46987 -12.04854,12.65285 -1.48805,1.49736 -2.97162,2.99916 -4.46413,4.49205 -1.46566,1.46603 -2.98903,2.87562 -4.41037,4.38467 -2.54815,2.70539 -4.74427,5.72995 -7.31009,8.41859 -2.46298,2.58083 -3.28115,2.98871 -6.03335,4.95671 -2.63361,1.90936 -6.02136,2.37072 -8.65275,4.26794 -0.24336,0.17547 -1.85859,1.68767 -2.17048,1.97755 -0.81462,1.6992 -0.62899,-0.2562 -0.52771,-0.10795 0.51797,0.75821 0.62137,1.79379 1.26836,2.44541 0.22659,0.2282 0.16576,-0.62188 0.2291,-0.93716 0.20537,-1.02232 0.17746,-1.05007 0.2417,-2.02512 -0.0275,-1.93757 -0.42273,-3.13571 -1.66524,-5.03986 -0.0548,-0.084 -1.38612,0.17801 -1.39078,0.17883 -1.73058,0.061 -2.74508,0.86927 -3.43471,2.45457 -0.49665,3.95118 1.1608,4.07146 3.49546,5.04558 1.62195,0.67675 3.17307,1.5123 4.76634,2.25411 0,0 -0.93544,-3.37269 -0.93544,-3.37269 v 0 c -1.60083,-0.7465 -3.17854,-1.5443 -4.80012,-2.24454 -0.49178,-0.21236 -1.27744,-1.04685 -1.50545,-0.56216 -0.38635,0.82124 0.31609,1.78795 0.51186,2.67414 0.0448,0.20278 -0.0387,-0.41349 -0.0581,-0.62023 0.51054,-1.58208 1.48262,-2.24828 3.09856,-2.31908 0.2254,-0.0377 0.44855,-0.0928 0.67617,-0.11313 0.15187,-0.0135 0.48178,0.1624 0.45728,0.0119 -0.99565,-6.11579 -1.05995,-2.82194 -0.78941,-1.47375 -0.11557,3.58058 -0.99079,2.31126 0.53626,7.0721 0.055,0.17132 0.27273,0.30758 0.4522,0.29472 0.26479,-0.019 0.46762,-0.25154 0.70143,-0.3773 0.13965,-0.13007 2.05865,-1.91918 2.10003,-1.94955 2.62326,-1.92511 6.04991,-2.34945 8.68098,-4.27895 2.76047,-1.96218 3.64715,-2.41432 6.11214,-4.98896 2.56439,-2.67843 4.74379,-5.70658 7.28421,-8.40774 1.42068,-1.51056 2.9459,-2.91928 4.4123,-4.38547 1.49379,-1.49355 2.97881,-2.99583 4.46823,-4.49374 4.0535,-4.18086 7.99232,-8.47 12.04444,-12.65115 2.2556,-2.32744 6.59921,-6.72635 9.11887,-8.75814 1.43838,-1.15988 3.03792,-2.10431 4.55689,-3.15648 0,0 -1.24722,-3.27025 -1.24722,-3.27025 z" />
    <path
       style="fill:#0000ff;stroke-width:0.264583"
       id="path184"
       d="m 320.86248,527.20197 c -2.28648,1.53329 -4.56195,3.08311 -6.85943,4.59981 -5.11564,3.37717 -8.00536,5.05391 -12.86602,8.62743 -7.33518,5.39273 -3.60445,3.03633 -10.73603,8.70428 -1.76797,1.40513 -3.61572,2.70685 -5.42356,4.06027 -3.61672,2.92659 -7.85551,4.94086 -11.6694,7.56381 -2.20977,1.51976 -4.08122,3.45127 -6.23323,5.04957 -2.07778,1.26143 -4.37597,2.79069 -6.90548,2.66372 -1.24298,-0.34907 -2.52186,-0.20844 -3.79379,-0.17584 -0.7381,-0.13415 -2.65167,0.41753 -2.99718,-0.3329 1.33474,3.01482 1.08715,3.65082 1.28873,1.69243 0.14755,-1.43341 0.2559,-2.84977 0.20349,-4.29114 -0.11294,-2.22896 -1.1168,-3.75367 -3.13228,-3.48219 -0.67311,0.0906 -1.12224,0.007 -1.61195,0.47734 0.47496,1.28826 0.75737,2.66491 1.42487,3.86474 0.2097,0.37695 0.74269,0.43963 1.10229,0.67784 0.48303,0.31996 0.95479,0.6568 1.42454,0.99594 2.28434,1.64928 4.44651,3.33698 6.86449,4.79174 0,0 -0.8982,-3.38278 -0.8982,-3.38278 v 0 c -2.39449,-1.47116 -4.56325,-3.16047 -6.84332,-4.79729 -0.47176,-0.33867 -0.95731,-0.65776 -1.43052,-0.99438 -0.3257,-0.23173 -0.91626,-1.10707 -0.96599,-0.71049 -0.11852,0.94514 0.47195,1.84568 0.70792,2.76855 0.16227,-0.51875 2.16044,-0.20521 2.19044,-0.47845 0.1189,-1.08304 -0.30959,-2.15704 -0.47524,-3.23392 -0.02,-0.13004 0.0255,0.26194 0.0382,0.39288 0.24934,3.83349 -1.03183,5.15069 0.92669,9.11315 0.92919,0.5588 2.22468,0.14861 3.27316,0.25482 1.26877,-0.0332 2.52893,-0.13269 3.77357,0.18237 2.61498,0.0541 4.97107,-1.4121 7.12673,-2.74304 2.15168,-1.58567 4.00455,-3.52115 6.20488,-5.03843 3.819,-2.63348 8.0768,-4.6395 11.69951,-7.57563 1.81411,-1.35594 3.66905,-2.6589 5.44234,-4.06781 7.20863,-5.72738 3.29899,-3.24056 10.70578,-8.69222 4.86334,-3.57958 7.73751,-5.24412 12.86069,-8.62531 2.29904,-1.51734 4.57607,-3.06777 6.86411,-4.60166 0,0 -1.28085,-3.25721 -1.28085,-3.25721 z" />
    <path
       style="fill:#0000ff;stroke-width:0.264583"
       id="path186"
       d="m 222.99442,592.55154 c 6.08619,-8.84367 12.6221,-17.36146 19.15241,-25.87747 5.32825,-6.94846 8.08725,-10.79706 13.92806,-17.32391 2.30843,-2.57955 4.78157,-5.00687 7.17235,-7.5103 2.53529,-2.4316 5.08333,-4.84995 7.60582,-7.29478 4.03873,-3.9144 11.82147,-11.64558 15.95548,-15.5091 7.47773,-6.98844 15.26797,-13.66071 22.87844,-20.50397 12.73048,-11.87056 26.70178,-22.33022 40.53502,-32.86686 4.45807,-3.05017 6.77632,-4.86246 11.4754,-7.27773 4.36999,-2.24613 5.07058,-2.05886 9.42565,-3.95867 2.89795,-1.26418 4.31088,-2.13781 7.0096,-3.65027 6.01644,-2.81144 11.65889,-6.3055 17.49391,-9.45092 2.4376,-2.06494 6.57786,-1.58088 8.82914,-3.69493 1.08316,-1.8569 1.06887,-1.92635 -0.51731,-4.85286 -0.014,-0.0257 -1.64849,0.18955 -2.32198,0.0482 -2.73328,-2.31142 -6.45173,-2.94446 -9.82639,-3.79243 -1.2374,-0.35906 -2.47068,-0.83579 -3.48004,-1.66346 -0.21304,-0.17468 -0.68638,-0.84463 -0.57703,-0.59174 1.4419,3.33441 0.85786,2.74047 2.66317,3.94115 0.58626,0.80267 1.82731,0.76748 2.54296,1.29768 0.0887,0.0657 0.1484,0.41566 0.10361,0.31472 -0.40767,-0.91847 -0.79518,-1.84576 -1.19277,-2.76865 -0.52988,6.83842 -3.39235,13.01522 -6.0348,19.24674 -5.02015,10.12809 -2.48724,5.31887 -7.54668,14.45496 0,0 1.42909,3.19495 1.42909,3.19495 v 0 c 5.07979,-9.14549 2.53582,-4.33123 7.57997,-14.47007 2.66718,-6.26009 5.53585,-12.44666 6.14741,-19.30095 -1.59975,-5.25775 -0.54409,-3.159 -3.93502,-5.35001 -0.35933,-0.18034 -0.95255,-0.923 -1.07799,-0.54102 -1.24492,3.79095 1.67627,4.71294 4.37727,5.59006 3.43783,0.86707 6.94227,1.6401 9.85258,3.78452 1.75334,0.23802 -0.0106,0.0879 1.60689,-0.0214 0.1225,-0.008 0.38672,0.18188 0.36319,0.0614 -0.87151,-4.46659 -0.70596,-3.443 -1.49558,-1.81528 -1.78038,1.91799 -6.61755,1.73556 -8.73434,3.65726 -5.8387,3.14266 -11.47856,6.64588 -17.49949,9.45306 -2.6706,1.49957 -4.09774,2.38252 -6.96503,3.63357 -4.3974,1.91868 -5.0537,1.70812 -9.4743,3.97693 -4.72274,2.42384 -7.03641,4.23201 -11.51687,7.29395 -13.8422,10.53949 -27.82141,21.00469 -40.56149,32.87752 -7.61275,6.84647 -15.4077,13.51939 -22.88982,20.50868 -4.24699,3.96718 -11.80216,11.48582 -15.9544,15.50863 -2.5264,2.44766 -5.07998,4.86709 -7.61996,7.30062 -2.39755,2.50629 -4.87778,4.93601 -7.19263,7.51885 -5.88443,6.56566 -8.57951,10.33777 -13.94297,17.33026 -6.5328,8.51702 -13.07722,17.03165 -19.15996,25.88072 0,0 1.38943,3.21241 1.38943,3.21241 z" />
  </g>
</svg>
