<?xml version="1.0" encoding="UTF-8" standalone="no"?>
<!-- Created with Inkscape (http://www.inkscape.org/) -->

<svg
   width="1000mm"
   height="700mm"
   viewBox="0 0 1000 700"
   version="1.1"
   id="svg5"
   inkscape:version="1.2.2 (1:1.2.2+202212051552+b0a8486541)"
   sodipodi:docname="ink_img001.svg"
   xmlns:inkscape="http://www.inkscape.org/namespaces/inkscape"
   xmlns:sodipodi="http://sodipodi.sourceforge.net/DTD/sodipodi-0.dtd"
   xmlns="http://www.w3.org/2000/svg"
   xmlns:svg="http://www.w3.org/2000/svg">
  <sodipodi:namedview
     id="namedview7"
     pagecolor="#ffffff"
     bordercolor="#cccccc"
     borderopacity="1"
     inkscape:showpageshadow="0"
     inkscape:pageopacity="1"
     inkscape:pagecheckerboard="0"
     inkscape:deskcolor="#d1d1d1"
     inkscape:document-units="mm"
     showgrid="false"
     inkscape:zoom="0.23299874"
     inkscape:cx="1060.0916"
     inkscape:cy="1474.2569"
     inkscape:window-width="1440"
     inkscape:window-height="836"
     inkscape:window-x="0"
     inkscape:window-y="0"
     inkscape:window-maximized="1"
     inkscape:current-layer="layer1"
     inkscape:lockguides="false" />
  <defs
     id="defs2" />
  <g
     inkscape:label="Layer 1"
     inkscape:groupmode="layer"
     id="layer1">
    <path
       style="fill:#000000;stroke-width:0.264583"
       id="path71"
       d="m 315.341,300.49705 c 18.26037,-5.58252 36.88741,-12.35649 56.26208,-12.12106 2.51762,0.0306 5.01661,0.4373 7.52491,0.65592 5.96577,1.14695 11.70154,3.23448 15.91908,7.7741 0.93059,1.00166 1.832,2.45234 2.59471,3.60899 -0.21799,-0.44275 -0.47019,-1.78622 -0.65397,-1.3282 -0.42481,1.05873 0.0222,2.29547 -0.18433,3.41743 -0.36447,1.98036 -0.84749,3.94857 -1.52048,5.84637 -3.12621,8.81557 -8.23204,16.8284 -12.9481,24.83604 -5.74755,9.34982 -13.57069,17.28216 -18.8051,26.96535 -1.72959,3.19958 -2.53733,5.6641 -3.7822,8.9925 -1.33236,4.09226 -2.31481,8.35533 -1.76416,12.69101 0.46442,3.65656 1.87201,6.03408 3.3546,9.63258 0.80978,0.85452 1.49847,1.84287 2.42938,2.56354 5.11553,3.96031 13.31089,5.54408 19.59126,5.47982 2.30692,-0.0236 4.60118,-0.34515 6.90176,-0.51771 10.14359,-1.08165 19.7149,-4.69853 29.52639,-7.23948 7.53075,-1.9503 6.68242,-1.65891 14.12377,-3.01363 6.13262,-1.08953 12.29609,-1.9898 18.45649,-2.90399 0,0 -1.13049,-3.3124 -1.13049,-3.3124 v 0 c -6.1641,0.91517 -12.33117,1.81676 -18.46741,2.90775 -7.4535,1.36035 -6.61368,1.07048 -14.15269,3.02374 -9.7894,2.53632 -19.34017,6.14484 -29.46223,7.21741 -2.28508,0.16753 -4.56409,0.48471 -6.85522,0.50257 -6.17519,0.0481 -14.37728,-1.53307 -19.33504,-5.55061 -0.9004,-0.72967 -1.54868,-1.72458 -2.32304,-2.58689 -1.27331,0.50112 -0.57015,0.33134 -1.05669,-3.09025 -0.61238,-4.30652 0.33528,-8.55475 1.64033,-12.63036 1.2065,-3.26657 2.04277,-5.83351 3.72147,-8.96496 5.20237,-9.70455 13.05301,-17.62273 18.8095,-26.96728 4.73678,-8.02759 9.84917,-16.05587 13.03522,-24.87618 0.42548,-1.17793 2.24378,-7.1904 1.87389,-9.35024 -0.30713,-1.79343 -1.18205,-3.44173 -1.77308,-5.16258 -4.94165,-7.29126 -10.20908,-9.50764 -18.81661,-11.30229 -2.52315,-0.21383 -5.0374,-0.61476 -7.56944,-0.64153 -19.40613,-0.20532 -38.062,6.55111 -56.35323,12.15258 0,0 1.18867,3.29194 1.18867,3.29194 z" />
    <path
       style="fill:#000000;stroke-width:0.264583"
       id="path73"
       d="m 425.48439,287.65156 c -9.87309,16.74987 -16.86713,34.92658 -25.28983,52.39411 -4.67775,8.49826 -8.76884,17.26107 -11.50138,26.58618 -0.67794,2.31365 -1.32204,5.34871 -1.86156,7.77476 -0.78782,2.66181 -1.49042,5.27558 -1.44097,8.06188 0,0 1.5998,3.11298 1.5998,3.11298 v 0 c -0.14483,-2.78165 0.55155,-5.37123 1.36187,-8.02249 0.5126,-2.32949 1.19882,-5.57892 1.8312,-7.76028 2.70288,-9.32312 6.77035,-18.08472 11.45818,-26.56623 8.43664,-17.45718 15.40116,-35.64435 25.27795,-52.38874 0,0 -1.43526,-3.19217 -1.43526,-3.19217 z" />
    <path
       style="fill:#000000;stroke-width:0.264583"
       id="path75"
       d="m 357.40623,346.68764 c 8.82758,-3.00445 17.7324,-5.87126 26.80991,-8.03712 8.86716,-2.11568 17.9215,-3.56372 26.85372,-5.38091 4.39685,-0.90903 8.7937,-1.81806 13.19057,-2.72708 0,0 -1.14919,-3.30595 -1.14919,-3.30595 v 0 c -4.39651,0.9089 -8.79301,1.8178 -13.18951,2.72669 -8.93937,1.81801 -18.00016,3.26919 -26.87399,5.38803 -9.09082,2.17064 -18.00905,5.0414 -26.84957,8.05143 0,0 1.20806,3.28491 1.20806,3.28491 z" />
    <path
       style="fill:#000000;stroke-width:0.264583"
       id="path77"
       d="m 474.57169,348.61113 c -3.22678,2.70291 -2.49298,2.14649 -5.41713,4.41045 -0.34002,0.26326 -1.12004,0.35695 -1.02958,0.77734 0.73835,3.43078 1.67894,2.81448 3.2575,4.42876 0.50046,0.36613 0.96113,0.79393 1.50133,1.09839 5.08981,2.86856 10.91924,4.34451 16.40017,6.25438 3.05398,1.23383 2.95325,1.94077 4.19518,4.28577 0.16489,0.41402 0.68056,0.83704 0.49464,1.24204 -0.16725,0.36433 -0.50356,-1.44587 -0.58158,-1.05265 -0.21937,1.10546 0.16668,2.25285 0.11996,3.37892 -0.0642,1.54707 -0.18024,3.0988 -0.45204,4.62317 -0.80722,4.52691 -1.33538,5.16728 -3.06457,9.23708 -2.23898,3.42442 -4.13247,7.32917 -7.08601,10.22892 -1.99544,1.39605 -3.2226,0.92295 -4.91086,-0.61613 0,0 0.84778,3.39576 0.84778,3.39576 v 0 c 1.92881,1.47707 3.27028,1.91662 5.39748,0.45601 3.01939,-2.89226 4.91564,-6.84927 7.2128,-10.28417 2.2166,-5.10669 3.33957,-8.27352 3.65199,-13.92602 0.0629,-1.13771 0.1827,-2.30172 -0.0458,-3.41802 -0.54385,-2.65642 -1.34506,-4.44984 -2.29423,-6.69203 -1.11895,-2.26115 -1.77683,-3.21498 -4.45423,-4.22169 -5.44772,-1.89132 -11.28019,-3.35238 -16.29733,-6.28235 -0.52874,-0.30876 -0.97711,-0.73818 -1.46566,-1.10728 -1.00687,-0.83986 -4.10662,-2.77942 -1.13226,2.22306 0.2208,0.37131 0.6934,-0.51554 1.03529,-0.7796 2.94936,-2.27803 2.17485,-1.68963 5.42168,-4.41229 0,0 -1.30447,-3.24782 -1.30447,-3.24782 z" />
    <path
       style="fill:#000000;stroke-width:0.264583"
       id="path79"
       d="m 469.12585,350.05846 c 10.92856,-5.39084 22.11284,-10.30227 33.78253,-13.87745 8.38499,-2.56889 18.77729,-4.63537 27.1998,-6.48253 0,0 -1.15319,-3.30457 -1.15319,-3.30457 v 0 c -8.46246,1.8569 -18.82081,3.91652 -27.23927,6.49655 -11.67919,3.57937 -22.87463,8.49144 -33.81193,13.88825 0,0 1.22206,3.27975 1.22206,3.27975 z" />
    <path
       style="fill:#000000;stroke-width:0.264583"
       id="path81"
       d="m 117.32479,353.90521 c 10.09056,-19.66476 22.74176,-37.91524 35.32427,-56.04558 13.00281,-17.99722 25.74534,-36.24132 39.69607,-53.53073 2.58969,-3.20946 5.30713,-6.31371 7.9607,-9.47057 2.54109,-3.01553 5.14913,-5.97588 7.62327,-9.04658 2.0328,-2.52295 10.03022,-13.18682 12.25003,-16.03899 4.59998,-5.91036 9.39445,-11.63153 14.33579,-17.25608 2.77817,-3.02663 5.48761,-6.14661 8.01936,-9.38515 1.5338,-1.962 2.81582,-4.08994 4.33201,-6.06528 1.61148,-2.54213 2.325,-2.90149 -0.28217,-5.91278 -0.17709,-0.20455 -0.5124,0.17593 -0.77478,0.24191 -0.33323,0.0838 -0.67323,0.13793 -1.00985,0.20689 -6.64328,1.38354 -13.46109,1.57169 -20.11682,2.87193 -1.50883,0.29476 -2.99457,0.69742 -4.49186,1.04612 -6.14619,1.70233 -12.28109,3.7 -18.58432,4.76054 -1.71973,-0.76117 -0.10717,2.32729 0.75022,2.689 0.64974,0.2741 0.86712,-1.11235 1.30066,-1.66854 1.06105,-1.36123 2.07939,-2.75687 3.1831,-4.08375 5.4416,-6.54185 4.95052,-5.71816 11.34972,-11.92717 7.25533,-6.45566 15.40838,-11.73239 24.46415,-15.26562 1.31499,-0.51306 5.74883,-1.91356 7.26645,-2.39979 1.57177,-0.0276 4.79635,-2.09813 6.3112,-0.6564 0.28769,0.27381 0.5792,1.10759 0.71942,1.456 -0.28035,-0.69001 -0.19355,-1.70201 -0.84106,-2.07001 -0.54908,-0.31206 0.31233,1.22434 0.44103,1.84265 0.19417,0.93287 0.38549,1.86728 0.52732,2.80952 0.81064,5.38555 0.88383,10.73437 0.91003,16.16883 0.11018,5.49943 -0.68674,11.03354 -0.34981,16.53325 0.23009,3.75575 0.47397,4.15412 1.31826,7.4522 0,0 1.6688,3.07654 1.6688,3.07654 v 0 c -0.88137,-3.25003 -1.15087,-3.70135 -1.39848,-7.41002 -0.36703,-5.49736 0.45975,-11.03697 0.35131,-16.53401 -0.0194,-8.54591 -0.0369,-17.26484 -3.32176,-25.29939 -0.2585,-0.5099 -0.45661,-1.05478 -0.95983,-1.39842 -1.83897,-1.25581 -4.72353,0.59992 -6.56067,0.7357 -1.54062,0.4937 -5.96406,1.89099 -7.29854,2.4115 -9.09455,3.54733 -17.28901,8.83574 -24.58213,15.31179 -6.38396,6.17883 -5.96887,5.42849 -11.39468,11.94608 -1.10281,1.32472 -2.09982,2.73433 -3.17605,4.08074 -0.4791,0.59937 -1.45673,0.98887 -1.48906,1.75551 -0.15906,3.77306 0.22941,3.59718 1.94784,3.75383 6.30746,-1.08219 12.45239,-3.05219 18.60423,-4.76744 1.48978,-0.34611 2.96808,-0.74594 4.46933,-1.03832 6.66103,-1.29727 13.48429,-1.48642 20.13133,-2.87694 0.80717,-0.16903 1.74487,-0.34752 1.74055,-0.43381 -0.29833,-5.96854 -0.98937,-2.41791 -2.20369,-0.62432 -1.5271,1.96537 -2.7901,4.09719 -4.31958,6.05998 -2.52469,3.23993 -5.23633,6.35694 -8.01132,9.38174 -4.94994,5.62664 -9.75297,11.35052 -14.35855,17.26578 -1.95005,2.50459 -10.50786,13.88831 -12.23402,16.03215 -2.47317,3.0716 -5.08239,6.03114 -7.62358,9.04671 -2.6578,3.15866 -5.38004,6.26422 -7.97341,9.47599 -13.95998,17.2888 -26.7019,35.54053 -39.71308,53.53807 -12.59499,18.13859 -25.25615,36.399 -35.3708,56.06627 0,0 1.44345,3.18847 1.44345,3.18847 z" />
    <path
       style="fill:#000000;stroke-width:0.264583"
       id="path83"
       d="m 270.69034,154.90963 c 15.91812,-3.69468 32.2385,-2.00194 48.36416,-1.24976 26.38647,0.97908 52.76321,2.31861 79.164,2.82457 29.1244,-0.21682 58.12676,-3.14692 87.19534,-4.64684 5.18332,-0.17249 10.36603,-0.36379 15.54996,-0.51747 14.33263,-0.42491 16.77267,-0.29699 31.08743,-1.07068 4.99406,-0.26992 9.97815,-0.70564 14.97181,-0.98258 14.3309,-0.79475 13.83544,-0.64083 27.8152,-0.80411 17.5019,0.86585 34.98564,1.48161 52.50611,1.02867 1.09572,-0.0243 2.19128,-0.0563 3.28713,-0.0728 0.70819,-0.0107 1.41875,-0.0651 2.12479,-0.009 1.30011,0.10349 2.52897,0.75311 3.83776,0.72822 0.10342,-0.0289 0.35226,0.0121 0.31022,-0.0867 -0.58227,-1.36861 -1.13361,-2.78815 -2.03623,-3.97026 -0.6804,-0.89106 -1.70712,-1.45712 -2.61271,-2.11806 -1.71323,-1.25036 -3.45525,-2.46344 -5.23835,-3.61193 -5.82888,-3.75431 -7.05443,-4.27463 -12.96586,-7.46097 -1.63248,-0.77498 -3.24847,-1.58562 -4.89738,-2.32493 -4.65876,-2.08882 -4.56041,-1.93693 -9.41112,-3.51012 -4.08649,-1.32533 -5.66357,-1.51319 -8.91109,-4.20802 -0.25326,-0.96091 -1.49241,-1.41893 -1.97689,-2.19551 -0.0737,-0.11807 -0.16594,-0.52634 -0.0952,-0.40648 0.54356,0.92139 1.01478,1.88358 1.52217,2.82537 0.77494,-0.26759 1.52623,-0.61738 2.32482,-0.80278 11.45624,-2.65952 23.84668,-1.86791 35.42561,-0.69047 8.11933,1.6767 17.03121,2.70735 24.44745,6.6761 2.78135,1.44167 2.58231,1.42609 3.57124,4.21338 -0.37364,-0.47615 -0.67199,-1.83441 -1.12093,-1.42846 -0.77523,0.70104 -0.32412,2.07875 -0.68355,3.06022 -0.53404,1.45823 -1.23616,2.85403 -1.98131,4.21654 -2.92267,5.34425 -6.10812,8.70349 -10.44982,12.855 -6.17416,4.75214 -11.30705,10.59605 -16.63301,16.23643 -0.33734,0.37479 -0.67466,0.74957 -1.01198,1.12435 0,0 1.35676,3.22633 1.35676,3.22633 v 0 c 0.3347,-0.37368 0.66937,-0.74735 1.00407,-1.12103 1.53283,-1.62719 3.14002,-3.18335 4.6695,-4.81372 3.78341,-4.03306 7.43026,-8.14336 11.94638,-11.41562 4.39082,-4.17622 7.58503,-7.53669 10.56696,-12.90571 0.70392,-1.26739 2.89724,-5.38258 2.80638,-7.34499 -0.0809,-1.74803 -0.75845,-3.41664 -1.13765,-5.12496 -0.95618,-2.54486 -1.28546,-2.9167 -3.82217,-4.15491 -7.561,-3.9119 -16.33945,-4.98371 -24.57628,-6.63838 -11.55094,-1.16115 -24.15328,-1.95735 -35.56965,0.73914 -0.84905,0.20054 -1.64796,0.57323 -2.47193,0.85985 0.61744,4.68483 0.20641,3.5669 2.74262,6.40463 3.32005,2.59639 4.95906,2.84568 9.03285,4.17506 4.74636,1.54885 4.80838,1.46636 9.36842,3.52221 1.6433,0.74085 3.25345,1.55309 4.88019,2.32964 6.26798,3.39306 12.37046,6.88735 18.1429,11.08892 0.91305,0.6646 1.55194,2.36134 2.65245,2.10782 0.86659,-0.19963 0.77472,-3.15391 -0.2472,-2.65641 -0.78164,-0.0291 -1.5325,-0.29618 -2.29444,-0.45095 -2.31172,-0.46957 -4.61664,-0.22576 -6.96603,-0.19202 -17.51894,0.44925 -35.00075,-0.17902 -52.50146,-1.03019 -4.4668,0.0533 -8.93514,0.0301 -13.40035,0.16 -15.83087,0.46071 -13.3594,0.76517 -29.39698,1.63008 -14.30107,0.77125 -16.76339,0.6439 -31.08428,1.06963 -5.18594,0.15417 -10.37069,0.34632 -15.55605,0.51948 -29.06032,1.50306 -58.05522,4.43039 -87.17176,4.63914 -26.39767,-0.5102 -52.77147,-1.84627 -79.15484,-2.8275 -16.15702,-0.75568 -32.50843,-2.429 -48.45537,1.28029 0,0 1.15721,3.30317 1.15721,3.30317 z" />
    <path
       style="fill:#000000;stroke-width:0.264583"
       id="path85"
       d="m 684.43871,142.35705 c 0,7.46041 0,14.92082 0,22.38123 0,1.8597 -0.077,3.72099 0,5.57909 0.0913,2.20224 0.33639,4.39541 0.50459,6.59311 2.16617,18.64067 6.82839,36.85456 11.1352,55.08409 6.15661,22.73389 9.76206,46.02734 13.94936,69.17148 3.53208,17.7782 7.22233,35.55095 11.44715,53.18098 2.06443,8.61484 4.34882,17.17551 6.5083,25.76703 3.90538,20.0342 8.01708,40.0022 13.49311,59.67143 0.864,2.78646 1.72328,5.57437 2.59202,8.35938 0.71588,2.29499 1.41761,4.59462 2.16175,6.88062 1.4206,4.36398 3.09502,8.55816 3.9905,13.0656 0.58052,3.1745 0.68881,6.49301 1.70733,9.58072 0.52197,1.58242 1.16567,3.12222 1.72281,4.6926 0.27873,0.78568 -0.59169,-1.55879 -0.88752,-2.33818 0.28453,1.25085 -1.21828,1.07752 -2.04134,0.9783 -3.74084,-1.84639 -6.94135,-4.66299 -10.24351,-7.17412 -1.38784,-1.13581 -2.79273,-2.25113 -4.16356,-3.40741 -3.81645,-3.21911 -5.545,-4.68419 -8.9395,-8.36473 -3.24019,-3.51324 -6.19162,-7.35039 -9.23748,-11.03302 -3.67231,-5.06539 -6.35447,-10.7506 -9.84829,-15.92987 -0.10472,-0.49591 -2.07362,-4.47487 -1.75729,-1.43806 1.63235,6.43935 3.89089,12.72762 7.20053,18.50718 2.67076,4.66391 4.35975,6.84157 7.47321,11.27096 4.11038,5.89065 8.27712,11.9259 14.21281,16.11545 3.18902,1.78665 6.59538,2.92089 10.15746,1.24597 1.15337,-0.54231 2.15606,-1.35977 3.23408,-2.03964 1.32059,-1.4215 2.76056,-2.74077 3.96177,-4.26448 8.93183,-11.32988 14.17883,-25.08519 19.48722,-38.32997 5.20986,-12.83555 8.20447,-26.37134 10.70766,-39.9478 0,0 -1.53204,-3.14687 -1.53204,-3.14687 v 0 c -2.48235,13.56428 -5.45682,27.09092 -10.64469,39.9179 -5.29214,13.22699 -10.51401,26.92508 -19.37049,38.27856 -1.17652,1.50821 -2.58493,2.82028 -3.87739,4.23043 -1.04577,0.66788 -2.01594,1.47238 -3.13732,2.00363 -3.46769,1.64291 -6.79009,0.44027 -9.85899,-1.33718 -5.85695,-4.25606 -9.99892,-10.26689 -14.09779,-16.14299 -5.05103,-7.22625 -10.30166,-14.53192 -12.29323,-23.2601 -0.0217,-0.18958 0.0385,-1.46453 -0.5597,-0.82775 -0.0796,0.0847 0.12557,0.1956 0.19193,0.29099 0.5012,0.72032 0.84061,1.51513 1.25251,2.29242 3.45435,5.20878 6.16794,10.88123 9.88298,15.92207 3.04977,3.68621 6.01054,7.52094 9.26854,11.02572 3.37442,3.62998 5.19234,5.17578 8.97469,8.3561 1.37449,1.1557 2.78355,2.26962 4.17531,3.40444 3.31576,2.52381 6.55934,5.47574 10.42723,7.12201 1.01717,0.0921 2.677,0.13528 2.67938,-1.25029 -1.46198,-4.1374 -1.61102,-4.22863 -2.5795,-11.91517 -0.84018,-4.53152 -2.52727,-8.71045 -3.95515,-13.0847 -0.74599,-2.28534 -1.44531,-4.58566 -2.16275,-6.8801 -0.87046,-2.78376 -1.734,-5.56963 -2.60099,-8.35448 -5.49706,-19.6628 -9.62573,-39.62736 -13.50105,-59.66711 -2.15871,-8.591 -4.4481,-17.14966 -6.51571,-25.76304 -4.23132,-17.62691 -7.91454,-35.40013 -11.46043,-53.17386 -4.19415,-23.1443 -7.77086,-46.44595 -13.93301,-69.18025 -4.31051,-18.22367 -8.96982,-36.43021 -11.1828,-55.0589 -0.17632,-2.19353 -0.43331,-4.38206 -0.52895,-6.58058 -0.0808,-1.85794 0,-3.71939 0,-5.57908 0,-7.46042 0,-14.92082 0,-22.38123 0,0 -1.58896,-3.11853 -1.58896,-3.11853 z" />
    <path
       style="fill:#000000;stroke-width:0.264583"
       id="path87"
       d="m 727.48679,501.44137 c -4.74721,1.05767 -9.47912,2.35596 -13.71613,4.81576 -0.89194,0.51782 -5.82946,4.02579 -6.47311,4.42 -1.5689,0.96081 -3.21427,1.7908 -4.82137,2.68621 -11.9882,5.01194 -24.51648,8.5793 -36.83934,12.66351 -9.98572,3.35023 -19.05686,8.80359 -28.51306,13.33929 -8.35581,4.0079 -8.80266,4.01801 -17.38562,7.44045 -2.85623,1.11112 -5.73127,2.17511 -8.56874,3.33333 -7.22132,2.94764 -9.71759,4.04106 -16.49537,7.74591 -6.70089,3.66281 -7.35044,4.67479 -14.37301,7.89564 -2.71026,1.24302 -5.52683,2.23973 -8.29022,3.3596 -2.90753,1.00013 -5.80908,2.01772 -8.72254,3.00035 -7.68723,2.59268 -9.6814,3.01633 -17.17881,6.07214 -9.05349,3.69003 -17.8176,8.08333 -26.60367,12.35524 -9.24013,5.36819 -19.66365,8.08705 -29.2803,12.59404 -5.56432,2.60778 -9.72572,5.22227 -15.00066,8.32855 -7.78492,5.42854 -16.68582,8.77496 -25.15341,12.91278 -6.48359,3.16831 -6.98436,3.60397 -13.00829,7.12473 -3.90774,2.34513 -7.37034,5.36194 -11.3601,7.57605 -1.48923,0.82645 -3.09269,1.36218 -4.69368,1.91529 -0.33951,0.0341 -1.33837,0.21982 -1.64277,-0.19801 -0.13568,-0.18627 -0.38344,-0.83175 -0.24781,-0.64543 1.57014,2.15702 1.00711,3.15378 0.99071,-1.65703 1.28561,-12.88608 6.39582,-24.99082 11.40137,-36.8082 3.16431,-5.95966 4.84584,-12.98977 8.20224,-18.83513 0.30615,-0.53319 1.58901,-2.17702 2.08955,-2.8275 1.38213,-1.43359 1.88018,-1.07576 -0.71753,-4.24005 -0.21664,-0.26389 -0.70053,0.0887 -0.98671,0.27496 -0.8382,0.54543 -1.55569,1.25703 -2.33357,1.88558 -6.75243,6.36158 -14.34825,11.75369 -21.20733,17.98629 -1.22936,1.11707 -5.83885,5.74149 -6.99511,6.89454 -3.48504,3.31679 -7.0277,6.5727 -10.45239,9.95251 -1.5159,1.49604 -2.92537,2.92693 -4.59592,4.23567 -1.87915,1.40633 -2.93428,3.46202 -3.40643,5.72055 0.23985,2.14863 -0.0871,4.56822 0.77555,6.60035 0.74951,1.76556 1.64385,3.46609 2.46578,5.19914 4.29797,4.11401 8.33239,8.80893 13.51476,11.8685 3.95121,2.33272 8.49095,3.86873 12.72715,5.51545 2.10909,0.71556 4.21819,1.43113 6.32729,2.14667 0,0 -0.97189,-3.36235 -0.97189,-3.36235 v 0 c -2.10415,-0.71697 -4.20828,-1.43394 -6.31243,-2.15093 -4.31715,-1.69008 -8.64166,-3.14447 -12.64063,-5.53884 -5.13215,-3.0729 -9.19284,-7.72872 -13.38807,-11.89856 -0.0143,0.43061 0.32141,1.52199 -0.0428,1.29181 -0.7847,-0.49597 -0.68117,-5.31519 -0.92215,-6.52463 0.34036,-2.20919 1.37477,-4.24069 3.17328,-5.61731 1.68931,-1.31094 3.10428,-2.7413 4.63121,-4.25001 3.42371,-3.38288 6.96717,-6.64011 10.45665,-9.95426 1.02251,-1.02031 5.87553,-5.88719 6.97109,-6.88472 6.85104,-6.23787 14.45675,-11.6151 21.20003,-17.98333 0.73199,-0.61119 1.40962,-1.29416 2.19604,-1.83354 0.22273,-0.15277 0.79174,0.0604 0.78274,-0.20955 -0.14144,-4.24362 -0.40595,-3.52507 -1.62928,-2.34013 -0.44291,0.57171 -1.93624,2.48399 -2.15434,2.8561 -1.16133,1.98143 -2.48116,5.44121 -3.29359,7.37491 -2.5496,6.06833 -2.23342,5.28617 -4.92585,11.46808 -5.03002,11.84277 -10.14534,23.96495 -11.52718,36.86913 -0.0196,2.81495 -0.65937,9.68541 3.67998,8.91016 1.62439,-0.56139 3.2525,-1.10569 4.76457,-1.94183 3.99161,-2.20729 7.4517,-5.22338 11.35364,-7.57357 6.00432,-3.51279 6.51179,-3.9529 12.97665,-7.11274 8.47754,-4.14358 17.39206,-7.48935 25.18611,-12.92516 5.23809,-3.08705 9.42943,-5.72042 14.95446,-8.31117 9.62215,-4.51191 20.05454,-7.22873 29.30038,-12.60149 8.77615,-4.2676 17.53023,-8.65751 26.57345,-12.34406 7.48528,-3.05141 9.49045,-3.47858 17.16921,-6.06864 2.91936,-0.98473 5.82679,-2.00454 8.74017,-3.00681 2.7736,-1.12365 5.60041,-2.12399 8.3208,-3.371 7.06763,-3.23977 7.63969,-4.21209 14.37233,-7.89538 6.76642,-3.70176 9.24763,-4.78859 16.46089,-7.73305 2.83837,-1.15864 5.71434,-2.2229 8.57152,-3.33436 8.59073,-3.42511 9.0519,-3.44075 17.41413,-7.45109 9.44116,-4.52774 18.49597,-9.97556 28.46502,-13.32153 12.34371,-4.09102 24.89279,-7.66512 36.90096,-12.68643 1.6175,-0.89943 3.27366,-1.73257 4.85251,-2.69828 0.008,-0.005 6.06644,-4.19168 6.42829,-4.40271 4.20701,-2.45375 8.91545,-3.7324 13.6326,-4.78547 0,0 -1.15194,-3.30499 -1.15194,-3.30499 z" />
    <path
       style="fill:#000000;stroke-width:0.264583"
       id="path89"
       d="m 365.19567,617.91066 c -3.32986,-4.47577 -6.66523,-8.99435 -10.60075,-12.96974 -3.01723,-3.04776 -4.19576,-3.6141 -7.31051,-6.48213 -1.22685,-1.12967 -2.37964,-2.3372 -3.56947,-3.50579 -3.99539,-4.96549 -7.75036,-10.1587 -12.06053,-14.86529 -6.3514,-6.9355 -2.89864,-2.51818 -9.45541,-9.14168 -1.65532,-1.67219 -3.17598,-3.47252 -4.76399,-5.20877 -13.31063,-16.73616 -29.34395,-31.03353 -44.62179,-45.9147 -7.35428,-8.09125 -15.06602,-15.85021 -22.47402,-23.89079 -6.10857,-6.6302 -12.05592,-13.35588 -18.32405,-19.83875 -12.15599,-12.95157 -24.55598,-25.69882 -36.35064,-38.98271 -6.45092,-6.96851 -10.26555,-15.77551 -15.82012,-23.37831 -0.98262,-1.34493 -2.07321,-2.60761 -3.10981,-3.91139 -0.88773,-1.00484 -1.76939,-2.01507 -2.66319,-3.01448 -2.08919,-2.33606 -4.0223,-4.68257 -5.77027,-7.293 -4.05392,-6.05417 0.60128,0.49678 -3.18807,-4.75806 -2.02481,-2.26078 -4.39313,-4.21338 -6.89825,-5.9155 -0.83414,-0.88897 -2.05588,-0.46191 -3.00167,0.0424 -0.9039,1.29654 -0.24787,3.81717 -0.20023,5.26436 0.10862,3.30007 0.0778,6.23319 0.0807,9.5758 -0.41425,11.67646 1.26145,23.26788 2.55661,34.83986 0.38472,4.22682 1.63079,8.35842 1.0003,12.6062 -0.0229,0.26469 -0.068,0.52838 -0.0687,0.79404 -2.2e-4,0.0857 0.0904,-0.16563 0.0673,-0.24815 -1.92153,-5.78247 -0.0269,0.22408 -1.34132,-4.75972 -1.81148,-6.86864 -2.12467,-7.58195 -4.30878,-14.5724 -4.43183,-13.82155 -8.31829,-27.78374 -11.15027,-42.02052 -0.73106,-6.56902 -3.59592,-12.68291 -4.17785,-19.2554 -0.0737,-0.11959 0.25116,-3.42376 0.43223,-3.49176 0.0886,-0.0333 0.16314,0.10692 0.25667,0.12118 0.4947,0.0754 0.9961,0.0972 1.49415,0.14574 11.31945,1.40242 22.52897,3.58267 33.84165,5.03033 10.75836,1.02444 21.41954,2.6611 32.22649,3.15371 0,0 -1.06622,-3.33365 -1.06622,-3.33365 v 0 c -10.7968,-0.50279 -21.45008,-2.13751 -32.19922,-3.1623 -11.31461,-1.45851 -22.52818,-3.63487 -33.85245,-5.02695 -0.17983,-0.0169 -1.75971,-0.25845 -2.23267,-0.0751 -0.15263,0.0591 -0.59532,3.41699 -0.51408,3.5329 0.45681,6.59691 3.43128,12.69489 4.14165,19.2745 2.81051,14.24487 6.68235,28.21371 11.11704,42.03851 0.79796,2.541 1.59592,5.08201 2.39388,7.62304 0.63901,2.31606 1.21789,4.64955 1.91702,6.9482 0.8816,2.89856 1.81682,5.7818 2.82389,8.6392 0.31041,0.88072 0.61026,1.78654 1.12519,2.56553 0.18245,0.27601 1.45176,-0.17814 0.61569,-0.77851 0.67728,-4.27027 -0.44024,-8.39266 -0.91795,-12.64796 -1.29479,-11.56607 -2.99714,-23.15151 -2.59115,-34.82202 2.6e-4,-3.2915 0.0308,-6.31986 -0.0648,-9.58398 -0.006,-0.22127 -0.41287,-4.07556 -0.34866,-4.63063 0.0196,-0.1692 0.1275,-0.31588 0.19124,-0.47384 0.92027,-0.52398 1.83464,-0.73231 2.63498,0.0748 2.4817,1.69458 4.80915,3.67144 6.77864,5.94437 1.70887,2.40506 3.2367,4.91601 4.99994,7.28358 2.18619,2.9355 1.5137,1.9717 3.99264,4.75967 0.889,0.99981 1.76356,2.0124 2.64534,3.01858 1.02771,1.3058 2.10794,2.57191 3.08313,3.91737 5.52794,7.62693 9.39073,16.41234 15.86637,23.36784 11.81081,13.2728 24.19746,26.03495 36.36474,38.97934 6.26007,6.4878 12.21038,13.21313 18.32011,19.8397 7.41258,8.03963 15.11388,15.81171 22.4884,23.88735 15.28106,14.87517 31.28091,29.19466 44.60266,45.91929 1.59702,1.73408 3.13118,3.52824 4.79107,5.20226 6.29288,6.34646 3.34368,2.49076 9.41438,9.15144 2.3323,2.55897 6.31463,7.59047 8.49167,10.31949 1.20428,1.5096 2.40075,3.02545 3.60111,4.53818 1.19698,1.16684 2.36017,2.3694 3.59095,3.50052 3.11976,2.86716 4.26247,3.43048 7.26766,6.49248 3.91327,3.98727 7.24313,8.50037 10.55788,12.97953 0,0 -0.75652,-3.41728 -0.75652,-3.41728 z" />
  </g>
</svg>
