<?xml version="1.0" encoding="UTF-8" standalone="no"?>
<!-- Created with Inkscape (http://www.inkscape.org/) -->

<svg
   width="1000mm"
   height="700mm"
   viewBox="0 0 1000 700"
   version="1.1"
   id="svg5"
   inkscape:version="1.2.2 (1:1.2.2+202212051552+b0a8486541)"
   sodipodi:docname="ink_img006.svg"
   xmlns:inkscape="http://www.inkscape.org/namespaces/inkscape"
   xmlns:sodipodi="http://sodipodi.sourceforge.net/DTD/sodipodi-0.dtd"
   xmlns="http://www.w3.org/2000/svg"
   xmlns:svg="http://www.w3.org/2000/svg">
  <sodipodi:namedview
     id="namedview7"
     pagecolor="#ffffff"
     bordercolor="#cccccc"
     borderopacity="1"
     inkscape:showpageshadow="0"
     inkscape:pageopacity="1"
     inkscape:pagecheckerboard="0"
     inkscape:deskcolor="#d1d1d1"
     inkscape:document-units="mm"
     showgrid="false"
     inkscape:zoom="0.4204826"
     inkscape:cx="1826.4727"
     inkscape:cy="1332.9921"
     inkscape:window-width="1440"
     inkscape:window-height="836"
     inkscape:window-x="0"
     inkscape:window-y="0"
     inkscape:window-maximized="1"
     inkscape:current-layer="layer1"
     inkscape:lockguides="false" />
  <defs
     id="defs2" />
  <g
     inkscape:label="Layer 1"
     inkscape:groupmode="layer"
     id="layer1">
    <path
       style="fill:#668000;stroke-width:0.264583"
       id="path71"
       d="m 279.90149,250.55078 c -2.54625,-1.28223 -5.29246,-2.30962 -8.19309,-2.04129 -0.76245,0.0705 -3.55579,0.67741 -4.18695,0.80891 -3.01584,0.67198 -5.92031,1.78477 -8.37602,3.71012 -2.46271,1.93083 -4.32117,4.50559 -6.1798,6.98176 -2.0227,2.78699 -3.89208,5.70798 -5.14311,8.93161 -0.22079,0.56891 -0.83871,2.55646 -1.06638,3.2793 -1.02899,3.47162 0.54527,7.29692 2.95591,9.89473 1.52959,1.09405 3.57411,1.92214 5.49959,1.62875 0.5252,-0.08 1.02447,-0.28184 1.53671,-0.42275 3.18481,-1.17348 6.20062,-2.83216 8.60023,-5.27008 0.56931,-0.57841 1.069,-1.22142 1.60349,-1.83214 2.99188,-4.02661 5.29211,-8.52286 7.2676,-13.12033 0.6314,-1.42808 1.13993,-2.9031 1.50862,-4.41923 0.0939,-0.38598 0.12274,-0.69475 0.32097,-1.02609 -1.33993,-2.24471 -2.32196,-5.36871 -2.23393,-3.2305 0.0655,1.59193 0.61489,2.98171 1.07302,4.49764 0.25355,0.839 0.48659,1.68406 0.7299,2.52608 1.55631,5.67474 3.75627,11.27118 7.05761,16.18047 0.52104,0.7748 1.10085,1.50844 1.65129,2.26266 0.53541,0.65736 1.07082,1.31472 1.6062,1.9721 0,0 -1.34495,-4.29432 -1.34495,-4.29432 v 0 c -0.52758,-0.65979 -1.05514,-1.31958 -1.58271,-1.97937 -0.53883,-0.75774 -1.10496,-1.49678 -1.61648,-2.27322 -0.43293,-0.65718 -0.4419,-1.87601 -1.21473,-2.02441 -0.6728,-0.12917 1.10342,2.49028 0.71218,1.92791 -0.508,-0.7302 -0.75319,-1.61337 -1.07127,-2.44406 -0.61817,-1.61425 -1.25552,-3.90888 -1.73998,-5.55781 -0.23889,-0.84492 -0.46193,-1.69449 -0.71667,-2.53476 -0.1701,-0.56105 -0.91374,-2.68345 -1.08469,-3.4155 -0.0758,-0.32455 -0.11777,-0.65803 -0.13306,-0.99096 -0.008,-0.17978 0.14031,-0.37374 0.0629,-0.53622 -0.66641,-1.39906 -1.50323,-2.71038 -2.25486,-4.06557 -0.51215,0.59167 -0.49355,1.32468 -0.69948,2.06112 -0.44183,1.57998 -0.57406,1.77705 -1.22465,3.43555 -1.93394,4.5728 -4.21722,9.03068 -7.14407,13.0538 -0.51843,0.60251 -1.00203,1.23685 -1.55529,1.80753 -2.33273,2.40617 -5.28811,4.03318 -8.40806,5.17898 -0.47526,0.12504 -0.93867,0.31001 -1.42577,0.37513 -1.82089,0.24341 -3.79131,-0.59365 -5.13276,-1.76216 -0.87039,-1.15567 -2.03244,-2.8226 0.74282,2.21375 0.1789,0.32464 -0.2082,-0.71271 -0.27772,-1.07683 -0.18475,-0.96761 -0.16915,-1.8996 0.16557,-2.83329 0.12722,-0.4069 0.96663,-3.0979 1.02609,-3.25657 1.20368,-3.21149 3.05158,-6.11336 5.0502,-8.88115 1.8148,-2.43843 3.62861,-5.00033 6.03607,-6.90916 2.40392,-1.90604 5.2634,-2.98436 8.22626,-3.64117 0.70072,-0.14495 3.26467,-0.70604 4.10221,-0.77279 2.8308,-0.2256 5.50127,0.85753 7.96491,2.12863 0,0 -1.49389,-4.2448 -1.49389,-4.2448 z" />
    <circle
       id="path73"
       style="fill:#668000;stroke:#000000;stroke-width:0.264583"
       cx="306.38202"
       cy="250.66011"
       r="0.09429121" />
    <circle
       id="path75"
       style="fill:#668000;stroke:#000000;stroke-width:0.264583"
       cx="307.23987"
       cy="267.05469"
       r="0.09429121" />
    <path
       style="fill:#668000;stroke-width:0.264583"
       id="path77"
       d="m 297.17058,245.45258 c 1.01171,3.22305 1.14204,4.08414 3.57327,7.72036 0.4558,0.68171 1.45384,0.64495 2.04629,0.29895 0.38857,-0.22693 0.4862,-0.58505 0.63812,-0.95136 0,0 -2.24401,-3.90057 -2.24401,-3.90057 v 0 c -0.0511,0.40146 -0.12009,1.0682 -0.77816,0.85621 -0.36272,-0.11685 -0.95121,-0.99069 -0.96698,-0.60993 -0.006,0.13716 2.1499,5.98599 0.14076,0.38704 0,0 -2.40929,-3.8007 -2.40929,-3.8007 z" />
    <path
       style="fill:#668000;stroke-width:0.264583"
       id="path79"
       d="m 306.57442,265.80703 c -0.28119,0.52461 -0.53914,1.06238 -0.84359,1.57385 -0.13383,0.22481 -0.27819,0.4501 -0.46824,0.62992 -0.0713,0.0675 0.0464,-0.36262 0.0965,-0.27821 1.64928,2.77545 2.2514,4.92646 1.72739,3.13973 0,0 -2.48309,-3.75291 -2.48309,-3.75291 v 0 c 2.10032,4.81399 1.89071,6.93386 4.15724,2.62086 0,0 -2.18623,-3.93324 -2.18623,-3.93324 z" />
    <path
       style="fill:#668000;stroke-width:0.264583"
       id="path119"
       d="m 363.01441,236.76953 c 10.354,-1.12436 20.73397,-0.12097 31.06026,0.75345 8.29953,0.60891 16.59962,1.2533 24.92486,1.25241 7.71295,-0.30695 15.41373,-0.0999 23.11329,0.38023 4.02172,0.24101 7.99965,0.97771 12.02976,1.09647 1.6143,0.0476 2.57055,-0.0213 4.14565,-0.0917 3.72692,-0.15304 7.45381,-0.0406 11.15419,-0.58076 1.05397,0.35957 2.81596,-1.13376 3.73589,-0.70948 0.0979,0.0471 0.28806,0.15943 0.40159,0.10372 1.91772,-0.94101 -1.6069,-4.68666 -2.91256,-5.84299 -2.7191,-1.70859 -4.51205,-4.41011 -6.9356,-6.45397 -0.28017,-0.2132 -0.5629,-0.42305 -0.84048,-0.6396 -0.45902,-0.35809 -0.49384,-0.45904 -0.98166,-0.68751 -0.44442,-0.20814 -0.71458,-0.28074 -1.05452,-0.64407 0.61502,1.23819 1.23008,2.47639 1.84513,3.71459 0.0312,0.0577 0.0304,0.15611 0.0938,0.173 0.52967,0.14111 1.08411,0.16735 1.61978,0.28351 1.001,0.21706 1.99486,0.46619 2.98826,0.71571 3.72113,0.93466 4.44508,1.16796 8.26601,2.24035 5.67462,1.82345 11.37187,3.547 17.10531,5.17273 0.47032,0.11647 0.94125,0.2305 1.41094,0.34942 0.32983,0.0835 0.65625,0.18064 0.98761,0.25786 0.14618,0.0341 0.31515,-0.002 0.44387,0.0757 0.0469,0.0282 -0.0444,0.1974 -0.0696,0.14876 -2.04343,-3.95831 -0.82849,-4.95211 -2.17562,-3.65309 -4.0731,2.27508 -8.13083,4.62029 -12.37588,6.5624 -0.51996,0.16852 -1.03389,0.357 -1.55991,0.50554 -0.79721,0.22512 -1.99331,0.41767 -2.77735,0.70903 -1.22174,0.45402 -1.76758,0.91342 -2.93881,1.53307 -0.65426,0.34615 -1.32604,0.65817 -1.98906,0.98725 -1.74588,0.68608 -3.41265,1.53867 -5.02896,2.48424 0,0 1.94003,4.06032 1.94003,4.06032 v 0 c 1.60552,-0.94367 3.26464,-1.78797 5.0006,-2.4708 0.67104,-0.33287 1.35104,-0.64823 2.01311,-0.99862 1.11297,-0.58901 1.67552,-1.05737 2.83575,-1.48555 0.68643,-0.25333 2.1118,-0.52128 2.79694,-0.71782 0.54173,-0.15539 1.071,-0.35127 1.60649,-0.5269 4.2885,-1.96263 8.38396,-4.33529 12.50429,-6.62466 4.43579,-3.95374 -2.81805,-5.04138 -4.23143,-5.39947 -5.73698,-1.615 -11.42225,-3.37954 -17.10629,-5.17237 -3.74023,-1.04516 -7.4907,-2.17079 -11.30247,-2.93729 -0.56422,-0.11346 -1.13329,-0.2421 -1.70881,-0.24717 -0.2885,-0.003 -0.91157,-0.0537 -0.83593,0.22472 0.4172,1.53584 1.37748,2.8695 2.06619,4.30426 0.95237,0.6636 2.0678,1.08294 2.87409,1.97204 2.36323,2.09822 4.24873,4.69902 6.91732,6.46 0.22135,0.22264 0.45196,0.43644 0.66405,0.66791 0.14941,0.16306 0.49601,0.72169 0.4192,0.51429 -0.47238,-1.27535 -1.20181,-2.45094 -1.61628,-3.74627 -0.0632,-0.19737 0.77742,0.0414 0.21532,-0.11086 -0.0698,-0.0189 -0.14013,-0.0358 -0.21016,-0.0536 -1.3311,-0.0949 -2.51743,0.91816 -3.88118,0.7691 -3.68802,0.51658 -7.40113,0.40335 -11.1131,0.5633 -1.5824,0.0652 -2.47886,0.12871 -4.10361,0.0743 -4.02828,-0.13498 -8.00651,-0.86523 -12.02828,-1.09707 -7.70845,-0.47208 -15.41743,-0.66948 -23.13874,-0.36978 -8.31344,-0.0113 -16.60231,-0.65581 -24.88996,-1.26669 -10.35008,-0.87456 -20.75386,-1.85504 -31.1304,-0.7244 0,0 1.75707,4.14279 1.75707,4.14279 z" />
    <path
       style="fill:#668000;stroke-width:0.264583"
       id="path121"
       d="m 487.37157,244.1213 c -0.90466,8.33317 -0.18926,16.71844 -0.41905,25.07414 -0.33163,6.98519 -0.73295,13.96717 -1.26341,20.94074 -0.89725,6.9973 -0.21788,14.04964 -0.49371,21.06718 -0.0461,1.1733 -0.15629,2.34318 -0.23442,3.51475 -0.59931,6.89727 -0.79039,13.8176 -1.25746,20.7223 -0.28895,4.46228 -1.25122,8.8474 -1.64436,13.29516 -0.004,2.00945 -0.48993,3.99851 -0.49985,6.00329 -0.0358,0.69283 -0.45522,0.71061 -1.02066,0.58467 -2.33174,-2.08063 -3.86937,-4.87442 -5.61009,-7.43791 -0.3969,-0.53237 -0.79378,-1.06476 -1.19065,-1.59713 -0.27602,-0.36026 -0.55629,-0.71726 -0.82799,-1.08075 -0.15796,-0.21129 -0.64802,-0.96173 -0.92371,-1.16937 -0.11282,-0.085 -0.71591,-0.31105 -0.88141,-0.3754 -1.88203,-1.28526 2.40332,-0.89508 1.34893,3.26483 -0.27774,1.09575 -1.06715,-2.20562 -2.10154,-2.66147 -0.71024,-0.313 0.60992,1.42748 0.918,2.13987 0.43596,1.00817 0.87609,2.01456 1.31413,3.02183 0.47221,1.03654 0.92038,2.08439 1.41664,3.10965 1.09836,2.26909 2.19289,4.54112 3.36663,6.77214 1.16192,2.20856 2.7554,4.23672 4.2503,6.2289 1.15358,0.93353 2.85316,2.04291 4.43783,1.87775 0.47294,-0.0493 0.92067,-0.23812 1.38102,-0.35719 4.70156,-2.19487 8.61168,-5.86274 11.57634,-10.09089 0.58975,-0.84111 1.08675,-1.7436 1.63015,-2.61543 1.4601,-2.78611 2.84358,-5.58549 4.80809,-8.05323 0,0 -2.08556,-3.98753 -2.08556,-3.98753 v 0 c -0.3747,0.45847 -0.78496,0.89 -1.12408,1.37538 -1.47058,2.10484 -2.47933,4.47545 -3.73383,6.7043 -0.52966,0.8645 -1.01248,1.75954 -1.589,2.59353 -2.8797,4.16568 -6.70169,7.7914 -11.30525,9.95974 -0.41061,0.0981 -0.81071,0.26458 -1.23185,0.29427 -1.50961,0.10646 -3.08523,-1.01987 -4.09215,-2.0002 -0.97938,-1.32469 -1.97178,-2.6561 -2.85869,-4.04503 -0.46149,-0.72268 -0.72454,-1.59409 -1.32839,-2.20287 -0.31541,-0.318 0.62902,1.67074 0.41195,1.27897 -0.55176,-0.99597 -0.94906,-2.06999 -1.42359,-3.10499 -0.91101,-2.09682 -3.65249,-9.01618 -5.12284,-9.98868 -0.38605,-0.25533 1.08064,4.2336 2.68516,4.71157 1.51521,0.75496 2.43548,3.14219 3.58449,4.30281 0.88567,1.30905 1.73302,2.64459 2.64994,3.93197 0.87243,1.22497 1.86639,2.75574 3.30625,3.38508 0.8345,0.0929 1.40468,-0.13409 1.7308,-0.94099 -0.15552,-1.92191 0.53205,-4.03093 0.4548,-5.97583 0.32424,-4.45418 1.36514,-8.83443 1.64877,-13.29782 0.4867,-6.90343 0.64746,-13.82543 1.2573,-20.7222 0.0849,-1.1757 0.20334,-2.34947 0.25477,-3.5271 0.30626,-7.01191 -0.4332,-14.0606 0.47069,-21.05322 0.53544,-6.97753 0.93713,-13.96285 1.28122,-20.95153 0.27117,-8.34493 -0.46995,-16.71479 0.36719,-25.04303 0,0 -2.28785,-3.87503 -2.28785,-3.87503 z" />
    <path
       style="fill:#668000;stroke-width:0.264583"
       id="path123"
       d="m 482.96554,357.86438 c -5.08026,-0.61092 -10.05755,-1.8015 -15.09244,-2.6643 -6.52978,-1.31784 -13.15932,-1.97808 -19.73334,-3.03218 -5.26214,-0.55708 -10.3514,-2.03044 -15.53051,-3.02514 -2.82022,-0.54166 -4.6723,-0.76533 -7.51536,-1.16462 -7.00056,-1.09921 -14.06636,-1.598 -21.12079,-2.19464 -4.95024,-0.35597 -9.85477,-1.12051 -14.77621,-1.73074 -2.08259,-0.17838 -4.13062,-0.6213 -6.22212,-0.70633 -1.18867,-0.0483 -2.37057,0.069 -3.55389,0.15536 -2.17789,-0.0151 -4.39835,0.16693 -6.55576,-0.17089 -0.23416,-0.0479 -0.46691,-0.10332 -0.7025,-0.1437 -2.3818,-0.40807 -0.55838,1.16586 1.06267,3.60937 0.0749,0.11295 0.0238,-0.27006 0.0358,-0.40508 1.00824,-3.526 3.3643,-6.58609 5.87057,-9.1902 2.18255,-1.92775 4.92009,-3.05284 7.60386,-4.10329 2.16434,-0.86606 2.19853,-1.16387 -1.18803,-4.36417 -0.32954,-0.31141 -0.84945,0.31737 -1.27416,0.47607 -0.72458,0.26167 -1.45825,0.49951 -2.17376,0.78504 -2.15506,0.86006 -4.26765,1.82312 -6.41125,2.71129 -2.94571,1.22055 -5.8102,2.41957 -8.63187,3.90417 -0.71599,0.40838 -1.41994,0.83862 -2.14797,1.22513 -1.61324,0.85643 -2.24658,1.12921 -3.91988,1.70156 -1.16462,0.39836 -2.31317,0.69876 -3.43271,1.21504 -0.22796,0.14717 -0.74853,0.35087 -0.56464,0.79333 0.71429,1.71887 1.55207,3.38728 2.44652,5.01965 0.29959,0.54673 0.76211,0.98727 1.12334,1.4954 1.55797,2.19136 1.36573,2.00147 2.76691,4.4478 1.87955,3.75886 3.84834,6.03388 7.71213,7.86855 0.8034,0.38151 1.66743,0.6195 2.50116,0.92925 0,0 -1.56938,-4.21746 -1.56938,-4.21746 v 0 c -0.8109,-0.31803 -1.65388,-0.56402 -2.43269,-0.95409 -3.76465,-1.88563 -5.62517,-4.26881 -7.49032,-7.94062 -1.63777,-2.78331 -1.0641,-1.94062 -2.81316,-4.43384 -0.35528,-0.50644 -1.16165,-2.12143 -1.08193,-1.50794 0.14292,1.09996 0.93347,2.01748 1.28487,3.06954 0.0446,0.13364 -0.3474,-0.10694 -0.34245,-0.24773 0.005,-0.14457 0.23981,-0.16177 0.35972,-0.24265 1.10784,-0.51096 2.24997,-0.80431 3.40186,-1.20084 2.15408,-0.74149 4.18721,-1.74357 6.12007,-2.95092 2.80919,-1.47997 5.66272,-2.67192 8.59624,-3.88752 2.13656,-0.88535 4.24241,-1.84497 6.39056,-2.70182 0.71726,-0.2861 1.45251,-0.52488 2.17874,-0.78732 0.43875,-0.16518 1.3109,-0.0268 1.31624,-0.49554 0.0699,-6.12476 -0.49196,-4.63185 -2.60035,-3.79958 -2.7423,1.07686 -5.53392,2.23195 -7.77674,4.18711 -2.60564,2.66655 -4.91834,5.7617 -6.12518,9.33098 -0.76692,4.84087 1.13985,4.56692 3.57127,4.98624 2.19604,0.27844 4.43486,0.15811 6.64429,0.13459 3.33423,-0.23916 6.38292,0.0527 9.69434,0.58454 4.92596,0.61662 9.83736,1.36851 14.79282,1.72408 7.04723,0.59383 14.10425,1.10615 21.09732,2.20403 2.92323,0.41561 4.58663,0.61458 7.4853,1.17647 5.18412,1.00492 10.2864,2.4474 15.55306,3.01628 6.5731,1.046 13.19977,1.71736 19.72783,3.03435 5.03672,0.88111 10.0239,2.04427 15.10819,2.65808 0,0 -1.66627,-4.18015 -1.66627,-4.18015 z" />
    <path
       style="fill:#668000;stroke-width:0.264583"
       id="path125"
       d="m 356.16377,343.89785 c 0.14195,-8.25993 0.20524,-16.53517 0.73821,-24.78188 0.64085,-9.64663 1.84513,-19.23961 2.96117,-28.83906 0.78764,-6.05875 1.28667,-12.16551 2.27721,-18.19778 0.39751,-2.42067 0.89014,-4.54787 1.40939,-6.93388 1.02555,-3.88865 1.64668,-7.88514 1.5717,-11.91011 -0.15846,-3.52344 0.10795,-2.0598 -2.62149,-6.25916 -2.49841,1.89611 -4.44844,4.40331 -6.32881,6.88909 -1.49902,1.99313 -2.90436,4.03769 -4.30861,6.09422 -1.11019,1.93024 -1.53029,2.02799 1.60012,4.75599 0.33809,0.29464 0.1654,-0.88382 0.30168,-1.31105 0.26551,-0.83229 0.60103,-1.64059 0.90157,-2.46089 1.06066,-2.60439 2.01583,-5.26518 3.28724,-7.77907 0.60304,-1.19236 1.35792,-2.29826 2.09256,-3.4106 0.55859,-0.80556 1.08892,-1.62752 1.60782,-2.45852 0.084,-0.13453 0.16589,-0.27078 0.25932,-0.39895 0.0483,-0.0663 0.23124,-0.23079 0.1647,-0.18281 -0.11919,0.086 -0.21648,0.19881 -0.32472,0.29821 0.73064,1.42989 1.63846,2.71518 2.28489,4.20485 0.10258,0.23639 -0.53094,-0.86519 -0.46805,-0.6153 0.36319,1.44268 0.92104,2.82926 1.38155,4.24388 0.41529,1.70841 0.83055,3.41682 1.24584,5.12522 1.32649,6.76271 2.66531,13.52295 4.00727,20.2826 0,0 2.42599,3.79005 2.42599,3.79005 v 0 c -1.34289,-6.76166 -2.69441,-13.52169 -3.99235,-20.29218 -0.40581,-1.71457 -0.75337,-3.44398 -1.21742,-5.14372 -1.53194,-5.61123 -4.06419,-10.87444 -6.91894,-15.91795 -0.15531,0.005 -0.31866,-0.0353 -0.46593,0.0143 -0.56189,0.18888 -1.57837,2.67245 -2.11293,3.08261 -0.74634,1.1245 -1.53147,2.24052 -2.15112,3.4425 -1.2954,2.51266 -2.24332,5.18857 -3.31864,7.79663 -0.31367,0.82781 -0.65016,1.64733 -0.94099,2.48343 -0.15619,0.44896 -0.55065,0.9185 -0.39915,1.36905 1.95244,5.80596 1.7255,5.17249 2.86919,3.05136 1.37732,-2.06663 2.81239,-4.07991 4.28808,-6.08333 1.82695,-2.44015 3.72816,-4.8362 6.09338,-6.77358 -2.21824,-5.49845 -1.72617,-4.95338 -1.60383,-1.66725 0.1455,4.00161 -0.45108,7.98876 -1.47793,11.85386 -0.49118,2.23049 -1.06381,4.70658 -1.43883,6.95123 -1.00777,6.03152 -1.49199,12.14371 -2.28645,18.20328 -1.11586,9.60395 -2.32966,19.2002 -2.98035,28.85056 -0.27538,4.07686 -0.37714,8.12477 -0.47252,12.20893 -0.07,2.99821 -0.23519,5.99387 -0.29107,8.99237 -0.0222,1.19846 0,2.39734 0,3.59601 0,0 2.35125,3.83688 2.35125,3.83688 z" />
    <path
       style="fill:#668000;stroke-width:0.264583"
       id="path127"
       d="m 260.28646,427.22596 c 0.69027,4.50257 1.4754,8.99313 2.42069,13.44977 0.72559,3.42083 1.16145,4.59537 1.64708,7.90882 0.14365,0.98012 0.20145,1.97091 0.30218,2.95638 0.32353,3.36536 -0.10092,6.73031 -0.0909,10.09719 0.0487,2.05732 0.0872,2.7904 2.40014,4.83705 0.33716,0.29835 0.14777,-0.88849 0.23924,-1.32934 0.17637,-0.85019 0.37608,-1.69535 0.56412,-2.54302 0.32972,-1.19576 0.64135,-2.39662 0.98917,-3.58722 1.41012,-4.82658 2.96736,-10.74989 5.50534,-15.09405 0.41778,-0.71507 0.95626,-1.3524 1.43439,-2.02862 0.80674,-0.92398 3.01027,-3.34176 4.38973,-3.46051 0.46908,-0.0404 1.44076,0.52726 1.75625,0.68371 2.76569,2.00308 4.391,5.23272 5.75932,8.28442 0.18751,0.41818 -0.75496,-1.63634 -0.70414,-1.18089 0.0978,0.87636 0.56785,1.66966 0.8518,2.50447 1.01965,3.50205 1.32869,6.93915 0.49149,10.49676 -0.46286,1.94839 -1.49251,2.53389 -3.26117,3.12674 -3.21488,0.87792 -6.66803,0.18862 -9.80038,-0.69749 -2.17784,-0.63294 -4.11081,-1.93715 -6.31529,-2.48108 -0.60846,-0.15015 -1.93103,-0.32882 -2.56852,-0.4219 -0.71699,-0.17868 -1.4246,-0.31391 -2.1616,-0.30946 0,0 1.71395,4.16081 1.71395,4.16081 v 0 c 0.71427,0.0347 1.40764,0.18579 2.10772,0.33126 0.74962,0.1152 1.77009,0.25178 2.4995,0.44863 2.19265,0.59179 4.13842,1.87795 6.33396,2.47398 3.22681,0.86492 6.75765,1.53014 10.04769,0.59423 1.83467,-0.6286 3.13835,-1.30551 3.6608,-3.33245 0.9716,-3.68142 0.69736,-6.96275 -0.27453,-10.63088 -1.46042,-4.45736 -0.8849,-2.98662 -3.87805,-9.40369 -1.43447,-3.07539 -3.10616,-6.31976 -6.04737,-8.18999 -0.69004,-0.28192 -1.31001,-0.65688 -2.09537,-0.54383 -1.55144,0.22334 -3.66093,2.5155 -4.61415,3.57164 -0.49861,0.68728 -1.06003,1.33313 -1.49585,2.06182 -2.59699,4.34218 -4.14983,10.28999 -5.58181,15.13713 -0.353,1.19488 -0.67296,2.39929 -1.00946,3.59894 -0.18994,0.84881 -0.37711,1.69823 -0.56989,2.5464 -0.10461,0.46035 -0.48844,0.93724 -0.32226,1.37914 2.80162,7.45035 2.39043,4.78153 2.31061,2.83163 -0.0629,-3.37468 0.42381,-6.74315 0.12358,-10.11746 -0.0903,-0.99208 -0.13432,-1.98943 -0.27082,-2.97622 -0.47382,-3.42535 -0.88017,-4.36697 -1.64045,-7.91305 -0.95451,-4.45201 -1.74464,-8.93956 -2.43746,-13.43906 0,0 -2.40929,-3.80071 -2.40929,-3.80071 z" />
    <path
       style="fill:#668000;stroke-width:0.264583"
       id="path129"
       d="m 308.19643,421.4619 c 0.0937,1.19949 0.17235,2.40025 0.28112,3.59847 0.13165,1.45018 0.94937,11.92556 3.47109,11.56655 -3.01593,-6.60342 -2.12156,-4.38049 0.16169,-0.39161 0.0494,0.0864 -0.0661,-0.19029 -0.0725,-0.28961 -0.0127,-0.19889 0.095,-0.5955 0.005,-0.78994 -0.67861,-1.46966 -1.44719,-2.89608 -2.1708,-4.34414 -0.38524,-0.26924 -0.71705,-0.50057 -1.16959,-0.62344 0,0 1.57196,4.21651 1.57196,4.21651 v 0 c 0.35436,0.18362 0.6812,0.40079 0.95417,0.6976 -0.54607,-1.23982 -1.1026,-2.47513 -1.63825,-3.71949 -0.0477,-0.11083 0.15629,0.19817 0.17386,0.31755 0.0394,0.26758 -0.27294,0.55105 -0.15793,0.79584 4.21458,8.97038 1.51853,2.23473 0.67876,-0.0506 0.70967,-1.23568 -0.16123,0.23249 1.64042,3.56772 0.21569,0.39931 -0.25522,-0.87254 -0.33877,-1.3186 -0.58132,-3.10327 -0.74308,-6.27145 -1.01698,-9.40972 0,0 -2.37355,-3.82313 -2.37355,-3.82313 z" />
    <path
       style="fill:#668000;stroke-width:0.264583"
       id="path131"
       d="m 308.92284,464.30951 c 0.01,2.70547 0.54213,5.42269 0.3075,8.12969 -0.007,0.0606 -0.014,0.12118 -0.0212,0.18174 0,0 2.31323,3.85993 2.31323,3.85993 v 0 c 0.005,-0.0592 0.01,-0.11848 0.0145,-0.17772 0.3932,-2.70052 -0.26107,-5.45314 -0.26276,-8.15676 0,0 -2.35124,-3.83688 -2.35124,-3.83688 z" />
    <path
       style="fill:#668000;stroke-width:0.264583"
       id="path133"
       d="m 368.15101,496.05898 c 0.89416,-6.99135 1.93011,-13.98596 3.41654,-20.87991 0.71416,-3.31219 1.3114,-5.32247 2.20009,-8.56581 3.21939,-11.29776 5.27798,-22.87987 7.80203,-34.34191 1.49683,-6.19842 3.77425,-12.15887 5.81501,-18.18672 -0.058,-0.0865 1.00761,-3.71382 0.93179,-3.84916 -0.74007,-1.32072 -1.55194,-2.5999 -2.32791,-3.89987 -0.71065,0.18542 -1.3629,0.27363 -1.97993,0.70318 -0.62133,0.75964 -1.32451,1.32625 -2.18062,1.80279 -0.93197,0.61505 -1.84756,1.2233 -2.85472,1.70968 -0.71684,0.22522 -1.19412,0.66763 -1.67918,1.19841 -0.0396,0.0433 -0.16669,0.16105 -0.13719,0.11033 0.0602,-0.10356 0.15497,-0.18275 0.23247,-0.27411 0.61097,1.23738 1.12823,2.52563 1.83292,3.71216 0.0964,0.16237 0.0225,-0.37703 0.036,-0.56539 0.0397,-0.55306 0.0289,-1.10979 0.0879,-1.66113 0.21092,-1.97335 0.37131,-2.18999 0.93927,-4.34028 0.7207,-2.46467 1.84354,-4.7565 3.28245,-6.87541 0.69656,-1.02579 1.46364,-1.98906 2.13484,-3.03387 0.40119,-0.53396 0.62801,-1.17536 1.0152,-1.7172 0.057,-0.0797 0.27007,-0.28318 0.1954,-0.21968 -1.24987,1.06246 1.11061,2.8512 -2.09762,-3.45319 -0.0507,0.5202 -0.10181,0.61704 0.0978,1.20851 0.13856,0.41056 1.13903,2.53828 1.241,2.7726 1.05137,2.41559 0.89403,2.14757 1.83615,4.87302 0.87845,2.45932 1.83886,4.88516 2.88195,7.27852 0,0 2.50862,3.73589 2.50862,3.73589 v 0 c -1.06413,-2.38178 -2.0229,-4.80459 -2.91473,-7.25672 -0.87931,-2.62398 -0.79184,-2.56194 -1.79774,-4.89863 -0.24071,-0.5592 -1.48288,-2.82099 -1.59911,-3.39638 -0.0317,-0.157 0.0571,-0.3152 0.0857,-0.47281 -2.17448,-5.18747 -1.61922,-5.72823 -3.58309,-2.41763 -0.66249,1.05574 -1.42373,2.01015 -2.13305,3.03289 -1.48145,2.13606 -2.65411,4.44447 -3.40267,6.94235 -0.51276,1.84769 -0.97441,3.45901 -1.04714,5.36009 -0.009,0.22744 -0.0269,0.4545 -0.0476,0.68114 -0.018,0.19543 -0.13295,0.3996 -0.068,0.58476 0.52898,1.50757 1.21857,2.95386 1.82785,4.43079 0.14343,0.005 0.29056,0.046 0.43024,0.0132 0.19701,-0.0462 1.40975,-1.59692 1.74866,-1.27638 1.01539,-0.48998 1.94513,-1.08997 2.87758,-1.72048 0.8696,-0.47963 1.64859,-1.00888 2.2326,-1.82787 0.54044,-0.42812 1.18693,-0.41833 1.82195,-0.62942 -4.8818,-10.13579 -1.61562,-4.79044 -1.87912,-3.59566 -0.24464,1.10922 -0.5016,2.21695 -0.77446,3.31989 -2.01909,6.04716 -4.35055,12.00166 -5.85674,18.21074 -2.53545,11.45408 -4.57139,23.03576 -7.78206,34.33032 -0.87077,3.15005 -1.52958,5.37038 -2.22977,8.58308 -1.50326,6.89759 -2.5386,13.901 -3.44604,20.89738 0,0 2.30653,3.86392 2.30653,3.86392 z" />
    <path
       style="fill:#668000;stroke-width:0.264583"
       id="path135"
       d="m 397.84562,400.29918 c 5.17602,0.77613 10.37638,1.40798 15.5094,2.44575 1.75715,0.35529 6.46554,1.44021 8.21007,1.83799 8.12231,1.70703 16.38131,2.61561 24.51169,4.26783 5.61591,1.47069 11.33657,2.46354 16.98302,3.80037 2.5709,0.62481 5.25333,0.60412 7.83212,1.17216 1.09519,0.32813 0.58007,0.20179 1.54014,0.39981 0.61065,0.0132 1.12892,-0.18952 1.73603,-0.14491 -0.0364,0.0214 -0.0935,0.10334 -0.109,0.0642 -0.59688,-1.50241 -1.0485,-3.06113 -1.67386,-4.55189 -0.1165,-0.27768 -0.35732,-0.48483 -0.5396,-0.72454 -1.38358,-1.81949 -2.88951,-3.38174 -4.54279,-4.96091 -1.42935,-1.17247 -1.8955,-1.6351 -3.35991,-2.57678 -0.61863,-0.3978 -1.47334,-0.69228 -1.9907,-1.24431 0.0683,0.0901 -0.45998,-0.70918 -0.37415,-0.51509 0.59161,1.33808 1.07569,2.74003 1.85724,3.97682 0.14439,0.22852 0.52343,0.13513 0.78476,0.20418 2.6829,0.70879 1.34731,0.31827 4.42063,1.36708 3.25448,1.36427 6.68568,2.38204 9.79726,4.0722 0.97596,0.53012 1.8996,1.15163 2.85985,1.70974 0.43715,0.2685 1.16115,0.69249 1.58716,1.02375 0.44558,0.34647 0.39274,0.78991 0.90416,0.89366 0.45995,1.61896 -0.50689,-1.81872 -1.83896,-3.73304 -0.13571,-0.19502 -0.26953,0.39254 -0.42514,0.57209 -0.35358,0.40796 -0.71657,0.80875 -1.1005,1.18829 -1.56171,1.5439 -1.56816,1.4546 -3.32423,2.76818 -2.34384,1.38798 -4.19682,3.40556 -6.34947,5.0433 -1.58779,1.20798 -1.57313,1.13668 -3.17558,2.05494 -0.88591,0.32562 -1.60121,0.89771 -2.31682,1.48775 0,0 2.00662,4.02783 2.00662,4.02783 v 0 c 0.69226,-0.58393 1.37298,-1.14397 2.24581,-1.45314 1.63534,-0.93324 1.6269,-0.86421 3.24146,-2.08698 2.15197,-1.62978 3.99029,-3.65432 6.33257,-5.03497 1.81303,-1.34546 1.78308,-1.22774 3.3963,-2.8044 1.66465,-1.62689 4.02571,-3.9135 -0.20683,-6.26723 -0.4713,-0.95671 -1.6719,-1.33739 -2.47684,-1.92257 -0.96496,-0.56457 -1.90315,-1.17708 -2.89224,-1.69815 -3.14405,-1.65632 -6.5713,-2.71106 -9.85068,-4.05247 -1.29553,-0.43076 -3.09769,-1.10537 -4.5081,-1.33307 -0.38717,-0.0625 -1.21073,-0.4158 -1.17629,-0.0251 0.15328,1.73874 0.72187,3.61368 2.01182,4.80322 1.82382,1.20949 3.78396,2.21914 5.31857,3.83167 1.90863,1.86828 1.84677,1.70487 3.48184,3.68282 0.34801,0.42097 0.66315,0.86809 1.00097,1.29727 0.18931,0.24051 0.63233,1.01328 0.58026,0.71165 -0.7148,-4.1398 0.19052,-4.2832 -1.29675,-3.962 -0.57441,-0.0167 -1.09448,0.18823 -1.66738,0.11753 -0.52287,-0.1202 -1.03547,-0.28432 -1.56112,-0.39158 -2.57852,-0.52626 -5.2397,-0.56433 -7.80389,-1.18322 -5.65195,-1.32977 -11.37412,-2.33553 -16.9967,-3.79503 -8.13125,-1.62986 -16.3845,-2.55397 -24.50131,-4.27188 -1.95818,-0.44543 -6.25727,-1.43679 -8.22751,-1.83115 -5.13691,-1.02825 -10.3395,-1.6573 -15.51617,-2.44311 0,0 1.65277,4.18549 1.65277,4.18549 z" />
    <path
       style="fill:#668000;stroke-width:0.264583"
       id="path137"
       d="m 470.96283,428.53408 c -2.12673,1.35692 -4.40669,2.48486 -6.50751,3.88356 -3.03805,2.02261 0.0595,0.18521 -3.28229,2.56651 -0.86926,0.61944 -1.79559,1.15461 -2.69338,1.73191 -3.41738,1.82102 -6.78354,3.73835 -9.82988,6.14505 -1.40123,1.10705 -5.0786,4.41492 -6.41831,5.50101 -1.07302,0.86987 -2.19927,1.67195 -3.29888,2.50793 -5.82935,4.06649 -11.94861,7.69829 -17.65104,11.94464 -3.00358,2.44734 -6.75127,3.49329 -10.21448,5.06264 -1.81872,0.82415 -2.25586,1.16383 -3.9025,2.18305 -0.58243,0.43212 -1.17409,0.85207 -1.74728,1.29641 -0.67416,0.52258 -1.30744,1.0976 -1.99403,1.60372 -2.42052,1.7843 -5.02732,3.20167 -7.70938,4.53866 -2.85067,1.35361 -5.58236,2.93333 -8.39885,4.35822 -1.52956,0.93051 -3.28179,1.55863 -4.68067,2.70375 -0.33922,0.27771 -0.63793,0.60171 -0.96628,0.89217 -0.13639,0.11018 -1.69963,0.89088 -1.72553,0.85122 -0.058,-0.0887 0.13943,-0.34404 0.19298,-0.2526 0.70435,1.20243 1.23595,2.49801 1.85394,3.74703 0.28175,-0.78753 0.23212,-1.5644 0.19293,-2.38014 -0.0549,-1.01235 -0.0668,-1.93378 0.34542,-2.86718 1.15106,-1.79533 2.41448,-3.51494 3.58132,-5.30132 0.86926,-1.0813 1.70653,-2.18909 2.58553,-3.26142 -0.0654,-0.18126 0.52628,-0.2246 0.43447,-0.39827 -0.68008,-1.28625 -1.38506,-2.58083 -2.3119,-3.70237 -0.12319,-0.14907 -0.26614,0.28069 -0.40211,0.41823 -0.63368,0.64108 -1.27805,1.27153 -1.91723,1.90714 -1.47105,2.05973 -3.99272,2.99603 -5.49923,4.97454 -0.91578,1.47227 -2.13569,2.69927 -3.19614,4.05574 -0.53443,0.49025 -0.31358,1.01179 -0.2364,1.63155 0.0709,3.20871 1.91349,6.36466 4.10344,8.6658 0.61606,0.64733 1.31086,1.21488 1.96628,1.82234 3.85405,3.00649 8.16719,5.28973 12.52043,7.46808 0,0 -1.52651,-4.23318 -1.52651,-4.23318 v 0 c -4.31814,-2.1835 -8.61177,-4.45836 -12.39605,-7.51091 -0.63405,-0.61426 -1.31191,-1.18634 -1.90217,-1.84282 -0.46336,-0.51531 -1.18412,-2.35181 -1.24915,-1.66188 -0.0913,0.96843 0.76409,1.78914 1.15311,2.68068 0.11797,0.2704 -0.26668,-0.53139 -0.34002,-0.81714 -0.014,-0.0546 0.0338,-0.63743 0.0421,-0.74652 0.003,-0.24516 0.0185,-0.39296 -0.031,-0.63466 -0.0269,-0.1307 -0.28281,-0.46974 -0.21703,-0.60362 0.046,-0.0936 0.13808,-0.15644 0.20714,-0.23466 1.04624,-1.37284 2.29947,-2.5791 3.20937,-4.06273 0.73292,-1.08391 1.73072,-1.57583 2.73415,-2.38574 0.43894,-0.35428 0.8569,-0.73451 1.26664,-1.12226 0.49054,-0.46424 0.95528,-0.95501 1.43293,-1.43253 0.64082,-0.63725 1.28463,-1.27146 1.92373,-1.91043 1.4891,-1.48876 0.69363,-0.61582 -1.3476,-4.74718 -0.003,-0.007 -0.48882,0.42347 -0.49567,0.4295 -0.92882,1.04894 -1.70622,2.23671 -2.63694,3.28856 -1.17195,1.80377 -2.4233,3.55058 -3.63207,5.32892 -0.62061,1.19425 -0.5647,1.65626 -0.53377,2.97733 0.019,0.79195 0.2015,1.56668 -0.10716,2.32844 1.77993,4.58965 0.85934,5.38347 3.97396,3.55756 0.32113,-0.27784 0.60339,-0.59889 0.92763,-0.87305 1.36269,-1.15212 3.1206,-1.74098 4.61801,-2.67369 2.81591,-1.42425 5.54694,-3.00313 8.39642,-4.35708 2.70997,-1.35049 5.34998,-2.77979 7.79682,-4.58086 0.68244,-0.50234 1.31014,-1.07538 1.97864,-1.59613 0.56226,-0.43802 1.14199,-0.85317 1.71299,-1.27974 1.61869,-1.00647 2.04293,-1.33932 3.83439,-2.15098 3.49756,-1.58464 7.28023,-2.6462 10.31714,-5.11151 5.6987,-4.25373 11.82209,-7.88223 17.65459,-11.94636 1.10789,-0.84011 2.24306,-1.64539 3.32369,-2.52026 0.73012,-0.59108 5.55744,-4.82796 6.38532,-5.48468 3.03512,-2.40761 6.39464,-4.31938 9.80615,-6.13352 0.91353,-0.58499 1.85656,-1.12631 2.74055,-1.75501 3.36408,-2.39255 0.20014,-0.51808 3.22395,-2.53804 2.09698,-1.40084 4.3792,-2.52264 6.50246,-3.88115 0,0 -1.94011,-4.06027 -1.94011,-4.06027 z" />
    <path
       style="fill:#668000;stroke-width:0.264583"
       id="path139"
       d="m 465.79461,479.09691 c -0.49392,2.96225 -1.24806,5.87783 -0.068,8.74199 0.11903,0.26366 0.23479,0.52877 0.35708,0.79092 6.02427,12.91659 1.3826,2.88555 1.05579,2.2992 -0.26937,-0.48328 0.40563,1.03013 0.63571,1.53332 2.55689,5.59178 1.69672,4.00653 3.53883,7.17902 1.20817,1.60334 1.7062,3.67292 2.93474,5.25669 0.58004,0.74776 1.44735,1.47502 2.13569,2.10065 2.32399,2.10813 5.20821,3.28293 8.17467,4.16119 3.29835,0.81092 6.70007,0.53633 10.05678,0.42738 3.3532,-0.18225 4.54856,-1.08665 6.75288,-3.40799 1.60968,-1.74697 2.80326,-3.80929 4.02683,-5.82917 1.03312,-1.70551 1.38327,-2.17096 2.15665,-4.01355 0.30572,-0.72834 0.54475,-1.48293 0.81713,-2.22437 1.03574,-3.66766 2.17631,-7.32589 2.8306,-11.08827 0.36703,-2.11042 0.44587,-3.38084 0.64153,-5.48182 0.15499,-2.16218 0.49364,-4.37621 0.0742,-6.53121 -0.16184,-0.83154 -0.43754,-1.67913 -0.6803,-2.48883 -1.02396,-2.54569 -1.06177,-2.74215 -3.11213,-6.33749 -0.24122,-0.42296 -0.63725,-0.73676 -0.94094,-1.11739 -0.94001,-1.17816 -1.80787,-2.41287 -2.65578,-3.65786 -0.9022,-1.5585 -2.56831,-2.4687 -4.0382,-3.44088 -1.83097,-1.45458 -4.17301,-1.49611 -6.35416,-2.01385 -1.20123,-0.64156 -2.31711,-0.346 -3.57417,-0.26654 -1.02791,-0.0606 -1.396,-0.1106 -2.3386,0.43849 -1.14882,0.74782 -2.37443,1.37001 -3.65416,1.8578 -0.28885,0.14383 -0.59463,0.25776 -0.86651,0.43148 -0.57346,0.36642 -1.38549,1.10792 -1.90402,1.53885 -0.90115,0.74887 -1.71948,1.43517 -2.48722,2.3241 -1.36991,1.62644 -2.41006,3.48884 -3.56402,5.26655 -1.44187,2.00933 -2.2996,4.34536 -3.46308,6.51076 -0.53041,0.59034 -0.81396,2.54188 -1.54902,2.85893 -0.0323,-0.0924 -0.0561,-0.1883 -0.097,-0.27723 -0.15875,-0.34496 -0.65318,-1.37117 -0.48141,-1.03251 1.79546,3.53976 1.90738,4.35078 1.28759,2.26367 -0.0965,-0.32501 -0.18811,-0.65143 -0.28217,-0.97716 -0.4793,-1.72675 -1.27183,-3.34039 -1.34171,-5.1481 -0.0169,-0.66784 0.22024,-1.30188 0.15738,-1.96432 -0.0923,-1.88648 -0.19593,-1.25495 -2.36813,-4.20357 -0.1728,-0.23455 0.005,0.58269 0.005,0.87403 -0.0169,1.3952 -0.0257,2.78164 0.11774,4.17036 0.3487,2.34847 0.22934,4.72109 0.1551,7.08268 -0.013,0.77756 0.0183,1.5548 0.0164,2.33241 0.63859,1.58295 0.96371,3.93827 2.67739,4.82372 0.3696,0.19098 0.68543,0.0616 1.04937,0.21408 1.651,0.8917 3.38648,1.23817 5.24071,1.52252 3.42918,0.75541 1.76003,0.37266 5.00843,1.14413 0,0 -1.62508,-4.19631 -1.62508,-4.19631 v 0 c -3.2631,-0.76851 -1.58374,-0.38942 -5.03928,-1.13208 -0.64865,-0.1081 -1.30309,-0.18581 -1.94595,-0.32432 -1.15803,-0.24956 -2.1359,-0.85887 -3.24702,-1.21677 -0.19373,-0.035 -0.39812,-0.0311 -0.58161,-0.10231 -1.53157,-0.59481 -2.5568,-4.82142 0.81092,3.10629 0.0119,-0.77621 -0.007,-1.55179 -0.0241,-2.32776 0.0615,-2.37267 0.24435,-4.75681 -0.0965,-7.11901 -0.2036,-1.37686 -0.18725,-2.75074 -0.16537,-4.14075 0,-2.4e-4 0.003,-0.8749 0,-0.87781 -2.27589,-4.46728 -2.3464,-5.6334 -2.36802,-3.44943 0.0329,0.66469 0.0547,1.27154 -0.13007,1.94744 -0.0259,0.7198 -0.0859,1.03664 0.0815,1.74617 0.27858,1.18039 0.90228,2.27764 1.1539,3.46914 0.75846,2.65139 1.28323,3.69538 2.70314,6.80572 0.12388,0.27138 0.415,0.79465 0.71478,0.95803 0.153,0.0834 0.34083,0.0727 0.51122,0.10898 1.09075,-0.5103 1.18756,-2.05621 1.80732,-2.98937 1.18681,-2.14296 2.00411,-4.48728 3.43223,-6.49406 1.15112,-1.76022 2.17241,-3.61408 3.51493,-5.24066 0.73692,-0.89575 1.53319,-1.55096 2.42213,-2.29089 0.38084,-0.317 1.3697,-1.20777 1.8048,-1.49077 0.25829,-0.16801 0.55129,-0.27543 0.82693,-0.41315 1.30146,-0.50056 2.55363,-1.12681 3.72272,-1.88986 0.83571,-0.50247 1.21838,-0.3483 2.14931,-0.35328 1.28374,-0.10488 2.19636,-0.26725 3.44938,0.31711 2.15802,0.48336 4.41351,0.61105 6.20149,2.06991 1.4596,0.98132 3.00352,1.90715 3.87574,3.49382 0.86445,1.24222 1.7594,2.45386 2.69076,3.64702 0.29586,0.37902 0.96769,1.60695 0.89424,1.13178 -0.15872,-1.02677 -0.80023,-1.91815 -1.16607,-2.89057 -0.14835,-0.39431 0.34208,0.76999 0.51313,1.15496 0.37354,1.18763 0.83111,2.40969 0.95999,3.65728 0.18074,1.74945 -0.0992,3.52986 -0.20606,5.27005 -0.1729,1.98766 -0.26463,3.46763 -0.59713,5.4555 -0.62778,3.75317 -1.77912,7.39275 -2.7753,11.05643 -0.26027,0.7347 -0.48776,1.48186 -0.78086,2.20406 -0.77997,1.92193 -1.04153,2.21054 -2.11437,3.99042 -1.20465,1.99864 -2.3623,4.05106 -3.94441,5.78578 -2.11492,2.2896 -3.16978,3.09229 -6.43241,3.25898 -3.31166,0.10765 -6.67555,0.37107 -9.91947,-0.48218 -2.91306,-0.91557 -5.72667,-2.09868 -7.98224,-4.22934 -0.82209,-0.78457 -1.36655,-1.22208 -2.01732,-2.13778 -1.15916,-1.63108 -1.74913,-3.63313 -2.92274,-5.26023 -0.28922,-0.51824 -1.02124,-2.12797 -0.86768,-1.5547 0.23048,0.8603 0.68318,1.64815 1.10313,2.43359 0.26125,0.48863 -0.39889,-1.03452 -0.62545,-1.54022 -0.80142,-1.78874 -1.64243,-3.55949 -2.4579,-5.34191 -0.34422,-0.75237 2.35056,5.10807 1.04688,2.25057 -0.21643,-0.44452 -0.52716,-1.02227 -0.64656,-1.50863 -0.56825,-2.31415 0.21021,-4.79946 0.47379,-7.08228 0,0 -2.27018,-3.88541 -2.27018,-3.88541 z" />
  </g>
</svg>
