<?xml version="1.0" encoding="UTF-8" standalone="no"?>
<!-- Created with Inkscape (http://www.inkscape.org/) -->

<svg
   width="1000mm"
   height="700mm"
   viewBox="0 0 1000 700"
   version="1.1"
   id="svg5"
   inkscape:version="1.2.2 (1:1.2.2+202212051552+b0a8486541)"
   sodipodi:docname="ink_img004.svg"
   xmlns:inkscape="http://www.inkscape.org/namespaces/inkscape"
   xmlns:sodipodi="http://sodipodi.sourceforge.net/DTD/sodipodi-0.dtd"
   xmlns="http://www.w3.org/2000/svg"
   xmlns:svg="http://www.w3.org/2000/svg">
  <sodipodi:namedview
     id="namedview7"
     pagecolor="#ffffff"
     bordercolor="#cccccc"
     borderopacity="1"
     inkscape:showpageshadow="0"
     inkscape:pageopacity="1"
     inkscape:pagecheckerboard="0"
     inkscape:deskcolor="#d1d1d1"
     inkscape:document-units="mm"
     showgrid="false"
     inkscape:zoom="0.43352871"
     inkscape:cx="1610.0433"
     inkscape:cy="1205.2258"
     inkscape:window-width="1440"
     inkscape:window-height="836"
     inkscape:window-x="0"
     inkscape:window-y="0"
     inkscape:window-maximized="1"
     inkscape:current-layer="layer1"
     inkscape:lockguides="false" />
  <defs
     id="defs2" />
  <g
     inkscape:label="Layer 1"
     inkscape:groupmode="layer"
     id="layer1">
    <path
       style="fill:#0000ff;stroke-width:0.264583"
       id="path71"
       d="m 229.13918,258.18786 c 10.66247,-7.77797 21.89645,-14.69199 32.88707,-21.97741 1.18614,-0.91412 2.37888,-1.81975 3.55842,-2.74236 2.36847,-1.85255 3.49232,-2.86901 5.94924,-4.56548 2.59233,-1.78998 5.36961,-3.23111 7.96364,-5.01858 1.75532,-1.45752 3.56962,-2.90054 5.19213,-4.51453 2.1541,-4.81788 -4.92842,-7.15007 -7.81505,-8.12786 -3.4693,-0.9242 -6.74934,-2.56754 -10.38543,-2.53804 -2.99661,0.47258 -6.89648,-0.46101 -1.09114,5.19746 0.4735,0.4615 1.18533,-0.58621 1.778,-0.87931 6.21292,-2.27845 12.92389,-2.33643 19.28567,-3.96928 4.86867,-1.04589 5.75204,2.40512 2.15955,-3.92744 -1.37922,4.94842 -3.97042,9.30232 -6.4389,13.75073 -2.60654,5.65048 -4.46304,11.66766 -4.36856,17.92211 0,0 2.51158,4.89305 2.51158,4.89305 v 0 c -0.27855,-6.20421 1.59713,-12.16366 4.10321,-17.79476 2.47568,-4.48904 5.12504,-8.84728 6.57403,-13.8134 -0.57365,-2.07908 -1.05204,-4.18682 -1.72096,-6.23725 -0.11739,-0.35986 -4.21709,-0.26396 -4.64995,0.0203 -6.40003,1.6297 -13.15124,1.69101 -19.39245,4.00821 -0.62528,0.30574 -1.82879,0.22277 -1.87587,0.91721 -0.46018,6.78788 1.23209,5.52833 4.8246,5.14342 3.56307,0.0421 6.80443,1.70099 10.21162,2.59132 1.56774,0.55017 3.0261,1.10922 4.47435,1.92324 0.2786,0.1566 0.87844,0.79286 0.83192,0.47666 -0.67291,-4.57657 -3.08268,-5.32931 -1.12548,-4.63586 -1.5599,1.6269 -3.40355,3.0005 -5.0958,4.47559 -2.59286,1.80221 -5.37739,3.2352 -7.97898,5.02463 -2.46793,1.69751 -3.59056,2.70995 -5.96072,4.57006 -1.16804,0.91669 -2.34767,1.81851 -3.5215,2.72777 -10.996,7.29682 -22.24455,14.20845 -32.91809,21.98965 0,0 2.03385,5.11013 2.03385,5.11013 z" />
    <path
       style="fill:#0000ff;stroke-width:0.264583"
       id="path73"
       d="m 300.93388,215.50286 c 1.66502,9.6878 4.21941,19.08448 8.0491,28.14884 0.78335,1.85415 1.94067,3.52785 2.85213,5.32251 -0.33891,-0.71902 -0.51956,-2.77727 -1.01672,-2.15704 -0.59134,0.73774 0.35716,1.85719 0.50906,2.7904 0.49951,3.06909 0.98835,6.03153 1.79404,9.04057 6.08158,16.72678 1.5055,4.02269 0.96199,2.85262 -0.12279,-0.26437 0.0851,0.57921 0.0815,0.87069 -0.009,0.72691 -0.22519,1.46261 -0.34859,2.17592 0.56436,2.95516 -0.0156,0.17256 2.35154,6.73021 0.53602,1.48489 -2.26608,-5.89357 -1.66587,-4.43344 5.00459,12.17472 0.61648,2.41366 3.06041,6.72724 0.72858,0.95952 1.34001,1.80354 2.02776,2.73818 -0.72588,-1.63238 -1.27254,-3.35688 -2.1776,-4.89715 -0.11567,-0.19682 -0.45664,0.0426 -0.68437,0.0265 -1.0496,-0.0741 -2.02528,-0.35139 -3.09599,-0.36486 -1.11633,0.0959 -2.23245,0.0915 -3.35135,0.0738 -3.84918,2.84546 5.73024,10.43056 7.64744,11.83185 1.24121,0.88403 2.51129,1.78197 3.47795,2.97828 0.12882,0.15944 0.18076,0.38537 0.34337,0.5102 0.31578,0.24244 0.75113,0.0114 1.04206,-0.0742 2.35339,-0.44323 3.42842,-2.18197 4.48025,-4.20727 1.20552,-3.10489 0.64047,-1.46945 1.66439,-4.91678 0,0 -2.35736,-4.96919 -2.35736,-4.96919 v 0 c -0.97176,3.4187 -0.43702,1.79694 -1.57433,4.87505 -0.93421,1.94844 -1.81284,3.62709 -4.05635,4.03632 -0.60611,0.15582 -3.41609,-3.54308 -4.38129,-3.56129 -1.90823,-1.4505 -1.97575,-1.39636 -3.67321,-3.11295 -1.60385,-1.62192 -2.37297,-2.8266 -2.34828,-2.6111 0.69114,6.03825 0.62823,6.04581 1.4269,4.4545 1.11789,0.0167 2.23218,-0.003 3.34819,-0.0728 4.71993,0.14504 4.68919,2.42355 3.07634,-5.36798 -0.63624,-0.93493 -1.40039,-1.78414 -2.01322,-2.74137 -0.003,-0.003 -0.83341,-1.08072 -0.82563,-1.05347 0.43879,1.53713 2.11728,6.0333 1.56808,4.53203 -7.0086,-19.15825 1.4876,3.08654 -0.88437,-2.19406 0.11039,-0.92816 0.74361,-2.24184 0.47403,-3.15381 -0.22148,-0.74927 -4.20309,-12.03009 -0.96806,-2.84933 -1.84092,-6.64406 -1.92971,-13.57091 -5.02883,-19.8919 -0.19939,-0.38739 -2.59257,-5.07275 -2.8031,-5.33245 -0.29607,-0.36524 0.50409,1.81091 0.3537,1.36544 -2.12366,-6.29105 -3.49343,-12.75103 -4.7489,-19.26508 0,0 -2.58686,-4.85369 -2.58686,-4.85369 z" />
    <path
       style="fill:#0000ff;stroke-width:0.264583"
       id="path77"
       d="m 314.18672,289.73377 c -3.46916,-1.90804 -7.02717,-3.65667 -10.79317,-4.90315 -1.23984,-0.41037 -2.50952,-0.72437 -3.76235,-1.09307 -3.25794,-0.96594 -6.44221,-2.15752 -9.67859,-3.18863 -2.92076,-0.93051 -1.02828,-0.17542 -3.7179,-1.37284 -4.04762,-1.86857 -7.97382,-3.9919 -11.83312,-6.22059 -3.06033,-1.77575 -6.34156,-3.09618 -9.64475,-4.33946 -2.51662,-0.7489 -4.64491,-2.29449 -7.12061,-3.12552 -0.40884,-0.0937 -0.81574,-0.19646 -1.22654,-0.28118 -0.93121,-0.19203 -1.23152,-0.1897 -2.114,-0.42322 -0.73656,-0.1949 -1.40827,-0.5067 -2.15184,-0.67634 -0.83685,-0.0589 -1.64449,0.24616 -2.48049,0.15494 -0.0984,-0.008 -0.64879,-0.0981 -0.57072,0.20294 1.17506,4.53068 3.01633,8.14933 4.95235,12.31384 1.11784,2.60567 2.38927,5.15366 3.46926,7.77587 0.15145,0.36774 0.53346,1.49855 0.39058,1.12739 -1.68902,-4.38759 -2.02247,-6.12878 -1.63942,-4.22545 1.33774,3.01813 3.75393,11.34859 0.3427,0.60172 -0.0426,-0.13433 0.0329,-0.29851 -0.0364,-0.42125 -0.19274,-0.3416 -0.50002,-0.60555 -0.72448,-0.9272 -0.43128,-0.61804 -0.82752,-1.25982 -1.24128,-1.88974 -2.37947,-3.88246 -5.04454,-7.60465 -7.09248,-11.68296 -0.19723,-0.3928 -1.91164,-4.22987 -2.19447,-4.8612 -0.21035,-0.51331 -0.40455,-1.03354 -0.63106,-1.53992 -1.32519,-2.96248 0.13677,0.33013 -0.7221,-1.23332 -0.0156,-0.0283 0.0123,-0.12463 0.0231,-0.0942 0.60299,1.68816 1.07735,3.42407 1.75851,5.08224 0.0387,0.0941 0.19327,-0.0638 0.2899,-0.0957 6.76518,-0.29428 13.53696,-0.4154 20.30636,-0.6554 0,0 -1.7181,-5.22476 -1.7181,-5.22476 v 0 c -6.82046,0.24105 -13.6478,0.31415 -20.4598,0.70838 -0.15966,0.056 -0.50548,10e-4 -0.47898,0.16811 0.74608,4.70563 1.25583,4.82684 2.7211,8.27568 0.51582,1.14425 1.71987,3.84554 2.23813,4.8522 2.09046,4.06045 4.73674,7.79986 7.14179,11.67236 0.43573,0.62494 0.83678,1.27555 1.30721,1.87481 0.25583,0.32588 0.5129,0.67429 0.86512,0.89249 0.23655,0.14653 0.85764,0.42772 0.82084,0.1519 -0.2582,-1.93535 -3.86413,-12.03169 0.0672,-0.79846 -0.35609,-2.29045 -0.0481,-0.42844 -1.99343,-6.0292 -1.0613,-3.05559 -2.7021,-5.8979 -3.90608,-8.89402 -2.78943,-5.98437 -0.19775,-0.43635 -2.43743,-5.20324 -0.20755,-0.44175 -0.7241,-1.80353 -0.61936,-1.32683 0.9991,4.54723 0.39598,4.60126 1.43561,4.64508 0.80315,0.0267 1.58522,-0.21249 2.38583,-0.12581 1.80687,0.50524 3.58981,1.06468 5.44478,1.39467 2.43699,0.89532 4.596,2.39778 7.1074,3.1293 3.27586,1.25304 6.53084,2.57744 9.56056,4.36275 3.88223,2.21919 7.81859,4.35612 11.89305,6.20418 4.35983,1.83518 8.99644,2.98654 13.4612,4.5429 0.25898,0.0761 3.49877,1.02621 3.72637,1.10347 3.7315,1.2669 7.26231,3.01604 10.69969,4.92903 0,0 -1.4198,-5.31358 -1.4198,-5.31358 z" />
    <path
       style="fill:#0000ff;stroke-width:0.264583"
       id="path79"
       d="m 493.52176,222.28897 c 3.53028,-1.42976 7.27032,-2.18367 10.87538,-3.37722 2.42234,-0.80199 2.70324,-0.95415 5.11397,-1.9086 0.86979,-0.38506 1.74789,-0.7519 2.6094,-1.15517 0.81544,-0.38171 1.60486,-0.81751 2.4203,-1.19921 2.715,-1.27081 5.53482,-2.32469 8.33459,-3.39047 3.43852,-1.39968 6.9587,-2.59041 10.63482,-3.14952 1.35676,-0.26233 2.67462,-0.81622 3.79407,-1.62947 1.62034,-1.68463 2.14987,1.79126 -1.91915,-5.40895 -0.10708,-0.18949 -0.40553,-0.15835 -0.60714,-0.24033 -0.40368,-0.16412 -0.80582,-0.33198 -1.20875,-0.49798 -2.73638,-1.13949 -5.48487,-2.22861 -8.09043,-3.64742 -1.54639,-0.70149 -3.30142,-0.61308 -4.69003,-1.64256 -0.32523,-2.29186 0.21733,1.77058 2.32738,4.65321 0.25524,0.34868 0.86397,0.0324 1.29606,0.0276 3.43167,-0.0381 6.86192,-0.14067 10.29441,-0.16657 4.62362,-0.019 9.24689,0.0602 13.87046,0.039 0.0413,-0.002 1.65293,-0.009 1.65283,-0.003 -0.003,0.0906 -0.0986,0.15216 -0.14788,0.22824 -0.76369,-1.53089 -1.3413,-3.16973 -2.29108,-4.59267 -0.14795,-0.22164 -0.16251,0.50887 -0.27289,0.7514 -0.19227,0.42246 -0.40902,0.83374 -0.63344,1.24003 -0.94591,1.71257 -2.0311,3.04133 -3.38627,4.44297 -1.68531,1.37277 -3.0834,3.01583 -4.40655,4.7253 0,0 2.56177,4.86697 2.56177,4.86697 v 0 c 1.29066,-1.7102 2.66137,-3.34935 4.34737,-4.69463 1.46238,-1.4813 2.49155,-2.70478 3.52703,-4.51746 0.0974,-0.17044 1.06111,-1.88351 1.01388,-2.05196 -0.5229,-1.86478 -1.37906,-3.6196 -2.06859,-5.4294 -0.66352,-0.0995 -1.33297,-0.0357 -2.00308,-0.0466 -4.62415,0.0176 -9.24809,-0.0601 -13.87226,-0.0382 -3.43229,0.0277 -6.862,0.0749 -10.29317,0.16605 -0.48575,0.0129 -1.45701,-0.44363 -1.45717,0.0423 -0.003,4.11874 0.18188,4.18403 1.74766,5.55201 1.47418,0.85867 3.21699,0.85898 4.73519,1.62662 2.63168,1.39686 5.40261,2.47903 8.14954,3.62593 0.41725,0.16061 0.82677,0.34295 1.25174,0.48183 0.24895,0.0813 0.81939,0.43364 0.76539,0.17738 -0.0781,-0.37061 -0.8313,-6.85313 -2.61948,-4.60512 -1.02254,0.79205 -2.2877,1.27505 -3.54978,1.5167 -3.71015,0.58116 -7.26679,1.78571 -10.74066,3.19661 -2.81617,1.07275 -5.65155,2.13438 -8.38263,3.41273 -0.80825,0.37832 -1.59044,0.81075 -2.39866,1.18911 -0.85487,0.40019 -1.72633,0.76398 -2.58948,1.14597 -2.38739,0.94406 -2.67682,1.09932 -5.07698,1.89178 -3.61305,1.19292 -7.35947,1.95376 -10.89644,3.38676 0,0 2.27875,5.00572 2.27875,5.00572 z" />
    <path
       style="fill:#0000ff;stroke-width:0.264583"
       id="path81"
       d="m 555.90413,202.7042 c 0.416,1.25557 0.81412,2.5172 1.24804,3.7667 2.13564,6.14987 1.06672,2.64775 3.11668,8.85794 1.42994,4.33185 2.73355,8.70752 4.11319,13.05564 2.06264,6.70021 3.59709,13.56084 4.80457,20.46354 0.78777,3.86819 1.19245,7.79646 1.83613,11.68786 0.10924,1.00805 0.48133,1.95321 0.70643,2.93373 0.0917,0.39914 0.0559,0.54806 0.0634,0.54394 0.1116,-0.0613 0.14936,-0.20618 0.22405,-0.30927 -0.17761,-0.17392 -0.34478,-0.35917 -0.53282,-0.52177 -1.78025,-1.53956 -0.0153,0.1529 -1.92077,-1.62359 -0.96414,-0.89895 -1.83946,-1.86144 -2.82712,-2.73621 -0.26324,-0.227 -0.52935,-0.45071 -0.78973,-0.68099 -0.45704,-0.4042 -0.56277,-0.58837 -1.084,-0.8478 -0.43616,-0.21709 -0.73334,-0.23715 -1.06603,-0.60246 0.75475,1.87455 1.36792,3.81252 2.26425,5.62364 0.20487,0.41398 0.67815,0.62828 0.99579,0.96364 0.44656,0.47149 0.86209,0.97143 1.29524,1.4553 1.43737,1.6057 2.88242,3.02437 4.55409,4.38261 1.22626,0.91659 2.61326,2.35704 4.3158,2.09238 0.45905,-0.0714 0.89294,-0.25676 1.3394,-0.38513 3.89792,-1.93024 6.50801,-5.44547 9.00017,-8.88279 1.11133,-1.7258 1.9381,-3.59359 2.64642,-5.51216 0,0 -2.7096,-4.78624 -2.7096,-4.78624 v 0 c -0.66672,1.89073 -1.45169,3.72883 -2.51246,5.43876 -2.39694,3.35062 -4.90926,6.8047 -8.66637,8.72008 -0.39031,0.10441 -0.76952,0.26726 -1.17091,0.31327 -1.55157,0.1778 -2.86467,-1.45783 -3.99074,-2.2129 -1.49611,-1.26559 -1.57329,-1.26516 -2.97757,-2.7397 -1.13707,-1.19399 -1.69868,-1.959 -2.83853,-3.10924 -0.32975,-0.33275 -1.06098,-1.4183 -1.03518,-0.95055 0.091,1.65089 0.83158,3.20052 1.2474,4.80077 0.35595,0.21517 0.75454,0.36134 1.10059,0.59068 0.66344,0.4397 1.17369,1.07464 1.807,1.55131 1.77247,1.64733 3.41315,3.45324 5.41771,4.83431 0.21556,-0.031 0.44895,-0.003 0.64667,-0.0929 0.58627,-0.27051 -0.54239,-3.14743 -0.55097,-3.60979 -0.66659,-3.88865 -1.04465,-7.82043 -1.83414,-11.68914 -1.1807,-6.91574 -2.70494,-13.78797 -4.74149,-20.5043 -1.38364,-4.34819 -2.6832,-8.72589 -4.10324,-13.06218 -2.14305,-6.54404 -0.86336,-2.38989 -3.121,-8.85511 -0.43606,-1.24875 -0.83201,-2.51115 -1.24801,-3.76672 0,0 -3.02231,-4.59517 -3.02231,-4.59517 z" />
    <path
       style="fill:#0000ff;stroke-width:0.264583"
       id="path83"
       d="m 570.87335,270.35286 c -0.73898,-0.27924 -1.47632,-0.56282 -2.21691,-0.83775 -0.76216,-0.28292 -1.5476,-0.50726 -2.29122,-0.83582 -1.3776,-0.60867 -2.27663,-1.27473 -3.51036,-2.11346 -3.39981,-2.31132 0.0116,-0.033 -3.72411,-2.51086 -4.54298,-2.88363 -9.70661,-4.55346 -14.69747,-6.47566 -5.39179,-2.02582 -9.86505,-5.63641 -14.53677,-8.88939 -2.24565,-1.23467 -4.06024,-3.03834 -6.03964,-4.6219 -0.22304,-0.17844 -2.40498,-1.74018 -2.60236,-1.88188 -1.46968,-1.11923 -3.06203,-2.1004 -4.38642,-3.39956 -2.05449,-2.01534 0.46357,0.287 -1.53779,-1.51159 -0.62195,-0.43565 -1.07728,-1.0701 -1.651,-1.55588 -0.38251,-0.32387 -0.83301,-0.54833 -1.21391,-0.87718 3.99958,8.07178 2.37001,4.26625 -0.66135,0.25032 -0.13729,-0.1819 0.11449,0.44246 0.14327,0.66853 0.049,0.38472 0.0711,0.77263 0.0896,1.16001 0.15981,3.34398 -0.1212,-0.58802 0.13775,2.73894 -0.0206,1.57225 1.05119,2.89072 1.1526,4.41436 0.0941,1.04532 0.34332,0.5961 -0.0854,0.18944 -0.26715,-0.25337 -0.60257,-0.42459 -0.88623,-0.65935 -0.35263,-0.29188 -0.68042,-0.61258 -1.02063,-0.91887 -2.12603,-2.13722 -4.22298,-4.29779 -5.81903,-6.86737 -0.34361,-0.64865 -0.71432,-1.3163 -1.32408,-1.75531 -0.0955,-0.0687 -0.23582,-0.0763 -0.31115,-0.16667 -0.0391,-0.0469 -0.006,-0.23707 0.0204,-0.18207 0.76798,1.59118 1.47712,3.21009 2.21568,4.81514 0.92347,-0.82009 2.46615,-0.6105 3.57751,-0.59324 2.53973,0.0394 2.24586,0.0624 4.85994,0.29049 2.90328,0.50284 5.95106,0.58378 8.74591,1.60087 1.74009,0.63324 2.47512,1.09623 4.04458,1.94355 0,0 -1.85528,-5.17764 -1.85528,-5.17764 v 0 c -1.6387,-0.84836 -2.33715,-1.27823 -4.15566,-1.90238 -2.83779,-0.974 -5.90542,-1.08072 -8.84142,-1.56329 -2.16286,-0.1767 -5.83343,-0.62577 -7.94446,-0.0278 -0.38817,0.10996 -0.86847,0.45889 -1.20332,0.67916 0.71017,1.73503 1.37813,3.48794 2.13048,5.2051 0.0693,0.15816 0.29723,0.18375 0.41507,0.30996 0.49491,0.52995 0.84056,1.17443 1.21317,1.79003 1.68317,2.5268 3.79048,4.71392 5.96749,6.82032 0.44083,0.37062 3.61887,3.23507 3.19289,0.82036 -0.35843,-1.70744 0.15557,0.97946 -0.0156,-0.84648 -0.0385,-0.41053 -0.39711,-0.92601 -0.52869,-1.26268 -0.32306,-0.82671 -0.42696,-1.42471 -0.62823,-2.29258 -0.22892,-2.16708 -0.0987,-0.51702 -0.15227,-2.72987 -0.01,-0.39485 -0.0296,-0.78941 -0.0517,-1.18374 -0.0135,-0.24212 0.0655,-0.5151 -0.0552,-0.7254 -6.73817,-11.73504 -1.29167,-1.04206 -0.60754,0.36929 1.00963,0.74111 1.90754,1.59543 2.82668,2.44581 1.87915,1.77933 3.80198,3.47874 5.98686,4.89009 2.92486,2.11887 5.5653,4.59929 8.64997,6.50105 4.68844,3.28193 9.22978,6.84317 14.66257,8.84433 4.96914,1.90115 10.09137,3.60149 14.58344,6.51664 1.80115,1.20081 3.56954,2.54275 5.45168,3.61635 1.84068,1.04995 2.13606,1.03876 4.19114,1.80166 0.74186,0.27543 1.48137,0.55721 2.22205,0.83582 0,0 -1.92538,-5.15197 -1.92538,-5.15197 z" />
    <path
       style="fill:#0000ff;stroke-width:0.264583"
       id="path85"
       d="m 373.2014,419.55751 c 8.28252,0.52793 16.56564,1.05717 24.78101,2.25822 7.48712,1.29022 15.06675,0.80944 22.61195,0.62976 3.00329,-0.12491 6.01099,0.0768 9.01393,0.0233 2.3305,-0.0415 4.66267,-0.2498 6.99299,-0.32981 1.50117,-0.22569 3.06036,0.25392 4.55756,0.0646 0.18176,-0.0106 0.67767,-0.0109 0.52948,-0.3996 -2.13275,-5.59517 -2.14701,-4.82055 -5.3998,-7.85718 -1.13282,-0.70474 -1.86269,-1.81546 -2.76707,-2.74743 -0.28347,-0.29215 -0.57806,-0.38896 -0.9058,-0.58729 0.78846,1.57257 1.57692,3.14515 2.36538,4.71775 -0.045,0.018 -0.17143,0.022 -0.13502,0.0539 0.39066,0.34341 0.98825,0.32592 1.4746,0.5103 0.66329,0.25146 2.74183,1.21391 3.33055,1.48257 2.35969,1.27966 5.07632,1.50331 7.58603,2.35141 0.50493,0.32382 0.82121,0.46027 1.37382,0.2754 0.0669,-0.0225 0.23892,0.003 0.20344,-0.0586 -0.8777,-1.50995 -1.8724,-2.94881 -2.80861,-4.4232 -2.58736,2.53844 -5.57569,4.66627 -8.45005,6.87271 -1.82454,1.28157 -3.7284,2.51347 -5.03266,4.35269 0,0 2.59379,4.84997 2.59379,4.84997 v 0 c 1.15591,-1.87269 3.13174,-2.99783 4.87137,-4.26982 2.91346,-2.23292 5.9205,-4.40094 8.57533,-6.9365 -0.66627,-1.82158 -1.26076,-3.67101 -1.99882,-5.4647 -0.0273,-0.0664 -0.21661,0.0961 -0.29498,0.0824 -0.32486,-0.0568 -0.64598,-0.4449 -0.9779,-0.42487 -2.5151,-0.77361 -5.18068,-1.11072 -7.52766,-2.3731 -1.43314,-0.6437 -2.94508,-1.49143 -4.51834,-1.74956 -0.66718,-0.10946 -1.38351,0.0169 -1.28733,0.27385 0.65915,1.76101 1.65393,3.37743 2.48091,5.06613 1.34716,0.82532 2.14234,2.60697 3.56807,3.37037 0.69498,0.6414 1.41764,1.25341 2.09248,1.91595 0.20752,0.20373 0.69027,0.91737 0.58672,0.64564 -2.12045,-5.56466 -3.67417,-4.08107 -1.53522,-4.60473 0.0433,-0.0106 -0.0888,0.006 -0.1333,0.009 -1.51312,-0.0172 -3.0253,-0.14499 -4.53964,-0.0721 -2.32204,0.0842 -4.64682,0.28342 -6.96968,0.32012 -3.00905,0.0476 -6.02221,-0.13864 -9.03153,-0.0159 -7.51776,0.18261 -15.06873,0.6332 -22.52636,-0.66464 -8.23219,-1.18403 -16.5304,-1.7145 -24.82749,-2.23948 0,0 2.07785,5.09241 2.07785,5.09241 z" />
    <path
       style="fill:#0000ff;stroke-width:0.264583"
       id="path87"
       d="m 446.45296,428.52654 c -3.57499,5.64587 -5.69788,12.02111 -8.54403,18.03673 -1.59133,3.94478 -4.36168,7.17248 -6.56934,10.74568 -1.44684,2.23705 -2.32441,4.80571 -3.74536,7.04876 -1.14612,0.95137 -2.08187,2.10207 -3.101,3.18601 -2.13309,2.01147 -3.53237,4.61182 -4.862,7.18632 -0.2652,0.70051 -0.81953,1.17256 -1.2654,1.74231 -0.21519,0.27498 -0.38135,0.69937 -0.66876,0.90728 -0.0238,-0.0394 -0.0478,-0.0787 -0.0718,-0.11811 -0.0726,-0.0441 -0.17026,-0.0619 -0.2178,-0.13229 -0.2046,-0.30279 -0.55121,-1.35221 -0.38722,-1.02563 2.01623,4.01537 2.46462,5.65176 1.70439,3.16936 -0.62963,-1.52177 -0.44227,-3.07551 -0.31718,-4.65928 0.13692,-2.79199 -0.74499,-2.60504 -3.08001,-6.06711 -1.0618,0.96044 -1.74459,2.25327 -2.45179,3.48078 -0.60944,1.40621 -1.83827,2.34492 -2.60056,3.64654 -0.92856,2.62932 1.59115,5.4951 3.4549,7.33785 2.03655,1.4991 4.4292,2.47364 6.79958,3.31517 0,0 -1.9262,-5.15167 -1.9262,-5.15167 v 0 c -2.2979,-0.85693 -4.67759,-1.78636 -6.56031,-3.39841 -0.19479,-0.21744 -0.40489,-0.42209 -0.58433,-0.65236 -0.1415,-0.18161 -0.46668,-0.79103 -0.37566,-0.57957 0.65852,1.52995 1.38848,3.02813 2.0815,4.54276 0.0611,0.13359 -0.18751,-0.23071 -0.24672,-0.36515 -0.0292,-0.0662 -0.0106,-0.14428 -0.0161,-0.21643 0.0369,-0.0665 0.45577,-0.82063 0.45778,-0.82341 0.69146,-0.96163 1.74358,-1.65706 2.15173,-2.82797 0.9957,-1.93119 -0.30261,0.49657 0.71977,-1.1598 0.46768,-0.75766 0.78272,-1.63335 1.51286,-2.20766 -3.09877,-7.06771 -2.21978,-6.38069 -2.18099,-3.58092 -0.073,1.60411 -0.49408,3.20683 0.15539,4.76096 0.8136,2.90476 0.26768,1.13258 2.82755,6.72047 0.31015,0.67704 0.77825,1.08879 1.53435,0.94869 0.46204,-0.26958 0.50609,-0.56081 0.81454,-0.98004 0.45241,-0.61489 1.11811,-1.05069 1.38354,-1.80531 1.30524,-2.53219 2.61908,-5.13736 4.72485,-7.11353 1.05121,-1.10016 1.96572,-2.30785 3.1855,-3.23027 1.51103,-2.18824 2.30187,-4.82804 3.76378,-7.05863 1.70598,-2.84015 3.77983,-5.33067 5.34762,-8.27548 0.43903,-0.82463 0.84781,-1.66503 1.2717,-2.49754 1.42763,-2.99056 1.24785,-2.53254 2.54296,-5.56876 1.7979,-4.21505 3.36148,-8.56107 5.89984,-12.41333 0,0 -2.5617,-4.86701 -2.5617,-4.86701 z" />
    <path
       style="fill:#0000ff;stroke-width:0.264583"
       id="path89"
       d="m 398.74377,471.31253 c -2.35106,-1.86595 -4.65899,-3.79857 -6.62696,-6.07783 -1.42574,-1.65124 -2.46005,-3.25982 -3.81598,-4.9626 -0.60082,-0.75454 -1.24524,-1.47328 -1.86785,-2.20991 -1.63034,-1.94349 -3.53979,-3.66064 -5.01571,-5.73545 -1.49053,-2.09529 -2.56598,-4.44751 -3.68432,-6.74986 -0.32631,-0.69742 -1.34414,-2.77011 -0.97894,-2.09225 0.46379,0.86085 0.50388,2.04068 1.27506,2.64189 0.71424,0.55684 -0.71504,-1.66423 -1.08268,-2.4919 -0.8913,-2.00668 -1.78588,-3.99044 -2.57767,-6.03866 -0.13558,-0.30721 -0.26533,-0.61709 -0.40672,-0.92168 -0.85101,-1.83316 -1.74167,-3.64805 -2.5704,-5.49137 -0.66556,-1.48045 1.37237,2.94216 2.08089,4.40256 0.16838,0.34705 -0.2614,-0.72737 -0.42926,-1.07471 -0.86077,-1.78126 -1.74098,-3.55307 -2.61149,-5.32958 -0.0455,-0.0974 -0.029,-0.29509 -0.13647,-0.29208 -0.93596,0.0265 -0.83521,1.70371 -0.92686,2.24489 -0.0739,0.43637 -0.58031,3.1914 -0.64408,3.53941 -0.45481,1.76892 -0.84373,3.59923 -1.87108,5.13426 -0.92143,1.87145 -0.67392,1.11019 2.61107,4.83193 0.27826,0.31525 0.0303,-0.84045 0.0436,-1.26071 0.0222,-0.70483 0.048,-1.40957 0.0635,-2.11455 0.0417,-1.88823 0.0345,-2.45716 0.0382,-4.27374 -0.08,-3.06475 -0.10782,-6.10272 0.34774,-9.13926 0.19018,-0.74354 0.29893,-1.38563 0.63802,-2.06473 0.054,-0.10827 0.28871,-0.1538 0.24593,-0.26699 -0.67027,-1.77279 -2.09384,-3.41641 -2.03113,-5.31067 0.0613,-1.85081 1.35721,3.44604 2.03581,5.16906 2.37879,1.29548 4.69664,2.72608 7.07043,4.0431 0,0 -1.84372,-5.18176 -1.84372,-5.18176 v 0 c -2.43308,-1.36287 -1.21364,-0.66574 -3.80302,-2.17908 -0.33559,-0.19614 -2.24583,-1.34173 -2.79188,-1.57242 -0.23669,-0.10001 -0.49869,-0.12427 -0.74803,-0.18643 3.40463,10.65911 1.0962,3.17916 -0.16772,0.2127 -0.0143,-0.0338 -0.45095,0.1633 -0.65037,0.47168 -0.36769,0.56853 -0.58124,1.53633 -0.75343,2.13108 -0.51641,3.04964 -0.53424,6.09693 -0.42217,9.18406 0.003,1.84563 0.0109,2.34259 -0.0251,4.2658 -0.0132,0.70334 -0.0291,1.40668 -0.0554,2.10963 -0.0161,0.42632 -0.24136,0.88646 -0.0716,1.2778 0.76049,1.75295 1.8029,3.37185 2.79678,5.0038 0.0535,0.0878 0.0449,-0.20058 0.0674,-0.30088 0.26759,-0.40905 0.58393,-0.7837 0.7843,-1.23431 0.57031,-1.28257 0.889,-2.66782 1.28027,-4.00857 0.0691,-0.37751 1.01748,-5.35284 0.90596,-5.43838 -0.16108,-0.12353 -0.96322,0.21376 -0.38937,0.46826 -0.68463,-1.49942 -1.37234,-2.99741 -2.05385,-4.49821 -0.15864,-0.3493 0.29948,0.70649 0.45638,1.05656 0.81836,1.82589 1.72286,3.61427 2.48124,5.46587 0.48024,1.17253 -3.28033,-7.00804 -1.58647,-3.4544 2.27912,6.09815 5.29833,11.90265 7.93281,17.84692 0.71316,1.43994 1.47299,3.04167 2.29852,4.41708 1.79319,2.98773 4.21801,5.44849 6.52857,8.02987 1.94072,2.33743 3.72147,4.91093 5.72,7.16097 2.00535,2.25774 4.3393,4.17455 6.68758,6.05788 0,0 -1.75025,-5.21409 -1.75025,-5.21409 z" />
    <circle
       id="path154"
       style="fill:#ff0000;stroke:#000000;stroke-width:0.264583"
       cx="441.07892"
       cy="340.71524"
       r="0.11177676" />
    <path
       style="fill:#ff0000;stroke-width:0.264583"
       id="path164"
       d="m 289.23773,254.10783 c 2.13609,-0.28685 4.18987,-1.06201 6.31466,-1.39754 1.29323,-0.20421 2.80095,-0.009 4.12414,-0.0292 0.61378,-0.018 1.2275,-0.0388 1.84136,-0.0541 1.8233,-0.0456 2.30471,-0.003 4.13647,-0.20543 1.74011,-0.19231 3.40125,-0.46847 5.15496,-0.52553 4.01722,0.30479 8.00716,0.0594 12.00526,-0.35028 0.80536,-0.0977 1.60842,-0.21718 2.41612,-0.29326 0.38722,-0.0365 4.75398,-0.31565 5.11352,-0.34409 2.41893,-0.19137 4.82301,-0.50483 7.22953,-0.8087 5.3104,-0.79039 10.67279,-0.9332 16.01576,-1.34474 5.47804,-0.59645 10.95068,-1.22928 16.43594,-1.7602 5.30143,-0.54368 10.60056,-1.10904 15.90058,-1.66626 5.13612,-0.57377 10.28153,-1.05775 15.41286,-1.674 4.27032,-0.79401 8.64192,-0.50657 12.93489,-1.04188 0.8426,-0.10507 1.67413,-0.28518 2.51119,-0.42776 4.8732,-1.24044 9.88975,-1.68729 14.82077,-2.63485 4.73046,-0.74208 9.50198,-1.19975 14.25977,-1.7338 4.71077,-0.60422 9.42549,-1.06254 14.17338,-1.19654 3.11553,-0.31581 6.24581,-0.19042 9.36781,-0.25584 1.9766,-0.0414 2.50278,-0.14746 4.4985,-0.37046 4.5742,-0.32326 9.14022,-0.73096 13.71341,-1.05363 3.75544,-0.1632 7.50253,-0.26571 11.26204,-0.21226 3.82003,-0.45663 7.67038,-0.17188 11.49528,-0.41397 2.32182,-0.29257 4.67153,-0.0442 6.99262,-0.31079 1.04444,-0.11998 2.0792,-0.31414 3.12208,-0.44711 2.72833,-0.0836 5.45539,0.11075 8.18737,0.0936 2.0941,-0.0357 4.18838,-0.0334 6.28264,-0.022 0.67106,0.002 1.3421,-0.003 2.01313,-0.002 0.0146,2e-5 0.53298,5.3e-4 0.53356,5.3e-4 1.92847,-0.70673 -0.83711,-5.12381 -2.29047,-6.27212 -0.98298,-1.71769 -2.72023,-2.59816 -4.35329,-3.63291 -0.83172,-0.34645 -1.39275,-1.06774 -2.13207,-1.54395 -0.003,-0.002 -0.709,-0.347 -0.75822,-0.433 -0.0436,-0.0762 0.0287,-0.1732 0.043,-0.2598 0.7433,1.67713 1.24457,3.48401 2.22991,5.0314 0.1614,0.25347 0.5932,-0.0996 0.89236,-0.12808 0.43336,-0.0412 0.86836,-0.0661 1.30344,-0.0808 1.43584,-0.0485 2.81456,0.0191 4.23638,0.20866 1.40901,0.41357 4.02751,0.7332 5.06981,1.8911 0.0659,0.0388 0.13174,0.0775 0.19759,0.11629 0.10893,-0.0236 0.22453,-0.11496 0.32682,-0.0707 0.0634,0.0274 -0.11057,0.21143 -0.14283,0.15031 -0.82031,-1.55461 -1.47632,-3.19183 -2.28547,-4.75227 -0.10146,-0.19566 -0.0386,0.43924 -0.0667,0.65783 -0.45765,1.22101 -1.26336,2.30201 -1.93625,3.41814 -0.40455,0.65702 -0.57237,1.42074 -0.78576,2.1529 0,0 2.73921,4.76936 2.73921,4.76936 v 0 c 0.20555,-0.70079 0.31641,-1.43985 0.66611,-2.08616 0.69109,-1.1951 1.45434,-2.33683 2.13728,-3.53256 0.24797,-2.53978 0.72401,-5.3e-4 -2.16728,-5.85828 -0.042,-0.0851 -0.19103,0.0249 -0.28443,0.008 -0.0781,-0.0139 0.36452,-0.43011 -0.14602,-0.18807 -1.59512,-1.02191 -3.5442,-1.39028 -5.36424,-1.783 -0.48533,-0.0553 -0.96856,-0.13372 -1.45598,-0.16579 -1.38618,-0.0912 -2.8452,-0.0616 -4.22569,0.097 -0.3298,0.0379 -1.01735,-0.16237 -0.98171,0.16769 0.19646,1.8194 1.04527,3.50753 1.5679,5.26129 1.05576,0.70224 2.06534,1.46298 3.13565,2.14489 0.98468,0.63343 2.07788,1.23127 2.92516,2.05266 0.49429,0.47918 0.50448,0.66577 0.90852,1.17222 0.12536,0.15712 0.27014,0.29771 0.40521,0.44657 1.31723,1.74233 0.10311,0.19701 -1.72759,-4.26847 -0.0396,-0.0967 0.31723,0.20529 0.21524,0.2279 -0.17368,0.0385 -0.35968,-0.0359 -0.53364,-5.3e-4 -0.67022,1.7e-4 -1.34043,0.004 -2.01065,8e-4 -2.09606,-0.0112 -4.19206,-0.008 -6.28796,0.0242 -2.75185,0.0104 -5.50203,-0.20627 -8.2497,-0.0673 -1.03217,0.13421 -2.05732,0.32298 -3.09222,0.43439 -2.3197,0.24971 -4.66828,0.0199 -6.98772,0.30874 -3.81418,0.21207 -7.64887,-0.0193 -11.45815,0.39848 -3.77373,-0.0502 -7.53581,0.0627 -11.30549,0.2304 -4.57898,0.33589 -9.15318,0.71774 -13.7323,1.06167 -4.59877,0.49463 -9.21506,0.24702 -13.82606,0.6093 -4.76126,0.14886 -9.49024,0.60957 -14.21496,1.2141 -4.7712,0.53572 -9.55685,0.99245 -14.29871,1.75061 -4.92832,0.93741 -9.93863,1.39823 -14.80945,2.62994 -0.82245,0.13633 -1.63975,0.30867 -2.46739,0.40898 -4.30078,0.52127 -8.67749,0.26052 -12.95483,1.05036 -5.12915,0.61244 -10.27186,1.098 -15.40549,1.67086 -5.29871,0.55639 -10.59619,1.12371 -15.89649,1.66452 -5.48153,0.53193 -10.94996,1.1707 -16.42557,1.75579 -5.35209,0.40351 -10.72195,0.56576 -16.04065,1.35535 -4.90694,0.61655 -9.82893,0.95294 -14.74687,1.4408 -3.98891,0.3996 -7.96608,0.60799 -11.97306,0.33668 -1.75342,0.0741 -3.43246,0.34957 -5.17401,0.53353 -1.73505,0.18327 -2.37873,0.15304 -4.11286,0.19552 -0.61095,0.015 -1.2218,0.0337 -1.83267,0.0505 -0.97107,0.007 -1.94214,-0.068 -2.91298,-0.0448 -2.59628,0.0619 -5.05537,1.22038 -7.6205,1.51198 0,0 2.20519,5.03856 2.20519,5.03856 z" />
    <path
       style="fill:#ff0000;stroke-width:0.264583"
       id="path166"
       d="m 545.03079,233.12015 c -3.2988,4.6219 -5.79086,9.71924 -8.27054,14.8058 -0.55155,1.22774 -1.07484,2.46857 -1.65462,3.68323 -0.56026,1.17371 -1.12123,2.34957 -1.76456,3.47988 -2.04777,3.59797 -4.65553,6.82989 -6.88454,10.30797 -0.68027,1.06143 -1.28653,2.1685 -1.92981,3.25273 -0.58381,1.13234 -1.17933,2.25873 -1.75141,3.39702 -1.28752,2.56174 -2.20494,4.63259 -3.60437,7.13882 -1.92839,3.45356 -2.72685,4.42712 -4.88887,7.88422 -0.91265,1.45936 -1.79199,2.93928 -2.688,4.40893 -4.80523,8.60156 -10.90914,16.33721 -16.62809,24.32397 -3.46225,5.04 -7.36682,9.75275 -10.93705,14.71279 -0.44479,0.61794 -4.87347,6.98042 -5.18798,7.43186 -5.17575,6.71285 -9.54299,13.99132 -14.51559,20.84384 -4.39013,4.85278 -7.49134,10.64348 -11.26898,15.93925 -0.71332,1.00001 -1.48225,1.95918 -2.22337,2.93878 -4.45913,5.67922 -8.1507,11.89728 -12.25714,17.82132 -2.4723,3.46036 -5.10247,6.82848 -7.2354,10.51801 -0.83376,1.44224 -1.61883,3.07491 -2.36247,4.5716 -1.54268,3.20726 -3.89877,5.8777 -6.03618,8.68297 -1.64356,2.04435 -2.60289,4.48921 -3.93073,6.71687 -1.08116,1.17866 -1.94743,2.50105 -2.78365,3.85569 -0.85826,1.5902 -1.7368,3.16915 -2.73526,4.67715 -0.81121,1.37419 -2.00142,2.48795 -2.66473,3.94488 -0.27313,0.61582 -0.82706,1.12763 -1.4306,1.42208 -0.73496,-0.0795 -0.99332,-0.5425 -1.26997,-1.18329 3.8954,8.42679 1.49267,3.82452 1.31815,1.57109 -0.11276,-2.19636 0.0214,-0.36234 -2.4148,-5.45102 -0.75237,-1.57147 1.46026,3.16397 2.20906,4.73715 0.0318,0.0668 -0.0172,-0.15195 -0.0565,-0.21458 -2.97564,-4.73503 -1.91053,-6.00596 -3.21482,-4.11062 -0.66426,1.61232 -1.03442,3.33378 -1.48775,5.01431 -0.42143,1.24087 -0.87598,2.3889 -0.65522,3.70409 0.38704,2.0597 0.39894,2.25549 2.66425,5.42012 0.21471,0.29996 0.73716,0.0366 1.10604,0.0373 2.25758,0.005 4.49934,-0.25474 6.74658,-0.44212 0,0 -2.14691,-5.06368 -2.14691,-5.06368 v 0 c -0.53953,0.0449 -4.43989,0.37315 -4.89674,0.39524 -0.58526,0.0283 -1.1728,0.0411 -1.75784,0.009 -0.2711,-0.0151 -0.8731,-0.41156 -0.80055,-0.14994 2.31589,8.35248 2.1554,6.22361 2.04721,4.42847 -0.0853,-0.39447 -0.2595,-0.84154 -0.24376,-1.24825 0.0318,-0.82183 0.54308,-1.52834 0.68487,-2.32574 0.45286,-1.64431 0.87583,-3.29819 1.34681,-4.93575 1.11519,-1.99956 0.38457,-0.44527 -2.26607,-5.42169 -0.0456,-0.0856 -0.0934,0.19593 -0.0563,0.28554 0.72203,1.74207 1.79319,3.34995 2.31421,5.16229 0.45503,1.58274 -3.52399,-6.33415 -1.99517,-4.51972 -0.2132,2.94854 2.24864,6.02914 3.121,8.39108 0.52313,0.69228 1.1431,1.0878 2.03695,0.89164 0.70553,-0.34322 1.39522,-0.92297 1.7858,-1.60443 0.54586,-1.48506 1.78075,-2.5354 2.56934,-3.89271 1.01444,-1.50395 1.92355,-3.07425 2.74879,-4.6844 0.85783,-1.34053 1.6361,-2.73007 2.78905,-3.85857 1.37393,-2.18104 2.24427,-4.66 3.88294,-6.69142 2.14106,-2.84001 4.55115,-5.5077 6.12783,-8.73236 0.67104,-1.36311 1.57732,-3.25033 2.31725,-4.54695 2.10807,-3.69403 4.73617,-7.05527 7.20884,-10.50374 4.12117,-5.90542 7.78116,-12.13686 12.23682,-17.81059 0.75051,-0.98457 1.53003,-1.94768 2.25152,-2.9537 3.78746,-5.28116 6.84313,-11.09787 11.25069,-15.92956 4.99446,-6.84114 9.33612,-14.14179 14.52571,-20.84919 1.72416,-2.47526 3.41513,-4.97401 5.17424,-7.42458 3.56542,-4.96692 7.48157,-9.67412 10.94473,-14.71684 5.71741,-8.00224 11.85439,-15.72987 16.66399,-24.3432 0.89201,-1.46748 1.76514,-2.94664 2.67602,-4.40248 2.14828,-3.43355 3.00395,-4.47707 4.93308,-7.90821 1.41615,-2.51878 2.3201,-4.55898 3.60748,-7.14055 0.56455,-1.13205 1.14856,-2.25425 1.72284,-3.3814 0.63206,-1.07823 1.22431,-2.18083 1.89622,-3.23469 2.23183,-3.50057 4.87161,-6.73822 6.94787,-10.34224 0.65305,-1.13356 1.22439,-2.31309 1.7888,-3.49329 0.57864,-1.20998 1.09275,-2.44977 1.63915,-3.67466 2.46353,-5.06708 4.92132,-10.15572 8.1957,-14.76523 0,0 -2.58357,-4.85543 -2.58357,-4.85543 z" />
    <path
       style="fill:#ff0000;stroke-width:0.264583"
       id="path168"
       d="m 400.35816,441.33986 c -1.97353,-1.2351 -3.82442,-2.63252 -5.25079,-4.4922 -0.3582,-0.46701 -0.68533,-0.96022 -0.9701,-1.47529 -0.2227,-0.40277 -0.76046,-1.67537 -0.5466,-1.26785 0.66675,1.2705 1.271,2.5728 1.90651,3.85921 -0.93038,-2.86761 -2.43136,-5.49765 -3.76312,-8.19447 -0.27995,-0.56692 -1.13302,-2.26041 -0.87196,-1.68454 0.41984,0.92601 0.61971,2.02705 1.34861,2.73589 0.64161,0.62397 -0.71218,-1.64219 -1.06828,-2.46329 -0.38042,-0.82966 -0.74182,-1.66828 -1.14128,-2.48894 -1.18706,-2.43866 -2.34543,-4.89286 -3.61781,-7.28811 -1.00642,-1.89455 -1.95067,-2.79413 -3.20651,-4.54382 -1.89344,-2.63803 -1.81065,-2.65954 -3.37508,-5.4207 -2.90579,-4.87233 -5.62139,-9.85338 -8.46923,-14.75801 -3.27189,-4.88879 -5.85825,-10.16807 -8.71982,-15.29215 -2.38144,-4.04746 -4.61127,-8.17507 -6.81056,-12.32334 -0.4748,-0.89553 -0.82593,-1.86915 -1.42751,-2.68494 -0.4681,-0.63476 0.68096,1.42288 1.02145,2.13432 -1.85616,-4.47387 -3.77367,-8.88413 -5.98641,-13.20499 -0.43474,-0.84894 -1.01126,-1.61758 -1.50217,-2.43533 -1.60975,-2.68152 -1.91275,-3.28247 -3.47006,-6.08086 -1.54051,-2.78874 -3.32727,-5.44283 -4.86421,-8.23307 -0.49877,-0.90548 -0.89543,-1.86568 -1.41086,-2.76177 -0.40574,-0.70538 1.42393,2.92677 1.08124,2.18871 -1.14845,-2.47354 -2.33251,-4.93038 -3.49877,-7.39558 -1.96482,-3.34955 -4.81041,-6.03089 -7.10409,-9.14001 -1.17419,-1.59165 -2.16386,-3.19497 -3.22519,-4.85581 -1.60523,-3.04806 -3.6531,-5.80507 -5.55506,-8.6631 -1.07103,-1.60938 -2.0724,-3.26403 -3.11372,-4.89275 -0.46135,-0.68099 -0.92596,-1.35972 -1.38401,-2.04293 -0.96896,-1.44518 -1.81062,-2.67134 -2.63361,-4.2159 -3.95224,-7.41751 1.4297,2.24383 -2.30558,-4.83785 -0.32602,-0.61809 -0.7198,-1.19803 -1.07968,-1.79702 -0.3642,-0.43863 -0.70887,-0.89421 -1.0926,-1.31585 -1.57543,-1.73109 -0.9879,-0.77563 -2.47954,-2.695 -1.31932,-1.69759 -2.29471,-3.6069 -3.3432,-5.47446 -1.58586,-2.05058 -2.51386,-4.47914 -3.76989,-6.7159 -1.24947,-1.71452 -2.25401,-3.58185 -3.42357,-5.34987 -0.79907,-0.93017 -1.01113,-2.36857 -1.98477,-3.13059 -0.0856,-0.0523 -0.51584,-0.30123 -0.57579,-0.39424 -0.0519,-0.0806 -0.0857,-0.37019 -0.0433,-0.28424 3.58622,7.26998 1.84864,6.11801 2.29068,4.13234 0.0106,-0.0525 0.11766,-0.53113 0.091,-0.59428 -0.74663,-1.77125 -1.57139,-3.50856 -2.37022,-5.25688 -0.0438,-0.0959 -0.20164,-0.37011 -0.15714,-0.27453 2.25039,4.83015 3.78566,7.88307 -0.28667,-0.3957 -0.0185,-0.0515 -0.0792,-0.20395 -0.0556,-0.15454 0.75324,1.57882 3.02815,6.30765 2.24496,4.74347 -0.84045,-1.67846 -1.61885,-3.38729 -2.41668,-5.08641 -0.0279,-0.0594 -0.005,-0.15174 -0.0598,-0.18766 -0.42555,-0.27817 -0.27125,0.16758 -0.3588,-0.2477 0.75407,1.56655 2.7608,6.36523 2.26224,4.69964 -0.53977,-1.80334 -1.60001,-3.40789 -2.38738,-5.1177 -0.22884,-0.49692 0.23542,0.14184 -0.385,-0.24452 -0.34848,-0.21702 0.76504,-0.55124 -0.50046,0.0356 -0.0618,0.12433 -0.15851,0.23678 -0.18534,0.37299 -0.0243,0.12408 0.0246,0.25171 0.0376,0.37752 0.0733,0.71859 -0.13327,0.84203 -0.5701,1.44567 -0.69583,1.69678 -0.24667,3.55104 -0.17373,5.32408 -0.004,0.66358 -0.0592,1.32469 -0.0471,1.98851 0.95998,1.46251 1.72264,3.07559 2.87993,4.38753 0.24678,0.27977 0.003,-0.74613 0.003,-1.11919 0.003,-2.22435 -0.003,-4.44873 -0.003,-6.67308 2.1e-4,-0.44917 2e-5,-0.89834 0,-1.34751 2e-5,-0.0248 0,-0.28744 0,-0.28728 -0.0819,0.0463 -0.0937,0.16304 -0.14058,0.24456 2.90113,1.14807 6.02129,1.34476 9.10149,1.50368 0,0 -2.07682,-5.09282 -2.07682,-5.09282 v 0 c -3.08216,-0.18 -6.13416,-0.48343 -9.06455,-1.51859 -0.23117,0.0579 -0.47937,0.0691 -0.69347,0.17377 -0.0695,0.034 0.0826,1.59796 0,1.6347 8e-5,1.62292 0,3.24584 0.003,4.86876 0,0.60138 0,1.20275 0.003,1.80415 0,0.37203 -0.15661,0.77954 0.003,1.11612 0.81762,1.73588 1.91546,3.32536 2.87319,4.98803 -0.0188,-0.66313 -0.033,-1.32567 0.0444,-1.98686 0.01,-1.7217 -0.45802,-3.45263 -0.1157,-5.1579 0.10335,-0.16986 0.18407,-0.3557 0.31001,-0.50953 0.36539,-0.44638 0.65749,-0.49409 0.59558,-1.13098 -0.0436,-0.44818 0.0445,-0.31426 -0.28114,-0.50691 -0.12587,0.0435 -0.30507,0.0187 -0.37759,0.13034 -0.0447,0.0688 0.16124,0.0574 0.21571,0.11885 0.0785,0.0885 0.19627,0.43057 0.14849,0.32235 -0.0592,-0.13405 -6.00925,-13.29752 0.17981,0.40112 0.27395,0.15341 0.48101,0.57424 0.42005,0.4349 -0.70501,-1.61178 -2.76159,-6.46679 -2.17956,-4.80662 1.6051,4.5783 0.91938,3.93475 2.44795,5.29095 -0.7371,-1.5933 -2.77481,-6.44252 -2.21128,-4.77989 0.6128,1.80804 1.56485,3.48275 2.3599,5.21838 0.66987,1.46236 -1.23404,-2.9715 -1.90241,-4.43451 -0.0737,-0.16127 0.14349,0.70498 0.0138,0.53174 -0.0522,0.21416 -0.27276,0.42569 -0.19494,0.63194 1.89148,5.01346 0.99314,4.1288 2.98026,5.90182 0.70205,1.0023 1.14732,2.17686 1.88407,3.16209 1.143,1.77779 2.2083,3.60418 3.38051,5.36271 1.18787,2.27804 2.28338,4.60827 3.77928,6.71311 1.06598,1.87749 2.08748,3.75553 3.44895,5.44211 2.25396,2.79228 0.26963,0.12417 2.45679,2.70214 0.36266,0.42746 0.67863,0.89241 1.01795,1.3386 1.23571,2.16522 2.18978,4.45072 3.38966,6.63356 0.83246,1.51445 1.7072,2.77667 2.6624,4.20724 0.45603,0.68297 0.91424,1.36451 1.37136,2.04674 2.89028,4.5216 5.9913,8.90199 8.67047,13.55535 1.16729,1.79948 1.96882,3.09562 3.27711,4.83989 2.30767,3.07673 5.12955,5.775 6.98928,9.1745 -0.36473,-0.81785 -1.47314,-3.26482 -1.09416,-2.4535 1.18912,2.54558 2.31482,5.12077 3.52465,7.65659 1.81973,3.81412 4.26979,7.28702 6.292,10.98989 2.08881,3.72515 1.39751,2.54595 3.48896,6.07526 0.48432,0.81729 0.51041,2.47898 1.45992,2.44776 0.89215,-0.0293 -1.32543,-3.31187 -1.05548,-2.46105 0.10173,0.32057 2.3426,5.60033 2.43663,5.82274 1.19872,2.56847 2.36254,5.15353 3.59616,7.70541 0.44114,0.91252 0.95139,1.78998 1.42682,2.68512 2.20255,4.14719 4.45834,8.2617 6.82083,12.32033 2.83599,5.1399 5.49677,10.37658 8.72889,15.28947 2.8271,4.91699 5.58133,9.87515 8.46831,14.75828 0.52181,0.89296 1.00983,1.8066 1.56546,2.67895 2.58596,4.05982 1.07365,1.36142 3.59717,5.04124 0.50003,0.72917 0.7026,2.77882 1.40912,2.24724 0.73017,-0.54938 -1.83489,-2.16196 -1.00738,-2.5495 0.82595,-0.38682 0.76793,1.65455 1.15189,2.48182 1.68611,3.89218 1.91119,4.45789 4.32279,9.57546 0.26998,0.57293 1.10427,2.2751 0.88752,1.68 -0.46114,-1.26611 -1.08768,-2.46576 -1.62396,-3.70195 -0.28945,-0.66725 1.19541,2.58884 0.80671,2.02742 1.06466,2.43208 1.86841,5.00735 3.268,7.26337 1.57388,2.53699 3.94679,4.35637 6.46491,5.8869 0,0 -1.84716,-5.18057 -1.84716,-5.18057 z" />
  </g>
</svg>
